<svg width="24" height="24" viewBox="0 0 24 24" fill="none" xmlns="http://www.w3.org/2000/svg"><path fill-rule="evenodd" clip-rule="evenodd" d="M21.3762 4.78569V8.6428L22 8.85709V13.6428L19.8515 15.0713V17.5713C19.8515 17.5713 16.4554 19.7856 11.3267 19.7856C6.12871 19.7856 2.80198 17.5713 2.80198 17.5713V15.0713L1 13.7856V8.99994L3.0099 7.8571C3.77228 3.92855 7.09901 1 11.1188 1H11.4653C15.4158 1 18.8119 3.92855 19.5743 7.78567L19.9901 7.99995V4.78569C19.9901 4.35712 20.3366 4.07141 20.6832 4.07141C21.099 4.07141 21.3762 4.42855 21.3762 4.78569ZM16.9104 14.0689C17.0651 14.0198 17.2137 13.9726 17.3564 13.9285H17.2871V8.28566C15.8317 7.64281 13.8911 7.07139 11.396 7.07139C8.90099 7.07139 6.89109 7.64281 5.36634 8.35709V13.9285C5.57258 13.9892 5.78717 14.0557 6.01109 14.125C7.36742 14.5451 9.06627 15.0713 11.3267 15.0713C13.7514 15.0713 15.5626 14.4966 16.9104 14.0689Z" fill="white"/><path d="M19.1434 19.2358C19.2719 19.1771 19.3468 19.1429 19.3663 19.1429C19.8515 18.8572 20.4753 19.0715 20.8218 19.5715C21.099 20.1429 20.8911 20.7857 20.4059 21.0714C20.388 21.0714 20.3187 21.1051 20.198 21.1637C19.8537 21.3309 19.0914 21.7012 17.9109 22.0714C16.3168 22.5 14.099 23 11.396 23C8.69308 23 6.47526 22.5714 4.8812 22.0714C3.787 21.7126 3.01403 21.3538 2.63913 21.1798C2.49161 21.1113 2.40572 21.0714 2.38615 21.0714C1.901 20.7857 1.69308 20.0714 1.97031 19.5715C2.24754 19.0715 2.8713 18.8572 3.42575 19.1429C3.42575 19.1429 3.42575 19.2143 3.49506 19.2143C3.56437 19.2857 3.70298 19.3572 3.9109 19.4286C4.25744 19.5714 4.81189 19.7857 5.50496 20C6.8911 20.4286 8.97031 20.8572 11.396 20.8572C13.7525 20.8572 15.7624 20.4286 17.1485 20C18.1432 19.6925 18.8167 19.3849 19.1434 19.2358Z" fill="white"/></svg>