<svg width="24" height="24" viewBox="0 0 24 24" fill="none" xmlns="http://www.w3.org/2000/svg"><path d="M16.4194 12.9369V11.4101C16.871 11.2713 18.2903 10.7855 18.9355 11.8959C18.9355 9.74448 16.9355 9.46688 16.4194 9.39748V8.35647C16.4194 8.07886 16.4194 7.73186 16.3548 7.45426C16.8064 7.10726 17.9032 6.41325 18.7419 7.17666C18.0968 5.16404 16.1613 5.51104 15.6452 5.64984C15.5161 5.44164 15.3871 5.23344 15.1935 5.09464C15.2581 4.74763 15.5161 2.94322 16.7419 2.87382C15.0645 1.90221 13.9032 3.35962 13.5806 3.91483C13.3226 3.77602 13 3.70662 12.7419 3.63722C12.5484 3.15142 12.1613 1.69401 13.0645 1C11.1935 1.0694 10.871 3.08202 10.871 3.70662C10.4839 3.77603 10.1613 3.91483 9.83871 4.12303C9.3871 3.84543 8.22581 3.08202 8.48387 1.90221C7.12903 3.29022 8.03226 4.88643 8.41935 5.44164C8.16129 5.78864 7.96774 6.13565 7.83871 6.55205C7.3871 6.62145 5.90323 6.69085 5.51613 5.51104C5.06452 7.73186 7.12903 8.42587 7.51613 8.56467V10.3691C7.12903 10.5079 5.64516 10.9937 5 9.95268C5 12.1041 7.06452 12.3817 7.51613 12.4511V14.2555C7.12903 14.3943 5.64516 14.8801 5 13.8391C5 15.9905 7.06452 16.2681 7.51613 16.3375V18.0032L12.1613 23L16.4839 18.0032V15.0189C16.9355 14.8801 18.3548 14.3943 19 15.5047C18.9355 13.3533 16.9355 13.0063 16.4194 12.9369ZM14.8065 16.8233V16.9621L14.1613 12.6593V8.56467C14.1613 7.94006 13.9032 7.31546 13.5161 6.89905C13.129 6.48265 12.6129 6.20505 11.9677 6.20505C11.3871 6.20505 10.8065 6.48265 10.4194 6.89905C10.0323 7.31546 9.77419 7.87066 9.77419 8.56467V12.6593L9.12903 16.9621V8.56467C9.12903 6.89905 10.4194 5.51104 11.9677 5.51104C13.5161 5.51104 14.8065 6.89905 14.8065 8.56467V16.8233ZM11.0645 8.84227C11.0645 8.28707 11.4516 7.87066 11.9677 7.87066C12.4839 7.87066 12.871 8.28707 12.871 8.84227C12.871 9.39748 12.4839 9.81388 11.9677 9.81388C11.4516 9.81388 11.0645 9.39748 11.0645 8.84227Z" fill="white"/></svg>