<svg width="24" height="24" viewBox="0 0 24 24" fill="none" xmlns="http://www.w3.org/2000/svg"><path d="M6.07383 6L1 10.9296L5.93289 11L5.86242 12.9014C5.86242 12.9014 4.80537 13.9577 4.45302 14.2394C2.19799 16.5634 2.33893 17.4789 2.33893 17.4789L6.70805 21L8.25839 20.0141L7.55369 19.0986L9.1745 16.3521C9.8792 16.4225 10.7248 16.4225 11.5705 16.4225C12.4866 16.4225 13.3322 16.3521 13.8255 16.2113C15.5872 15.6479 16.5738 13.6056 16.9262 12.9014L18.6175 12.831C18.6175 12.6197 19.1812 10.9296 19.1812 10.9296H22V6H6.07383ZM13.4732 15.4366C12.7685 15.6479 11.0067 15.6479 9.59732 15.5775L11.0772 13.1127L15.8691 13.0423C15.4463 13.7465 14.6711 15.0141 13.4732 15.4366Z" fill="white"/></svg>