<svg width="24" height="24" viewBox="0 0 24 24" fill="none" xmlns="http://www.w3.org/2000/svg"><path d="M18.6723 8.16176C17.0389 8.75 15.9994 9.77941 15.4054 11.4706C14.8114 9.85294 13.772 8.75 12.1385 8.23529C13.772 7.64706 14.8114 6.61765 15.4054 5C15.9252 6.47059 17.0389 7.57353 18.6723 8.16176ZM3.3031 13.6029L7.60945 12.1324C7.90644 12.0588 8.05493 11.8382 8.20343 11.6176L9.68837 7.42647L11.1733 11.6912C11.2476 11.9118 11.4703 12.1324 11.6931 12.2059L16.0736 13.75L11.8415 15.2206C11.5446 15.2941 11.3218 15.5882 11.1733 15.8824L9.61413 20L7.90644 15.8824C7.75794 15.5147 7.46095 15.2206 7.08972 15.0735L3.3031 13.6029ZM7.46095 8.16176C7.46095 8.16176 2.93187 8.45588 1.00143 12.7941C0.927187 12.9412 3.82283 11.9118 3.82283 11.9118C4.34257 10.0735 6.64423 9.19118 6.64423 9.19118L7.46095 8.16176ZM20.38 9.41176L19.0435 10.4412C21.3452 11.6176 20.38 12.7206 19.8603 13.1618C17.9298 14.7059 14.1432 16.9118 14.2917 16.8382C14.4402 16.7647 22.3104 16.5441 22.9787 12.4265C23.2756 10.8088 20.38 9.41176 20.38 9.41176Z" fill="white"/></svg>