<svg width="24" height="24" viewBox="0 0 24 24" fill="none" xmlns="http://www.w3.org/2000/svg"><path d="M6.4866 10.918V11.8197C6.4866 12.2705 6.30711 12.7213 6.12762 13.082L2.71724 18.041C2.71724 18.041 0.832559 16.0574 1.01205 11.8197L6.4866 10.918ZM9.08926 7.58197L4.15319 4.2459C4.15319 4.2459 0.922306 8.03279 1.37104 9.65574L7.65331 8.39344C7.92255 8.30328 8.10204 8.21311 8.37128 8.12295L9.08926 7.58197ZM7.38407 15.0656L4.06344 19.7541C5.76863 22.0082 9.53799 23 9.53799 23L8.46103 16.5082C8.37128 16.1475 8.19179 15.7869 8.0123 15.6066L7.38407 15.0656ZM17.9742 21.4672L12.2304 17.4098H11.0637L11.7817 23C16.1792 23 17.9742 21.4672 17.9742 21.4672ZM5.85838 2.89344L11.2432 6.59016H12.6791L12.1406 1C7.38407 1 5.85838 2.89344 5.85838 2.89344ZM14.4741 1.45082L15.9998 9.11475H16.4485L19.7691 4.51639C17.1665 1.54098 14.4741 1.45082 14.4741 1.45082ZM17.5254 12.8115V11.8197L21.2948 5.95902C23 8.93443 23 12.3607 23 12.3607L17.5254 12.8115ZM14.9228 16.5984L15.91 15.7869L22.5513 14.4344C21.923 17.9508 19.7691 20.0246 19.7691 20.0246L14.9228 16.5984Z" fill="white"/></svg>