<svg width="24" height="24" viewBox="0 0 24 24" fill="none" xmlns="http://www.w3.org/2000/svg"><path d="M18.5835 5.51959H5.56362C4.60735 5.51959 3.79821 4.72772 3.79821 3.79187V3.43193C3.79821 3.21596 4.01889 3 4.23956 3H20.0547C20.2753 3 20.496 3.21596 20.496 3.43193V3.64789C20.5696 4.65573 19.6869 5.51959 18.5835 5.51959ZM13.2873 18.1175L19.834 7.10333C20.3489 6.31146 21.3787 6.02351 22.1879 6.45544L22.7763 6.74339C22.997 6.88737 23.0706 7.10333 22.9235 7.3193L14.9791 20.7811C14.832 20.9971 14.6113 21.0691 14.3907 20.9251L14.0229 20.7091C13.0666 20.2052 12.7724 19.0534 13.2873 18.1175ZM4.31312 7.24731L11.0805 18.1175C11.5954 18.9094 11.3012 19.9892 10.492 20.4212L9.90358 20.7811C9.6829 20.9251 9.38867 20.8531 9.31511 20.6371L1.07654 7.46328C0.929422 7.24731 1.00298 6.95936 1.22366 6.88737L1.59145 6.6714C2.54771 6.0955 3.79821 6.38345 4.31312 7.24731ZM8.35885 7.67924H16.0089C16.5974 7.67924 16.9652 8.25515 16.671 8.75907L12.8459 15.526C12.5517 16.0299 11.8161 16.0299 11.5219 15.526L7.69682 8.75907C7.40258 8.25515 7.77038 7.67924 8.35885 7.67924Z" fill="white"/></svg>