<svg width="24" height="24" viewBox="0 0 24 24" fill="none" xmlns="http://www.w3.org/2000/svg"><path d="M16.3185 12.4222C16.9704 12.7333 17.7037 12.9667 18.5185 12.9667C20.963 12.9667 23 11.0222 23 8.68889C23 6.35556 20.963 4.41111 18.5185 4.41111C17.8667 4.41111 17.2148 4.56667 16.6444 4.8C15.7481 3.16667 14.037 2 11.9185 2C9.88148 2 8.08889 3.16667 7.19259 4.8C6.7037 4.56667 6.05185 4.41111 5.48148 4.41111C3.03704 4.41111 1 6.35556 1 8.68889C1 11.0222 3.03704 12.9667 5.48148 12.9667C6.45926 12.9667 7.27407 12.6556 8.00741 12.1889L9.31111 12.4222L9.47407 14.4444C5.56296 14.7556 2.79259 15.6111 2.79259 16.6222C2.79259 17.7111 5.80741 18.5667 9.88148 18.8778L9.96296 19.8889C9.55556 20.5889 7.43704 21.6778 6.7037 21.6778C6.2963 21.6778 6.21482 21.9889 6.21482 21.9889C6.21482 21.9889 8.9037 23 12.2444 23C15.6667 23 18.2741 22.1444 18.2741 22.1444C18.2741 22.1444 18.3556 21.7556 17.7037 21.6778C16.7259 21.6 15.3407 20.3556 14.6889 19.6556L14.7704 18.8C18.763 18.5667 21.6963 17.6333 21.6963 16.6222C21.6963 15.6111 18.8444 14.6778 15.0148 14.4444L15.0963 12.4222C15.0148 12.5 15.6667 12.5 16.3185 12.4222ZM7.02963 16.0778C7.02963 15.6111 8.00741 15.3 9.55556 15.0667L9.71852 17.1667C8.08889 16.9333 7.02963 16.5444 7.02963 16.0778ZM17.7037 16.0778C17.7037 16.5444 16.563 16.9333 14.7704 17.1667L14.8519 14.9889C16.563 15.2222 17.7037 15.6111 17.7037 16.0778Z" fill="white"/></svg>