<svg width="24" height="24" viewBox="0 0 24 24" fill="none" xmlns="http://www.w3.org/2000/svg"><path d="M22.9217 4C22.9217 4 19.9863 8.64286 11.9678 8.5C4.30733 8.28571 1.08562 4 1.08562 4C1.08562 4 -0.417846 15.4286 9.17569 21L11.8962 18.2857L14.9748 20.8571C24.3535 16.6429 22.9217 4 22.9217 4ZM8.81772 15.5714C5.52442 15 5.52442 11.7857 5.52442 11.7857C5.52442 11.7857 6.8847 11.7857 7.60063 12.1429C9.60525 13.2143 10.0348 15.5714 10.0348 15.5714C10.0348 15.5714 9.60525 15.7143 8.81772 15.5714ZM15.4043 15.5714C14.6168 15.7143 14.2588 15.5714 14.2588 15.5714C14.2588 15.5714 14.6168 13.1429 16.693 12.1429C17.4089 11.7857 18.7692 11.7857 18.7692 11.7857C18.7692 11.7857 18.6976 15 15.4043 15.5714Z" fill="white"/></svg>