<svg width="24" height="24" viewBox="0 0 24 24" fill="none" xmlns="http://www.w3.org/2000/svg"><path d="M20.3296 9.50307L20.1902 9.30061V9.23313L20.0508 9.03068C19.772 8.4908 19.0749 8.28834 18.5173 8.62577L16.7747 9.63804C15.2412 6.66871 14.2654 4.9816 12.8016 1C10.8499 6.19632 9.52551 8.08589 7.15558 13.1472C6.80706 13.8896 6.59795 14.6319 6.52825 15.3067L4.08861 16.6564C3.53098 16.9939 3.32187 17.6687 3.67039 18.2086L3.9492 18.681C4.29772 19.2209 4.99476 19.4233 5.55239 19.0859L5.7615 18.9509L9.66492 16.7914L19.9114 10.9877C20.469 10.7178 20.6781 10.0429 20.3296 9.50307ZM7.78292 20.4356C8.96788 21.9877 10.7802 23 12.8016 23C17.0535 23 20.2599 18.7485 18.8658 14.227C15.52 16.1166 10.7105 18.7485 7.78292 20.4356Z" fill="white"/></svg>