<svg width="24" height="24" viewBox="0 0 24 24" fill="none" xmlns="http://www.w3.org/2000/svg"><path d="M15.5157 7.82H8.70865L5.94093 4.44667C6.91337 2.24667 9.30707 1 12.2244 1C15.1417 1 17.2362 2.32 18.2835 4.44667L15.5157 7.82Z" fill="white"/><path d="M4.81888 16.1067V11.56C4.81888 11.56 5.64172 12.8067 5.79132 13.32C5.86613 13.54 5.79132 14.42 5.79132 14.42C5.79132 14.42 8.18503 15.74 8.85825 16.84C9.8307 18.4533 10.3543 20.6533 10.3543 20.6533L13.7205 20.7267C13.7205 20.7267 13.9449 18.4533 15.3661 16.5467C15.9646 15.8133 18.2835 14.5667 18.2835 14.5667C18.2835 14.5667 18.2086 13.6867 18.2835 13.3933C18.4331 12.88 19.2559 11.4867 19.2559 11.4867V15.74L14.2441 23H9.8307L4.81888 16.1067Z" fill="white"/><path d="M8.40945 9.28681L2.5 2.98014V4.81348L7.13779 12.7335C7.13779 12.7335 9.08268 13.8335 9.90551 14.3468C10.9528 15.0068 12.0748 18.9668 12.0748 18.9668C12.0748 18.9668 13.122 15.1535 14.2441 14.3468C15.0669 13.8335 16.8622 12.8068 16.8622 12.8068L21.5 4.74014V2.98014L15.815 9.28681H8.40945Z" fill="white"/></svg>