<svg width="24" height="24" viewBox="0 0 24 24" fill="none" xmlns="http://www.w3.org/2000/svg"><path fill-rule="evenodd" clip-rule="evenodd" d="M16.9604 12.1827C16.9604 13.5714 18.1617 14.1561 19.0097 13.2791C19.0804 13.206 19.2924 13.206 19.3631 13.3522C19.6911 15.2428 18.0918 16.201 16.4827 17.165C15.6657 17.6545 14.8462 18.1455 14.2751 18.7608H15.7591L15.1938 19.8571C15.0524 20.1495 14.6991 20.3688 14.3458 20.3688H13.2858C13.0031 21.2458 13.0031 22.1229 13.2858 23H11.3071C11.5898 22.1229 11.5898 21.2458 11.3071 20.3688H10.1765C9.82316 20.3688 9.46983 20.1495 9.3285 19.8571L8.76317 18.7608H10.2472C9.6594 18.1022 8.80854 17.5929 7.96812 17.0898C6.38349 16.1412 4.83597 15.2148 5.15921 13.3522C5.15921 13.206 5.3712 13.206 5.44187 13.2791C6.28986 14.2292 7.49118 13.5714 7.49118 12.1827C7.49118 11.532 7.17752 10.9647 6.82784 10.3323C6.19562 9.18887 5.44569 7.83256 6.2192 5.38538C6.28986 5.31229 6.43119 5.2392 6.50186 5.31229C8.60665 7.10226 9.90652 4.63348 10.8932 2.75943C11.3973 1.80212 11.8196 1 12.2258 1C12.6641 1 13.1023 1.83302 13.6187 2.81439C14.6009 4.6812 15.8655 7.08481 17.9497 5.31229C18.0911 5.2392 18.2324 5.2392 18.2324 5.38538C18.9535 7.80934 18.2374 9.13331 17.624 10.2674C17.2757 10.9115 16.9604 11.4944 16.9604 12.1827ZM11.1658 18.7608H13.4271L14.7698 8.96678L12.3671 4.80066C12.2965 4.72757 12.2258 4.72757 12.2258 4.80066L9.82316 8.96678L11.1658 18.7608Z" fill="white"/><path d="M18.0911 12.4021C17.7377 12.1828 17.8084 11.4519 18.1617 10.8672L18.3737 10.6479L18.939 9.84391C19.1567 9.58661 19.2102 9.37177 19.25 9.21184C19.3006 9.00833 19.3291 8.89375 19.6457 8.89375C20.2817 8.89375 19.999 10.8672 19.2924 11.8173C19.2654 11.8453 19.2487 11.8732 19.2344 11.897C19.2114 11.9356 19.1947 11.9635 19.151 11.9635C18.7977 12.4021 18.3737 12.5482 18.0911 12.4021Z" fill="white"/><path d="M8.28111 3.77076C8.2771 3.74947 8.27293 3.72736 8.26849 3.70438C8.26849 3.69448 8.2659 3.66851 8.26212 3.63062C8.23799 3.38871 8.16543 2.66133 8.40982 2.53495C8.85631 2.41949 8.99425 3.12468 9.06732 3.49828C9.08677 3.59771 9.10163 3.67365 9.11648 3.70438C9.18715 3.85056 9.18715 4.43528 8.76315 4.2891C8.36582 4.22061 8.34083 4.08792 8.28111 3.77076Z" fill="white"/><path d="M4.68756 9.84008C4.76938 9.92776 4.86666 10.032 5.01786 10.1363C5.37119 10.4286 5.79518 11.3057 5.44185 11.5981C4.80586 12.1828 4.38187 11.2326 4.3112 11.0134C4.29842 10.9737 4.27178 10.9149 4.2392 10.8431C4.09167 10.5176 3.82255 9.92401 4.16987 9.62465C4.44267 9.57762 4.53995 9.68188 4.68756 9.84008Z" fill="white"/></svg>