<svg width="24" height="24" viewBox="0 0 24 24" fill="none" xmlns="http://www.w3.org/2000/svg"><path d="M1.64603 11.8715C1.49178 11.9506 1.41465 12.1878 1.64603 12.2668C1.99399 12.3525 2.46 12.4535 2.99511 12.5696C5.42524 13.0966 9.28044 13.9326 9.97573 15.0341C10.6699 16.1411 12.1353 22.9407 12.1353 22.9407C12.1353 23.0198 12.2124 23.0198 12.2124 22.9407C12.2124 22.9407 13.9863 15.9039 14.7576 15.0341C15.7602 13.9272 20.7735 12.6622 22.2389 12.425C22.5474 12.3459 22.6245 12.1087 22.2389 12.0296L22.181 12.0198C20.7127 11.7691 15.6686 10.9079 14.6033 9.81581C13.6778 8.86703 12.598 3.09524 12.2895 1.1186C12.2124 0.960467 11.981 0.960467 11.981 1.1186C11.6725 3.1743 10.5156 8.70889 9.82148 9.81581C9.28159 10.7646 3.49708 11.6343 1.64603 11.8715Z" fill="white"/><path d="M17.457 2.46281C16.6086 2.06748 14.2177 2.14654 14.2177 2.14654L14.6033 3.72786C14.6033 3.72786 16.0687 3.64879 16.5315 3.96505C17.6113 4.59758 19.1538 10.1322 19.1538 10.1322H21.082C21.082 10.1322 18.8453 3.1744 17.457 2.46281Z" fill="white"/><path d="M7.12203 2.46281C7.97043 2.06748 10.3614 2.14654 10.3614 2.14654L9.97572 3.72786C9.97572 3.72786 8.51031 3.64879 8.04755 3.96505C6.96778 4.59758 5.42524 10.1322 5.42524 10.1322H3.49707C3.49707 10.1322 5.73375 3.1744 7.12203 2.46281Z" fill="white"/><path d="M7.0449 22.2292C7.8933 22.6245 10.2842 22.5455 10.2842 22.5455L9.8986 20.9642C9.8986 20.9642 8.43319 20.9642 8.04755 20.727C6.96778 20.0944 5.42524 14.5598 5.42524 14.5598H3.41994C3.41994 14.5598 5.65662 21.5176 7.0449 22.2292Z" fill="white"/><path d="M17.3799 22.2292C16.5315 22.6245 14.1406 22.5455 14.1406 22.5455L14.6033 20.9642C14.6033 20.9642 16.0687 20.9642 16.4544 20.727C17.5342 20.0944 19.0767 14.5598 19.0767 14.5598H21.0049C21.0049 14.5598 18.7682 21.5176 17.3799 22.2292Z" fill="white"/></svg>