<svg width="24" height="24" viewBox="0 0 24 24" fill="none" xmlns="http://www.w3.org/2000/svg"><path d="M18.7778 2H5.22222L1 11.8155L6.33333 14.5461L8.18518 22H9.81481L10.7037 18.4576L10.8519 22H13.0741L13.2963 18.3838L14.1111 22H15.8148L17.6667 14.6199L23 11.8155L18.7778 2ZM10.7778 11.3727L9.96296 12.8487C9.88889 13.0701 9.59259 13.1439 9.37037 12.9963L4.7037 10.6347C4.48148 10.5609 4.40741 10.2657 4.55556 10.0443L5.2963 8.56827C5.37037 8.34686 5.66667 8.27306 5.88889 8.42066L10.5556 10.7823C10.7778 10.9299 10.8519 11.1513 10.7778 11.3727ZM19.5185 10.6347L14.8519 12.9963C14.6296 13.0701 14.4074 12.9963 14.2593 12.8487L13.4444 11.3727C13.2963 11.1513 13.4444 10.9299 13.5926 10.7823L18.2593 8.42066C18.4815 8.34686 18.7037 8.42066 18.8519 8.56827L19.5926 10.0443C19.8148 10.2657 19.7407 10.5609 19.5185 10.6347Z" fill="white"/></svg>