<svg width="24" height="24" viewBox="0 0 24 24" fill="none" xmlns="http://www.w3.org/2000/svg"><path d="M18.7308 14.9692L18.5 12.2417C18.5 11.7871 18.1154 11.4083 17.7308 11.4083C17.2692 11.4083 16.9615 11.7871 16.9615 12.2417L16.7308 14.06H15.5L12.5 1.4834C12.3462 0.877303 11.4231 0.80154 11.2692 1.4834L8.42308 13.9842H6.80769L6.65385 12.1659C6.65385 11.7114 6.26923 11.3326 5.88461 11.3326C5.42308 11.3326 5.11538 11.7114 5.11538 12.1659L4.80769 14.8934C3.57692 15.2722 2.5 15.5753 2.5 15.5753V19.2876L8.42308 21.4847V23C8.42308 23 10.1154 22.5454 11.8077 22.5454C13.4231 22.5454 15.3462 23 15.3462 23L15.2692 21.4847L21.5 19.4392V15.651C21.2692 15.651 20.0385 15.348 18.7308 14.9692ZM10.0385 16.0298V14.8176C10.0385 14.8176 10.3462 12.469 11.8077 12.469C13.3462 12.469 13.5769 14.8176 13.5769 14.8176V16.0298H10.0385Z" fill="white"/></svg>