<svg width="24" height="24" viewBox="0 0 24 24" fill="none" xmlns="http://www.w3.org/2000/svg"><path d="M19.9257 11.1714H22.5314C22.5314 11.1714 21.0229 14.5314 17.4571 16.7257V15.9029C19.3771 13.3657 19.9257 11.1714 19.9257 11.1714ZM3.60571 11.1714H1C1 11.1714 2.50857 14.5314 6.07429 16.7257V15.9029C4.15429 13.3657 3.60571 11.1714 3.60571 11.1714ZM14.3714 11.0343C15.6743 10.8971 16.5657 11.1029 17.8686 11.72L18.28 11.9257C17.7314 13.16 16.7029 14.3257 15.4 15.0114C15.9486 16.1086 16.0857 17.4114 15.88 18.7143C15.88 18.8514 15.8114 18.9886 15.8114 19.1257C14.3714 18.9886 12.9314 18.44 11.8343 17.48C10.8743 18.3029 9.64 18.8514 8.26857 19.0571C8.13143 19.0571 7.99429 19.1257 7.78857 19.1257C7.44571 17.7543 7.58286 16.3143 8.2 14.9429C7.10286 14.3257 6.14286 13.3657 5.52571 12.2L5.32 11.7886C6.55429 11.1029 7.65143 10.76 9.16 10.8971C9.43429 9.66286 10.4629 8.56571 11.4229 7.60571C11.56 7.46857 11.6286 7.4 11.7657 7.33143C12.8629 8.36 14.0286 9.59429 14.3714 11.0343ZM7.85714 9.73143C7.85714 9.73143 6.28 9.93714 5.18286 10.2114C3.88 9.18286 3.88 5 3.88 5C3.88 5 7.44571 6.71429 8.33714 8.22286C8.54286 8.56571 8.2 9.25143 7.85714 9.73143ZM15.6743 9.73143C15.6743 9.73143 17.2514 9.93714 18.3486 10.2114C19.6514 9.18286 19.6514 5 19.6514 5C19.6514 5 16.0857 6.71429 15.1943 8.22286C15.0571 8.56571 15.3314 9.25143 15.6743 9.73143Z" fill="white"/></svg>