<svg width="24" height="24" viewBox="0 0 24 24" fill="none" xmlns="http://www.w3.org/2000/svg"><path d="M23 6.12721C22.9285 1.56769 19.0466 1.22119 19.0466 1.22119C19.0466 1.22119 20.6174 2.43119 20.3402 5.1955C20.0982 7.58031 16.5892 8.37011 15.6355 8.54061L14.2759 7.78491L12.8393 4.3639L12 3.2595L11.1596 4.3661L9.72296 7.78711L8.36336 8.54171C7.40855 8.37121 3.90064 7.58141 3.65864 5.1966C3.38144 2.43119 4.95225 1.22119 4.95225 1.22119C4.95225 1.22119 1.07363 1.56659 1.00103 6.12721C0.931734 10.6867 4.36704 11.5722 4.37034 11.5755C4.59035 13.0594 4.51224 14.2122 4.51224 14.2122C8.36006 14.8348 10.2686 18.7552 10.2686 18.7552C10.2686 18.7552 7.83755 15.904 5.91255 16.0437C6.12375 16.9215 7.80235 20.1544 7.80235 20.1544L12 22.7791L16.1976 20.1544C16.1976 20.1544 17.8762 16.9204 18.0863 16.0437C16.1624 15.9073 13.7314 18.7552 13.7314 18.7552C13.7314 18.7552 15.6399 14.8348 19.4877 14.2122C19.4877 14.2122 19.4096 13.0561 19.6307 11.5755C19.6329 11.5722 23.0682 10.6867 22.9989 6.12831L23 6.12721ZM6.99495 11.6602C7.59335 11.4545 9.38196 11.5073 10.2103 13.0308C8.52286 13.4818 7.25345 12.2322 6.99495 11.6591V11.6602ZM13.7875 13.0308C14.6158 11.5073 16.4044 11.4545 17.0028 11.6591C16.7443 12.2311 15.4782 13.4818 13.7875 13.0308Z" fill="white"/></svg>