<svg width="24" height="24" viewBox="0 0 24 24" fill="none" xmlns="http://www.w3.org/2000/svg"><path fill-rule="evenodd" clip-rule="evenodd" d="M7.89607 10.7191V7.34409C7.89607 6.56351 6.90024 6.4372 6.90024 6.4372V4.03155C6.90024 4.03155 9.03619 3.59441 9.26676 1H11.1976L16.959 4.68725V11.1562L13.8626 8.12472C13.8626 8.12472 14.9843 8.12472 14.6095 6.90555C14.1116 6.51528 11.0731 4.74969 11.0731 4.74969V9.62487C11.0731 9.62487 15.7143 11.0313 18.0185 15.468C17.3961 16.1549 17.2405 16.531 17.2405 16.531L17.1783 19.4064C17.1783 19.4064 12.6928 20.7193 10.4196 23C9.37568 21.9526 8.31902 20.5901 8.31902 20.5901L9.72083 19.1836L10.4677 19.9642C10.4677 19.9642 12.0251 18.8387 13.4892 18.3079C13.4892 17.621 13.5203 14.6249 13.5203 14.6249C13.5203 14.6249 11.1043 11.7807 7.98943 11.7807C7.92719 11.4997 7.89607 10.7191 7.89607 10.7191ZM9.18616 18.3083L7.5838 16.7006L5.98145 18.3083L7.5838 19.916L9.18616 18.3083ZM9.75568 14.5219L11.358 16.1296L9.75568 17.7373L8.15333 16.1296L9.75568 14.5219Z" fill="white"/></svg>