<svg width="24" height="24" viewBox="0 0 24 24" fill="none" xmlns="http://www.w3.org/2000/svg"><path d="M1.9262 2.51421C3.7654 1.81571 5.4627 1.50001 7.0148 1.50001C8.8397 1.49781 10.4545 1.94441 11.8075 2.67371C11.8735 2.71001 11.934 2.74521 12 2.78371C13.3915 1.99171 15.0745 1.49781 16.9874 1.50001C18.5373 1.50001 20.2346 1.81571 22.0738 2.51421L23 2.86401L22.8834 3.84301C22.6524 5.80101 22.1464 7.45541 21.4248 8.83151C20.9207 9.80343 20.2632 10.6878 19.4778 11.4506C18.9637 11.9459 18.3963 12.3827 17.786 12.753C17.786 12.8036 17.7904 12.852 17.7904 12.9026C17.7884 14.5024 17.3912 16.0769 16.6343 17.4863C15.8225 19.0208 14.5553 20.5113 12.759 21.8995L11.9813 22.5001L11.2025 21.8995C9.4062 20.5102 8.139 19.0208 7.3272 17.4863C6.57061 16.0768 6.17387 14.5023 6.1722 12.9026C6.1722 12.8443 6.1733 12.7871 6.1755 12.7299L6.0985 12.6859C4.76458 11.8452 3.65239 10.696 2.8557 9.33531C1.9856 7.86681 1.3762 6.04741 1.1166 3.84631L1 2.86401L1.9262 2.51201V2.51421ZM14.6004 11.4132C14.7544 11.367 14.9084 11.3164 15.0613 11.2614C15.0137 11.0167 14.9531 10.7747 14.8798 10.5365C14.5219 9.4303 13.9768 8.39372 13.2683 7.47191C12.8859 6.96676 12.4556 6.49966 11.9835 6.07711C11.7844 6.25421 11.5798 6.45111 11.3763 6.66891C10.589 7.5153 9.94477 8.48425 9.4689 9.53771C9.2772 10.0103 9.12057 10.4963 9.0003 10.9919C8.97944 11.0814 8.96037 11.1712 8.9431 11.2614L9.0652 11.3076C10.0233 11.6343 11.0375 11.7817 12.011 11.7949C12.8873 11.7838 13.7582 11.6555 14.6004 11.4132ZM18.9619 8.04501C19.5053 7.12871 19.9431 5.98031 20.2093 4.55141C19.0125 4.18731 17.9411 4.02891 16.9863 4.02891C16.0504 4.02224 15.1213 4.18741 14.2451 4.51621C14.3067 4.57671 14.3683 4.63721 14.4244 4.70101C15.4564 5.81216 16.2789 7.10084 16.8521 8.50481C17.0545 8.99651 17.2217 9.48051 17.3526 9.95461C17.9932 9.41341 18.5377 8.76777 18.963 8.04501H18.9619ZM11.9813 19.2573C13.1077 18.2618 13.8799 17.2674 14.3892 16.3049C14.8072 15.5096 15.0525 14.7319 15.1691 13.9718C15.0481 14.0015 14.9304 14.0301 14.8072 14.0554C13.991 14.2248 13.0956 14.3238 12.1562 14.3238L11.9912 14.3216L11.846 14.3238C10.9066 14.3238 10.0101 14.2248 9.195 14.0554C9.0575 14.029 8.9255 13.9949 8.7924 13.963C8.909 14.7264 9.1521 15.5052 9.5745 16.3049C10.0849 17.2696 10.8538 18.2629 11.9813 19.2573ZM4.8247 7.65781C5.2036 8.39123 5.69835 9.05871 6.2899 9.63451C6.3977 9.74011 6.5099 9.83911 6.6221 9.93371L6.6661 9.77971C6.8058 9.33531 6.973 8.90961 7.1589 8.49601C7.4559 7.77551 7.8288 7.04841 8.2919 6.34001C8.7077 5.70641 9.1939 5.08601 9.7571 4.51621C9.56899 4.44402 9.37819 4.37907 9.1851 4.32151C8.47981 4.12199 7.74995 4.02275 7.017 4.02671C6.0633 4.02671 4.9919 4.18511 3.794 4.54921C4.0206 5.78671 4.3803 6.81081 4.8247 7.65781Z" fill="white"/></svg>