<svg width="24" height="24" viewBox="0 0 24 24" fill="none" xmlns="http://www.w3.org/2000/svg"><path d="M12.2075 3.79946C13.2868 6.58059 12.2491 7.12021 8.59623 5.66738C6.64528 4.92021 1 4.04852 1 4.50512C1 4.67116 1.8717 5.25229 2.90943 5.87493C3.94717 6.49757 5.4 7.78437 6.06415 8.69757L7.30943 10.3995L4.56981 11.1881C3.07547 11.6032 1.83019 12.1013 1.8717 12.2259C1.8717 12.3504 3.44906 13.7202 5.35849 15.2976C8.51321 17.8296 8.9283 18.0372 9.92453 17.6636C11.0038 17.2485 11.0038 17.29 10.7547 18.4523C10.5472 19.5315 10.6302 19.6561 11.8755 19.9051C12.6226 20.0296 14.2 20.4447 15.3623 20.8183C17.3547 21.441 17.6038 21.441 18.6 20.7768C19.4717 20.1957 19.6792 19.7391 19.6792 18.2447C19.6792 16.2523 19.6377 16.1693 18.4755 16.8749C17.6038 17.4561 15.5283 17.041 15.5283 16.3353C15.5283 16.0447 15.0302 15.2976 14.4075 14.6334C13.5358 13.7202 13.4528 13.4712 13.9925 13.6372C14.4075 13.8032 15.0717 13.9278 15.4038 13.9278C15.9434 13.9278 15.9434 14.0523 15.5283 14.5504C15.0717 15.09 15.2377 15.173 16.5245 15.173C17.3547 15.173 18.0189 15.3391 18.0189 15.5881C18.0189 15.7957 18.7245 16.0032 19.6377 16.0032C20.5509 16.0032 21.4642 16.2523 21.7547 16.6259C22.6264 17.6636 23 17.3315 23 15.5881C23 13.3881 21.5057 10.358 20.7585 10.9806C20.3434 11.3127 20.0528 11.0636 19.5547 9.77682C19.1396 8.69757 18.6 8.07493 17.9358 7.90889C17.3547 7.74286 16.6075 6.99569 16.1509 6.1655C15.4453 4.87871 12.9547 2.72021 12.1245 2.72021C11.9585 2.72021 12 3.21833 12.2075 3.79946Z" fill="white"/></svg>