<svg width="24" height="24" viewBox="0 0 24 24" fill="none" xmlns="http://www.w3.org/2000/svg"><path d="M20.1263 17.3893C20.8873 15.9044 20.8828 14.3307 19.9806 13.414L18.0967 15.3253L14.6804 11.8589L18.0797 8.40969C20.1027 6.3558 19.3305 1.7002 19.3305 1.7002L11.9997 9.13898L4.6684 1.7002C4.6684 1.7002 3.89613 6.3558 5.92031 8.41078L9.31921 11.859L5.9031 15.3254L4.01936 13.414C3.11659 14.3305 3.11169 15.9037 3.87259 17.3883L1.39452 19.9046C1.1416 20.1634 1 20.5108 1 20.8727C1 21.2345 1.1416 21.582 1.39452 21.8408H1.39342C1.91926 22.3743 2.77954 22.3743 3.30099 21.8408L5.61713 19.491C7.31165 20.829 9.36658 21.0643 10.4615 19.9508L8.58364 18.0453L12.0001 14.5787L15.4164 18.0445L13.5374 19.9508C14.6322 21.0643 16.6869 20.8291 18.3821 19.4913L20.698 21.8407C20.8224 21.9675 20.9708 22.0681 21.1346 22.1369C21.2983 22.2056 21.4741 22.241 21.6517 22.241C21.8293 22.241 22.0051 22.2056 22.1689 22.1369C22.3327 22.0681 22.4811 21.9675 22.6055 21.8407C22.8584 21.582 23 21.2345 23 20.8727C23 20.5108 22.8584 20.1633 22.6055 19.9046L20.1263 17.3893Z" fill="white"/></svg>