<svg width="24" height="24" viewBox="0 0 24 24" fill="none" xmlns="http://www.w3.org/2000/svg"><g clip-path="url(#clip0_377_802)"><path d="M13.8022 23.9903C13.0355 22.4678 12.2918 20.0665 11.9816 17.9611L11.9536 17.7157C4.60106 17.98 3.49075 11.527 4.17054 8.80572C5.73976 8.57917 8.41987 8.98938 10.3437 10.6052C10.5176 9.21371 11.2173 7.82553 12.8968 6.74763C18.1483 3.37831 18.6686 2 18.6686 2C18.6686 2 25.031 12.6745 14.7086 17.0503C14.3126 13.098 15.3224 10.9288 16.5467 8.83325C14.7702 10.9519 13.1642 13.1167 13.4887 17.5112C13.6933 19.8619 15.5897 22.9893 15.5897 22.9893C15.5897 22.9893 15.4412 24.1157 13.8022 23.9903Z" fill="white"/></g><defs><clipPath id="clip0_377_802"><rect width="24" height="24" fill="white"/></clipPath></defs></svg>