<svg width="24" height="24" viewBox="0 0 24 24" fill="none" xmlns="http://www.w3.org/2000/svg"><path fill-rule="evenodd" clip-rule="evenodd" d="M14.064 4.87648C14.064 6.02372 13.139 6.95426 11.9973 6.95426C11.7252 6.95354 11.4559 6.89922 11.2048 6.79439C10.9537 6.68957 10.7258 6.53631 10.5339 6.34335C10.3421 6.1504 10.1902 5.92154 10.0868 5.66985C9.98347 5.41816 9.93072 5.14857 9.93159 4.87648C9.93159 3.72925 10.8566 2.7998 11.9995 2.7998C13.1401 2.7998 14.0651 3.72925 14.0651 4.87648H14.064ZM14.4908 6.95536C13.8375 7.56913 12.9619 7.9453 11.9984 7.9453C11.0715 7.94454 10.1798 7.59053 9.50482 6.95536L5.54175 10.176L11.9995 14.6131L18.455 10.1749L14.4919 6.95426L14.4908 6.95536ZM11.9973 16.2927C11.9973 16.2927 21.3577 10.0187 21.9682 9.60291C22.5753 9.19153 23.4751 8.99244 22.6952 10.4829L22.6149 10.6368C21.823 12.1328 20.5999 14.447 19.6341 18.0504H4.36812C3.40017 14.4503 2.17704 12.1339 1.38839 10.6401L1.3059 10.484C0.518341 8.99244 1.42249 9.19153 2.03075 9.60401C2.63792 10.0187 11.9962 16.2927 11.9962 16.2927H11.9973ZM4.38791 18.9733H19.6132V21.1291H4.38681V18.9733H4.38791Z" fill="white"/></svg>