<svg width="24" height="24" viewBox="0 0 24 24" fill="none" xmlns="http://www.w3.org/2000/svg"><path d="M13.2232 7.03183C13.5931 6.87366 13.9292 6.64568 14.2131 6.36029C14.5032 6.06852 14.7331 5.72246 14.8895 5.34185C15.046 4.96125 15.1259 4.55356 15.1248 4.14206C15.1248 2.40543 13.7255 1 11.9998 1C11.169 1.00227 10.3731 1.33441 9.78706 1.9234C9.20105 2.51238 8.87295 3.30999 8.8749 4.14084C8.8749 5.43825 9.65701 6.5526 10.7729 7.03244C9.69514 7.21658 8.67172 7.76324 7.67231 9.29085C6.3011 11.3868 4.59258 12.7653 2.29989 13.6416C0.00598288 14.5166 1.09122 15.7778 2.92317 15.4442C4.75635 15.1106 7.75053 13.8555 8.66711 12.5563V16.5343C8.66711 16.5343 4.63169 19.0824 3.33869 19.9636C2.04692 20.846 1.63017 23.4393 4.71113 22.9358C7.79086 22.4335 11.9998 21.3421 11.9998 21.3421C11.9998 21.3421 16.21 22.4335 19.2897 22.9358C22.3695 23.4393 21.9527 20.846 20.661 19.9636C19.3728 19.0885 15.3325 16.5343 15.3325 16.5343V12.5563C16.2491 13.8555 19.2433 15.1106 21.0765 15.4442C22.9096 15.7778 23.9937 14.5166 21.6998 13.6416C19.4071 12.7653 17.6985 11.3868 16.3273 9.29085C15.3268 7.76153 14.3022 7.21537 13.2232 7.03183Z" fill="white"/></svg>