<svg width="24" height="24" viewBox="0 0 24 24" fill="none" xmlns="http://www.w3.org/2000/svg"><path d="M15.9068 7.90355C15.2981 7.90355 14.7225 8.03449 14.2008 8.26373L12.6687 17.1844L10.9997 19.6674L9.99872 8.3637C9.4232 8.07092 8.77192 7.90531 8.07989 7.90531C5.77253 7.90355 3.89999 9.74441 3.89999 12.0146C3.89999 12.9442 4.2127 13.7991 4.7419 14.4886L4.7493 14.4976C4.82886 14.5995 4.91213 14.6977 4.99909 14.7923L11.9619 23L19.0079 14.7705C19.6778 14.0411 20.0866 13.0751 20.0866 12.0146C20.0886 9.74441 18.216 7.90355 15.9068 7.90355Z" fill="white"/><path d="M11.9933 10.5612C12.3875 9.53693 13.1886 8.7093 14.199 8.26367L14.3859 6.6465L15.4647 6.65926C15.8291 6.66287 16.127 6.36094 16.1307 5.98615L16.1326 5.70601C16.1344 5.33131 15.8384 5.02024 15.4757 5.01659L13.5383 4.99295L13.5551 2.57723C13.5606 1.72044 12.8834 1.00919 12.0507 1.00009C11.2181 0.990989 10.5334 1.68406 10.5297 2.54084L10.5131 4.95657L8.5221 4.93292C8.15761 4.92928 7.85973 5.23123 7.85603 5.60597L7.85419 5.88612C7.85234 6.26086 8.14837 6.57187 8.51102 6.57557L9.88953 6.59194L10.0006 8.36188C10.9109 8.82572 11.627 9.60795 11.9933 10.5612Z" fill="white"/></svg>