<svg width="24" height="24" viewBox="0 0 24 24" fill="none" xmlns="http://www.w3.org/2000/svg"><path d="M7.54463 5.51413C6.53267 6.52609 5.93469 7.67604 5.7047 8.91799C5.47471 10.4819 5.19872 10.8039 4.09477 11.0339C1.84086 11.4479 0.874898 12.8738 1.01289 15.3577L1.15089 17.5196L4.27876 17.6576L7.36063 17.7956V16.3697C7.36063 12.7818 9.70654 10.3899 13.2484 10.3899C15.4103 10.3899 16.6063 11.5399 16.6983 13.6098C16.7903 14.7138 16.5143 15.2657 15.6403 15.8177L14.4903 16.5537L15.3643 15.5877C16.0083 14.8058 16.1003 14.2998 15.7783 13.2878C15.1803 11.4939 12.3744 11.2179 10.7645 12.7358C9.33855 14.1158 9.24656 17.1057 10.6265 18.8536C11.5465 20.0035 11.7305 20.0495 16.0083 20.0495C18.7682 20.0035 20.7461 19.8196 21.2061 19.4516C22.356 18.5776 23 17.0137 23 15.0817C23 13.5638 22.724 13.0118 21.5741 12.0459C20.7921 11.4019 20.0101 10.8499 19.8261 10.8499C19.6421 10.8499 19.4581 10.1139 19.4121 9.19398C19.2742 5.69812 16.7903 3.9502 11.9144 3.9502C9.33855 3.9502 8.97057 4.08819 7.54463 5.51413Z" fill="white"/></svg>