<svg width="24" height="24" viewBox="0 0 24 24" fill="none" xmlns="http://www.w3.org/2000/svg"><path d="M13.2455 17.0296C12.6531 17.0295 12.0683 17.1629 11.5347 17.42C11.001 17.6772 10.5322 18.0513 10.1632 18.5147L13.2455 22.0644L16.3277 18.5136C15.9582 18.0508 15.4893 17.677 14.9558 17.4199C14.4222 17.1629 13.8377 17.0291 13.2455 17.0285V17.0296ZM18.2121 6.6256C18.0218 2.59292 13.7009 1.8999 13.7009 1.8999V5.49038C13.7075 5.49038 13.6954 5.49038 13.7009 5.49038V15.3367C14.1816 15.3763 14.6425 15.4687 15.0803 15.6227L18.2121 6.6245V6.6256ZM8.25686 6.5728L8.27556 6.6256L11.4073 15.6216C11.8535 15.4698 12.3169 15.3741 12.7868 15.3367V5.49148C10.0829 2.84042 7.38234 4.19345 7.38234 4.19345L7.74315 5.10097L8.25686 6.5728ZM7.45934 7.07331C7.45604 7.07331 7.45934 7.07331 7.45934 7.07331C3.19235 5.71258 1 7.97203 1 7.97203L3.57846 10.9278L9.02797 17.2089C9.46667 16.7196 9.98701 16.3102 10.5658 15.9989L7.45934 7.07441V7.07331ZM19.9611 4.53446L19.0283 7.07331L15.924 15.9956C16.5015 16.3091 17.024 16.7161 17.4619 17.2045L22.9114 10.9234C23.6088 7.09091 19.9611 4.53446 19.9611 4.53446Z" fill="white"/></svg>