<svg width="24" height="24" viewBox="0 0 24 24" fill="none" xmlns="http://www.w3.org/2000/svg"><path d="M3.53219 18.4473C5.5782 17.5541 6.2107 17.5838 6.2888 14.8657C6.368 12.1487 5.9181 11.283 7.0698 9.51417C8.2215 7.74427 10.4061 2.26516 12.6743 1.32025C14.9425 0.376452 13.5389 2.67986 13.2078 4.20226C12.8767 5.72356 12.4664 9.80127 13.331 10.9563C14.1956 12.1135 16.3351 14.4554 16.9137 14.9097C17.4923 15.3651 17.1997 16.8864 13.2067 17.5882C9.2137 18.29 7.3173 17.5882 7.3173 17.5882C7.3173 17.5882 11.8042 19.5253 15.7576 18.246C19.711 16.9656 18.6836 15.6511 18.6836 15.6511C18.6836 15.6511 23.8316 14.9493 22.8834 17.5882C21.9341 20.2282 17.4428 22.4458 13.2617 22.7769C9.0861 23.108 1.17929 22.7373 1.01649 20.5934C1.01649 20.5934 0.635885 19.7134 3.53219 18.4484V18.4473Z" fill="white"/></svg>