<svg width="24" height="24" viewBox="0 0 24 24" fill="none" xmlns="http://www.w3.org/2000/svg"><path d="M16.0492 10.9943L17.3821 8.78385L15.1782 1L10.9916 7.94806L8.7811 6.6152L1.00275 8.81905L7.95081 13.0057L6.61794 15.2161L8.81739 23L13.0029 16.0519L15.2134 17.3848L22.9972 15.1854L16.0492 10.9954V10.9943ZM12.0022 13.6556C11.7806 13.6614 11.5601 13.6228 11.3537 13.542C11.1473 13.4612 10.9591 13.3399 10.8003 13.1852C10.6415 13.0306 10.5153 12.8457 10.4291 12.6415C10.3429 12.4372 10.2984 12.2178 10.2983 11.9962C10.2983 11.7745 10.3426 11.5551 10.4286 11.3508C10.5147 11.1465 10.6408 10.9615 10.7995 10.8068C10.9582 10.652 11.1463 10.5306 11.3527 10.4497C11.559 10.3687 11.7795 10.3299 12.0011 10.3356C12.4415 10.3354 12.8639 10.5102 13.1755 10.8216C13.487 11.1329 13.6621 11.5552 13.6622 11.9956C13.6624 12.436 13.4876 12.8584 13.1762 13.17C12.8649 13.4815 12.4426 13.6566 12.0022 13.6567V13.6556Z" fill="white"/></svg>