<svg width="24" height="24" viewBox="0 0 24 24" fill="none" xmlns="http://www.w3.org/2000/svg"><path d="M19.9258 15.4626L16.3585 8.04863C15.8008 6.88483 14.9142 4.81465 13.8417 3.69376C13.7812 3.62446 13.7163 3.55516 13.6547 3.48586C11.6538 1.26827 7.29127 0.295878 5.88548 1.56197C4.51489 2.79836 4.98679 7.06633 6.88097 9.32792L6.87217 9.32352C7.56847 10.2013 8.31647 11.1869 9.23716 11.8315L11.9354 13.751C11.6582 13.8379 11.381 13.9281 11.1049 14.015L8.61456 14.7883L6.13298 15.6023L4.42799 16.1589C3.95279 16.3151 3.63379 16.9157 4.25199 17.2666L5.64348 18.0575C6.37938 18.4766 7.10977 18.9045 7.85337 19.3159L10.0754 20.5566C11.5581 21.3783 13.0552 22.1868 14.5589 22.9733C14.6061 22.997 14.6596 23.0052 14.7118 22.9967C14.7639 22.9882 14.8121 22.9635 14.8493 22.926C14.8707 22.903 14.8873 22.876 14.8981 22.8466C14.909 22.8171 14.914 22.7858 14.9128 22.7544C14.9115 22.7231 14.9041 22.6923 14.891 22.6638C14.8778 22.6352 14.8592 22.6096 14.8361 22.5883C13.5901 21.4336 12.3305 20.2935 11.0576 19.1685L9.59136 17.8804L11.9046 17.5251C12.7648 17.3909 13.6206 17.2611 14.4863 17.1401L17.0845 16.8431L19.4242 16.5659C20.1799 16.479 20.2107 16.0511 19.9247 15.4626H19.9258ZM12.7175 10.9526L8.86976 7.98813C8.34616 7.56463 8.41106 7.52173 7.93147 6.89913C7.13507 5.86514 6.90627 3.93685 7.55967 3.35716C8.21197 2.77856 10.0677 3.27576 11.0268 4.16235C11.5669 4.66395 11.9398 5.22165 12.0828 5.52414L13.8076 8.77572L11.3733 7.70763L12.7175 10.9548V10.9526Z" fill="white"/></svg>