<svg width="24" height="24" viewBox="0 0 24 24" fill="none" xmlns="http://www.w3.org/2000/svg"><path d="M13.7083 22.1707C14.5313 21.5027 13.8182 20.6721 13.8182 20.6721L16.0853 17.5349L17.8897 18.4882C18.3631 18.7383 18.9587 18.5566 19.2077 18.0774C19.46 17.5998 19.2776 17.0072 18.8009 16.7554L17.9718 16.3174C19.3687 15.374 27.4785 9.34283 19.6135 1.27002L13.0404 13.7121L12.0338 13.1804C11.5571 12.9285 10.9648 13.1119 10.7125 13.5894C10.4602 14.0669 10.6426 14.6595 11.1193 14.9114L12.1258 15.4431L9.90971 19.638C9.52427 20.3675 9.9604 21.3614 10.8808 21.8477L11.9535 22.4143C12.8174 22.8792 12.8853 22.8388 13.7083 22.1707Z" fill="white"/><path d="M12.7836 10.498L12.1406 11.6411C10.3931 10.4759 5.7184 8.5828 1 10.3304C4.30137 8.0715 7.32635 7.05656 11.0643 7.50539C9.75678 6.02318 7.79675 4.68784 5.36885 4.43227C9.95611 2.90316 12.796 2.90319 15.631 5.6076L12.796 10.5487C12.792 10.5319 12.7879 10.515 12.7836 10.498Z" fill="white"/></svg>