<svg width="24" height="24" viewBox="0 0 24 24" fill="none" xmlns="http://www.w3.org/2000/svg"><path d="M15.5071 3.66804L20.5047 2.12802C11.0127 -1.37512 4.97391 4.00651 4.88715 8.37272L5.02597 2.94034C-3.40748 12.7559 4.2451 20.3375 8.73944 21.0314L2.9957 21.4038C14.3965 26.5315 20.47 17.9683 20.1749 14.482L21.8061 19.0514C25.2941 6.6804 18.3529 3.38034 15.5071 3.66804ZM14.8997 15.7344C14.3618 17.7313 13.98 19.356 11.2383 18.9837C8.4618 18.6622 10.5441 16.7329 8.60066 15.5482C5.63332 13.7544 3.68981 13.6867 5.73741 9.60815C7.09093 10.3019 5.61597 11.4697 7.42067 12.722C12.8 15.6498 14.2056 7.40815 7.24713 7.22195C9.39891 5.25884 12.106 5.445 13.7545 10.3697C15.0906 9.25272 14.6915 7.05272 12.7306 5.80041C17.7456 6.03734 15.8888 11.402 15.8888 11.402C17.9538 10.7251 17.5373 8.2035 17.5373 8.2035C20.1749 10.2174 17.52 14.2113 14.8997 15.7344Z" fill="white"/></svg>