<svg width="24" height="24" viewBox="0 0 24 24" fill="none" xmlns="http://www.w3.org/2000/svg"><path d="M23 10.5484C22.9998 9.96039 22.8518 9.38188 22.5696 8.86601C22.2875 8.35013 21.8802 7.91343 21.3852 7.59603L21.1597 5.65785C21.1538 5.61026 21.134 5.56545 21.103 5.52891C21.0719 5.49237 21.0308 5.4657 20.9848 5.45215C20.9388 5.43971 20.8902 5.44077 20.8447 5.45521C20.7993 5.46964 20.7589 5.49683 20.7285 5.53355L19.5449 7.03943C19.5295 7.03943 19.5141 7.03503 19.4943 7.03503H19.491C18.7761 7.03503 18.0985 7.25723 17.5298 7.63893C17.4555 7.51124 17.3724 7.38885 17.2812 7.27263C16.954 6.86058 16.5377 6.5281 16.0635 6.30024L15.6081 4.39397C15.5969 4.34734 15.5721 4.30509 15.5368 4.27258C15.5016 4.24007 15.4575 4.21876 15.4101 4.21137C15.3627 4.20405 15.3142 4.21078 15.2706 4.23072C15.227 4.25066 15.1902 4.28294 15.1648 4.32357L14.1616 5.96915C13.4986 6.03959 12.8694 6.29753 12.3477 6.71274C12.2238 6.81352 12.1069 6.92267 11.9979 7.03943C11.889 6.92157 11.7721 6.81131 11.6481 6.70944C11.1263 6.29532 10.4977 6.0375 9.83536 5.96585L8.83438 4.33567C8.80915 4.29503 8.7726 4.26266 8.72921 4.24253C8.68582 4.2224 8.6375 4.21539 8.59018 4.22237C8.5426 4.2297 8.49831 4.25112 8.46302 4.28386C8.42772 4.3166 8.40305 4.35917 8.39218 4.40607L7.93679 6.31234C7.32435 6.6007 6.81328 7.0673 6.47051 7.65102C5.89231 7.25704 5.2089 7.04623 4.50923 7.04603H4.50593C4.48943 7.04603 4.47403 7.04933 4.45533 7.04933L3.27175 5.53905C3.242 5.50146 3.20176 5.47355 3.15613 5.45887C3.1105 5.44418 3.06154 5.44337 3.01545 5.45655C2.96959 5.46871 2.92856 5.49462 2.89788 5.53081C2.86719 5.567 2.84834 5.61172 2.84385 5.65895L2.61836 7.59603C2.29415 7.80413 2.0065 8.06429 1.76697 8.36602C1.44089 8.77279 1.21009 9.24744 1.0915 9.7551C0.97291 10.2628 0.969554 10.7905 1.08168 11.2997C1.25286 12.0807 1.68564 12.7798 2.30836 13.2813C2.93108 13.7828 3.70639 14.0566 4.50593 14.0573C4.75453 14.0573 5.00313 14.0298 5.25612 13.9759H5.26052C5.7695 13.8663 6.24708 13.6429 6.65751 13.3226C7.1701 13.867 8.09959 15.0297 7.86749 16.0769C7.55179 17.5047 6.33851 16.9712 6.33851 18.2934C6.33851 19.6211 7.70689 19.7916 8.50108 19.7916H15.5036C16.2967 19.7916 17.6662 19.6211 17.6662 18.2934C17.6662 16.9668 16.4562 17.5003 16.1372 16.0769C15.904 15.0297 16.8379 13.8659 17.3472 13.3226C17.7476 13.6294 18.2184 13.8593 18.7442 13.9759C19.6515 14.1741 20.6003 14.0045 21.3828 13.5043C22.1653 13.0041 22.7176 12.2141 22.9186 11.3074V11.2997C22.9736 11.05 23 10.797 23 10.5484ZM5.73022 11.5252C5.58368 11.7091 5.39742 11.8575 5.1854 11.9592C4.97338 12.0609 4.74109 12.1134 4.50593 12.1126C4.14734 12.1126 3.80524 11.9883 3.53244 11.7694C3.30208 11.5848 3.12872 11.3388 3.03245 11.0597C2.93619 10.7807 2.92096 10.4801 2.98854 10.1928C3.05611 9.90541 3.20372 9.6431 3.41426 9.43622C3.62481 9.22933 3.88966 9.08634 4.17814 9.02381H4.18254C4.40909 8.97621 4.64335 8.97913 4.86864 9.03236C5.09394 9.0856 5.30473 9.18784 5.48602 9.3318C5.67005 9.47751 5.81856 9.66313 5.92032 9.87466C6.02208 10.0862 6.07443 10.3181 6.07341 10.5528C6.07341 10.9103 5.94911 11.2524 5.73132 11.5252H5.73022ZM16.0635 9.8015C15.9875 10.152 15.7924 10.4653 15.5113 10.6881C15.3509 10.8167 15.1667 10.9124 14.9693 10.9696C14.7718 11.0267 14.565 11.0443 14.3607 11.0212C14.1564 10.998 13.9587 10.9348 13.779 10.8349C13.5993 10.7351 13.4411 10.6007 13.3135 10.4395C13.1289 10.2103 13.0129 9.93355 12.979 9.64121C12.9451 9.34887 12.9946 9.0529 13.1219 8.78755C13.2492 8.52219 13.449 8.29828 13.6982 8.14174C13.9474 7.98519 14.2358 7.90239 14.5301 7.90292C14.6423 7.90292 14.7512 7.91392 14.8601 7.93812H14.8645C15.2341 8.01952 15.5333 8.21862 15.7511 8.49031C15.9689 8.76311 16.0932 9.10521 16.0932 9.4627C16.1009 9.576 16.0899 9.6849 16.0624 9.8015H16.0635ZM10.6868 10.4395C10.469 10.7123 10.1698 10.9103 9.80017 10.9917C9.68849 11.0141 9.57519 11.0273 9.46137 11.0313C9.10388 11.0313 8.76178 10.9059 8.48898 10.6881C8.32801 10.5603 8.1939 10.4019 8.09438 10.2221C7.99485 10.0422 7.93188 9.8445 7.90908 9.64024C7.88628 9.43597 7.90411 9.22921 7.96153 9.03186C8.01896 8.8345 8.11485 8.65046 8.24369 8.49031C8.46737 8.20975 8.78084 8.01476 9.13137 7.93812H9.13468C9.36118 7.88935 9.5957 7.89169 9.82119 7.94497C10.0467 7.99825 10.2574 8.10113 10.4382 8.24612C10.6223 8.39176 10.7708 8.57738 10.8726 8.78891C10.9743 9.00045 11.0266 9.23236 11.0256 9.4671C11.03 9.8246 10.9046 10.1667 10.6868 10.4395ZM21.02 10.8828C20.9442 11.2333 20.749 11.5467 20.4678 11.7694C20.2862 11.9155 20.0741 12.019 19.8472 12.0723C19.6203 12.1256 19.3843 12.1273 19.1567 12.0774C18.8057 12.0018 18.4919 11.8066 18.269 11.5252C18.1235 11.3439 18.0205 11.1323 17.9674 10.906C17.9143 10.6797 17.9125 10.4444 17.9621 10.2173V10.214C18.0435 9.8444 18.2426 9.5452 18.5143 9.3263C18.6951 9.1815 18.9059 9.07883 19.1314 9.02574C19.3568 8.97265 19.5913 8.97049 19.8177 9.01941H19.821C20.1917 9.10081 20.4909 9.2999 20.7087 9.5716C20.9265 9.8444 21.0508 10.1876 21.0508 10.544C21.0552 10.6573 21.0431 10.7706 21.02 10.8828Z" fill="white"/></svg>