<svg width="24" height="24" viewBox="0 0 24 24" fill="none" xmlns="http://www.w3.org/2000/svg"><path d="M18.7001 10.2158C18.5868 9.4183 18.5868 8.0917 18.3668 7.9652C16.9808 9.1807 17.2844 11.2344 17.2844 12.5654C17.2844 14.9821 15.322 14.948 15.322 14.948C12.8723 12.022 15.7224 9.701 15.7224 9.701C15.7257 3.5553 12 1 12 1C12 1 8.27428 3.5564 8.27428 9.701C8.27428 9.701 11.1233 12.022 8.67468 14.948C8.67468 14.948 6.71228 14.9821 6.71228 12.5654C6.71228 11.2377 7.01588 9.1807 5.62988 7.9652C5.40988 8.0917 5.40988 9.4183 5.29658 10.2158C5.18878 11.0144 3.46948 14.0317 3.46948 14.0317C3.46948 14.0317 4.21418 19.7341 10.4457 18.7265V21.5909C10.4457 22.3686 11.142 23 12 23C12.858 23 13.5543 22.3686 13.5543 21.592V18.7265C19.7858 19.7308 20.5305 14.0317 20.5305 14.0317C20.5305 14.0317 18.8079 11.0144 18.699 10.2158H18.7001Z" fill="white"/></svg>