<svg width="24" height="24" viewBox="0 0 24 24" fill="none" xmlns="http://www.w3.org/2000/svg"><path d="M4.90002 18.9C6.00002 20 7.70002 20.1 9.40002 19.2C7.90002 16.4 9.00002 13.8 10.6 12.6C12.7 11 15.2 11.3 17.6 13.4C18.4 12.65 19.225 11.925 20.05 11.2C20.875 10.475 21.7 9.74995 22.5 8.99995C21.95 8.09995 21.425 7.22495 20.9 6.34995C20.375 5.47495 19.85 4.59995 19.3 3.69995C18.0073 4.25399 16.7009 4.79439 15.3909 5.33626C13.1543 6.26144 10.9073 7.19093 8.70002 8.19995C7.00002 8.89995 5.50002 9.89995 4.00002 10.9C2.60002 11.9 1.80002 13.2 2.40002 15C2.40002 15.1 2.30002 15.3 2.20002 15.4C1.30002 16.1 1.10002 17.2 1.70002 18.1C2.30002 19 3.30002 19.2 4.40002 18.7999C4.60002 18.7999 4.80002 18.8 4.90002 18.9Z" fill="white"/><path fill-rule="evenodd" clip-rule="evenodd" d="M9.89995 16.4C9.99995 14.3 11.8 12.6 13.9 12.7C16 12.8 17.6 14.6 17.5 16.6C17.4 18.8 15.7 20.4 13.5 20.3C11.5 20.3 9.79995 18.5 9.89995 16.4ZM12.8 16.5C12.8 17 13.2 17.4 13.7 17.4C14.2 17.4 14.6 17 14.6 16.5C14.6 16 14.2 15.6 13.7 15.6C13.2 15.6 12.8 16 12.8 16.5Z" fill="white"/></svg>