<svg width="24" height="24" viewBox="0 0 24 24" fill="none" xmlns="http://www.w3.org/2000/svg"><path d="M20.4545 6.13473L17.3036 3.56736L15.7865 7.41841L16.9535 7.8852C17.0702 8.352 17.3036 9.16888 17.7704 10.8027C18.0038 11.5028 18.0038 12.0863 18.0038 12.5531C18.0038 12.9032 17.8871 13.2533 17.7704 13.4867C17.537 13.9535 17.1869 14.3036 16.6034 14.6537C16.37 14.8871 16.0199 15.0038 15.5531 15.2372L13.8027 8.70209L14.8529 7.18501L10.3017 1L9.36812 8.58539L11.0019 9.40228L12.7524 15.9374C12.4023 15.9374 12.1689 16.0541 11.8188 15.9374C11.352 15.9374 11.0019 15.8207 10.6518 15.704C10.185 15.5873 9.83492 15.2372 9.48482 14.8871C9.13473 14.537 8.90133 13.9535 8.66793 13.1366C8.20114 11.5028 7.96774 10.686 7.85105 10.2192L8.66793 9.28558L5.51708 6.71822L4 10.5693L5.16698 11.0361C5.28368 11.5029 5.51708 12.3197 5.98387 13.9535C6.21727 14.8871 6.56736 15.8207 7.15085 16.5209C7.50095 17.1044 8.08444 17.5712 8.55123 17.9213C9.36812 18.5048 10.4184 18.7381 11.4687 18.8548C12.1689 18.8548 12.7524 18.8548 13.4526 18.7381L14.2695 22.0057C14.5029 22.7059 15.203 23.1727 16.0199 22.9393C16.7201 22.7059 17.1869 22.0057 16.9535 21.1888L16.2533 17.9213C16.8368 17.6879 17.3036 17.4545 17.7704 17.2211C18.3539 16.871 18.9374 16.4042 19.4042 15.9374C20.1044 15.2372 20.5712 14.3036 20.6879 13.2533C20.8046 12.203 20.8046 11.1528 20.4545 10.1025C19.9877 8.46869 19.7543 7.6518 19.6376 7.18501L20.4545 6.13473Z" fill="white"/></svg>