<svg width="24" height="24" viewBox="0 0 24 24" fill="none" xmlns="http://www.w3.org/2000/svg"><path fill-rule="evenodd" clip-rule="evenodd" d="M21.4286 11.2041V11.3163C21.6531 12.2143 21.6531 13.1122 21.5408 14.1224V14.2347C21.5408 14.3469 21.5128 14.4592 21.4847 14.5714C21.4566 14.6837 21.4286 14.7959 21.4286 14.9082C21.4286 14.9643 21.4005 14.9923 21.3724 15.0204C21.3444 15.0485 21.3163 15.0765 21.3163 15.1327C20.9796 16.3673 20.0816 17.8265 17.7245 19.6224L17.3878 19.9592C17.3878 19.8469 17.2755 19.8469 17.2755 19.8469C17.4439 19.398 17.5842 18.9209 17.7245 18.4439C17.8648 17.9668 18.0051 17.4898 18.1735 17.0408C18.1173 17.0408 18.0893 17.0128 18.0612 16.9847C18.0332 16.9566 18.0051 16.9286 17.949 16.9286C17.1633 18.3878 16.2653 19.7347 14.6939 20.5204C14.3571 20.5204 14.0204 20.6327 13.6837 20.7449L12.3367 21.0816H12H11.8878H11.7755H11.6633L10.3163 20.7449C9.97959 20.6327 9.64286 20.5204 9.30612 20.5204C7.84694 19.7347 6.94898 18.3878 6.05102 16.9286C5.9949 16.9286 5.96684 16.9566 5.93878 16.9847C5.91071 17.0128 5.88265 17.0408 5.82653 17.0408C5.9949 17.4898 6.1352 17.9668 6.27551 18.4439C6.41582 18.9209 6.55612 19.398 6.72449 19.8469C6.72449 19.9592 6.61224 19.9592 6.61224 19.9592L6.27551 19.6224C3.91837 17.7143 3.02041 16.3673 2.68367 15.1327C2.61913 15.0681 2.5917 15.0407 2.58004 15.0077C2.57143 14.9833 2.57143 14.9559 2.57143 14.9082C2.45918 14.7959 2.45918 14.5714 2.45918 14.4592V14.1224C2.34694 13.1122 2.34694 12.2143 2.57143 11.3163V11.2041C2.23469 11.5408 1.67347 11.9898 1 12.2143C1.44898 9.18367 3.35714 6.26531 4.2551 5.14286C4.47959 4.91837 4.59184 4.69388 4.70408 4.46939C4.92857 4.2449 5.04082 4.02041 4.92857 3.68367C4.92857 3.52739 4.90439 3.37112 4.87848 3.20362C4.84856 3.0102 4.81633 2.80183 4.81633 2.56122C4.81633 2.44898 4.84439 2.3648 4.87245 2.28061C4.90051 2.19643 4.92857 2.11224 4.92857 2C5.04082 2.11224 5.15306 2.11225 5.26531 2.11225C5.82653 2.33674 6.83673 3.0102 7.17347 3.45918C7.24284 3.45918 7.26934 3.50206 7.30596 3.56131C7.32859 3.59793 7.35508 3.6408 7.39796 3.68367C7.79082 4.18878 8.15561 4.69388 8.52041 5.19898C8.8852 5.70408 9.25 6.20918 9.64286 6.71429C9.57037 6.85925 9.45109 6.95741 9.31522 7.06921C9.24068 7.13055 9.16116 7.19598 9.08163 7.27551C8.96939 7.33163 8.8852 7.38775 8.80102 7.44388C8.71684 7.5 8.63265 7.55612 8.52041 7.61224L7.84694 6.93878C7.76545 6.86893 7.69 6.8027 7.61996 6.74123C7.01466 6.20995 6.81345 6.03334 6.61224 6.93878C6.5 7.27551 6.5 7.72449 6.61224 8.06122C6.66837 8.22959 6.69643 8.42602 6.72449 8.62245C6.75255 8.81888 6.78061 9.01531 6.83673 9.18367C6.61224 9.2398 6.38775 9.32398 6.16326 9.40816C5.93878 9.49235 5.71429 9.57653 5.4898 9.63265C5.15306 9.7449 4.92857 10.0816 4.92857 10.4184C4.92857 10.7551 5.15306 11.0918 5.60204 11.2041C6.5 11.4286 7.28571 11.7653 7.95918 12.2143C8.01365 12.3232 8.06812 12.4388 8.1242 12.5577C8.29922 12.929 8.48987 13.3334 8.7449 13.6735C9.16362 14.4411 9.7125 15.122 10.2567 15.797C10.5877 16.2077 10.9171 16.6162 11.2143 17.0408C11.2704 17.0969 11.2985 17.1811 11.3265 17.2653C11.3546 17.3495 11.3827 17.4337 11.4388 17.4898C11.3593 17.4898 11.2797 17.5039 11.2052 17.5171C11.0693 17.5411 10.95 17.5623 10.8776 17.4898C10.6531 17.4337 10.4566 17.3495 10.2602 17.2653C10.0638 17.1811 9.86735 17.0969 9.64286 17.0408C9.69898 17.0969 9.72704 17.1531 9.7551 17.2092C9.78316 17.2653 9.81122 17.3214 9.86735 17.3776C10.4286 18.051 10.9898 18.7245 11.6633 19.398C11.6633 19.5102 11.7755 19.5102 11.7755 19.5102L12 19.7347L12.1122 19.8469L12.2245 19.7347L12.449 19.5102L12.5612 19.398C12.8418 19.0612 13.1505 18.7245 13.4592 18.3878C13.7679 18.051 14.0765 17.7143 14.3571 17.3776C14.4133 17.3214 14.4413 17.2653 14.4694 17.2092C14.4974 17.1531 14.5255 17.0969 14.5816 17.0408C14.2998 17.1113 14.018 17.226 13.7639 17.3294C13.6132 17.3907 13.4723 17.448 13.3469 17.4898H12.7857C12.7857 17.2653 12.898 17.1531 13.0102 17.2653C13.3245 16.8163 13.6747 16.3673 14.0249 15.9184C14.5502 15.2449 15.0755 14.5714 15.4796 13.898C15.5918 13.6173 15.7321 13.3367 15.8724 13.0561C16.0128 12.7755 16.1531 12.4949 16.2653 12.2143C16.9388 11.8776 17.6122 11.5408 18.398 11.3163C18.7347 11.2041 18.9592 10.8673 18.9592 10.5306C18.9592 10.1939 18.7347 9.85714 18.398 9.7449C18.1161 9.67444 17.8343 9.55975 17.5802 9.45636C17.4295 9.39505 17.2886 9.3377 17.1633 9.29592C17.2194 9.07143 17.2474 8.875 17.2755 8.67857C17.3036 8.48214 17.3316 8.28571 17.3878 8.06122C17.3878 7.95286 17.3994 7.83286 17.4114 7.70872C17.4368 7.44713 17.4639 7.16714 17.3878 6.93878C17.1633 5.92857 16.8265 6.26531 16.1531 6.93878C15.9286 7.16327 15.7041 7.38775 15.5918 7.61224C15.4796 7.55612 15.3954 7.5 15.3112 7.44388C15.227 7.38775 15.1429 7.33163 15.0306 7.27551C14.8856 7.20303 14.7875 7.08374 14.6757 6.94787C14.6144 6.87334 14.5489 6.79381 14.4694 6.71429C15.2551 5.70408 16.0408 4.69388 16.7143 3.68367C16.7143 3.62755 16.7423 3.59949 16.7704 3.57143C16.7985 3.54337 16.8265 3.51531 16.8265 3.45918C17.2755 3.0102 18.2857 2.22449 18.8469 2.11225C18.9115 2.0477 18.9389 2.02027 18.9719 2.00861C18.9963 2 19.0237 2 19.0714 2C19.0714 2.11224 19.0995 2.19643 19.1276 2.28061C19.1556 2.3648 19.1837 2.44898 19.1837 2.56122C19.1837 2.89796 19.1837 3.34694 19.0714 3.68367C19.0714 4.02041 19.0714 4.2449 19.2959 4.46939C19.352 4.58163 19.4362 4.69388 19.5204 4.80613C19.6046 4.91837 19.6888 5.03061 19.7449 5.14286C20.6429 6.26531 22.551 9.18367 23 12.2143C22.4727 12.0385 22.083 11.7251 21.7231 11.4357C21.6234 11.3555 21.526 11.2771 21.4286 11.2041ZM12 4.69384C12.449 6.15302 13.1225 7.27547 14.1327 8.28567C15.0306 9.18363 16.2653 9.96935 17.7245 10.4183C16.2653 10.8673 15.1429 11.5408 14.1327 12.551C13.2347 13.4489 12.449 14.6836 12 16.1428C11.551 14.6836 10.8776 13.5612 9.86736 12.551C8.9694 11.5408 7.73471 10.8673 6.27552 10.4183C7.73471 9.96935 8.85716 9.29588 9.86736 8.28567C10.7653 7.38771 11.551 6.15302 12 4.69384Z" fill="white"/></svg>