<svg width="24" height="24" viewBox="0 0 24 24" fill="none" xmlns="http://www.w3.org/2000/svg"><path d="M21.6176 12.5637C21.6176 11.9855 21.6176 11.4074 21.502 10.8292C21.1551 9.21025 20.3456 7.8226 19.3049 6.66623C18.8423 6.08804 18.2641 5.27858 17.4547 4.93167C17.339 4.93167 17.2234 4.93167 17.2234 5.04731C17.2234 5.04731 17.1078 5.16294 17.2234 5.16294C17.339 5.74113 17.339 6.43495 17.339 7.01314C16.7608 6.66623 16.1827 6.31932 15.7201 5.97241C14.795 5.27858 13.7543 4.46912 13.523 3.31275C13.4074 2.96583 13.2917 2.50329 13.1761 2.15637C13.0604 1.80946 12.9448 1.34691 12.9448 1C12.3666 1.34691 11.9041 1.80946 11.3259 2.27201C11.0946 2.73456 10.8633 3.31275 10.6321 3.89093V4.00657C10.2852 4.81603 9.93824 5.62549 9.59133 6.43495C9.24441 7.24442 8.78187 7.93824 8.20368 8.40079C8.08804 8.51643 7.9724 8.51643 7.85677 8.63206C7.85677 8.51643 7.74113 8.51643 7.74113 8.40079C7.74113 8.05388 7.62549 7.70697 7.62549 7.47569C7.50985 7.01314 7.50986 6.55059 7.50986 6.20368C7.62549 5.9724 7.62549 5.74113 7.74113 5.50986H7.62549C7.62549 5.50986 7.50986 5.50986 7.50986 5.62549C7.27858 5.62549 6.93167 5.74113 6.81603 5.85677C6.58476 5.9724 6.35348 6.20368 6.12221 6.31932C6.00657 6.43495 5.89093 6.55059 5.65966 6.66623C5.42838 7.01314 5.19711 7.24442 5.08147 7.70696C4.73456 8.05388 4.61892 8.51643 4.50329 8.97898C4.04074 11.2917 4.50328 13.4888 5.7753 15.5703C6.12221 16.1485 6.58476 16.7267 6.93167 17.3049C7.16294 17.5361 7.50986 17.7674 7.74113 17.9987C8.66623 18.9238 9.8226 19.502 11.0946 19.8489C11.7884 20.0802 12.5979 20.1958 13.4074 20.3114C12.8292 20.4271 12.3666 20.4271 11.7884 20.4271C11.0946 20.4271 10.4008 20.3114 9.70696 20.1958C9.36005 20.0802 8.8975 19.9645 8.55059 19.7332H8.43495C7.74113 19.502 6.93167 19.1551 6.35348 18.6925C5.08147 17.6518 4.27201 16.1485 3.80946 14.5296C3.69382 14.067 3.57819 13.6045 3.46255 13.1419C3.34691 13.1419 3.34691 13.0263 3.23127 12.795L3.11564 12.9106C3 13.6045 3 14.4139 3 15.1078C3 16.1485 3.23127 17.1892 3.57819 18.1143C3.69382 18.8081 4.04074 19.502 4.50329 20.0802C4.50329 20.0802 4.50328 20.0802 4.61892 20.1958C5.42838 21.0053 6.35348 21.6991 7.50986 22.046C8.08804 22.2773 8.78187 22.5085 9.36005 22.6242C9.8226 22.7398 10.2852 22.9711 10.8633 22.9711C11.7884 22.9711 12.7135 23.0867 13.6386 22.8555C14.795 22.6242 16.067 22.3929 17.1078 21.8147C17.6859 21.4678 18.2641 21.2365 18.8423 20.774C19.6518 20.0802 20.4612 19.3863 21.0394 18.4612C21.502 17.6518 21.8489 16.8423 21.9645 15.8016C21.8489 14.7608 21.8489 13.6045 21.6176 12.5637ZM16.9921 15.4547C16.6452 15.6859 16.2983 15.9172 15.9514 16.1485C15.2576 16.4954 14.5637 16.8423 13.8699 17.0736C12.7135 17.5361 11.5572 17.3049 10.4008 16.8423C9.93824 16.7267 9.59133 16.4954 9.24442 16.2641C9.24442 16.2641 9.24442 16.2641 9.12878 16.2641C8.43495 15.8016 7.74113 15.339 7.27858 14.5296C7.27858 14.5296 7.16294 14.4139 7.16294 14.2983C7.16294 14.2983 7.16294 14.1827 7.04731 14.1827C7.16294 14.067 7.27858 13.9514 7.39422 13.7201C7.62549 13.3732 7.85677 13.1419 8.08804 12.795C8.55059 12.2168 9.12878 11.7543 9.70696 11.2917C10.2852 10.9448 10.979 10.5979 11.7884 10.4823C12.3666 10.3666 12.9448 10.4823 13.523 10.5979C14.2168 10.8292 14.795 11.1761 15.3732 11.6386C15.8357 11.9855 16.1827 12.3325 16.5296 12.795C16.6452 12.9106 16.7608 13.0263 16.8765 13.1419C16.7608 12.5637 16.6452 11.8699 16.4139 11.2917C16.2983 10.8292 16.067 10.4823 15.7201 10.0197C15.6045 9.90407 15.4888 9.78844 15.3732 9.6728C15.1419 9.32589 14.795 9.09461 14.4481 8.86334C13.9855 8.51643 13.6386 8.28515 13.1761 7.93824H13.2917C14.5637 8.28515 15.7201 8.86334 16.7608 9.6728C16.9921 9.90407 17.2234 10.251 17.4547 10.5979C17.5703 10.8292 17.6859 11.0604 17.8016 11.1761C18.2641 11.9855 18.4954 12.9106 18.611 13.9514C17.9172 14.5296 17.4547 14.9921 16.9921 15.4547Z" fill="white"/><path d="M9.82267 15.686C10.6321 16.1486 11.5572 16.4955 12.3667 16.4955C13.0605 16.4955 13.7543 16.2642 14.4482 15.9173C14.5638 15.686 14.5638 15.5704 14.6794 15.3391C14.7951 14.2984 14.4482 13.4889 13.6387 12.9107C12.7136 12.3325 11.7885 12.3325 10.8634 12.7951C10.0539 13.2576 9.47575 14.414 9.70703 15.3391C9.70703 15.4547 9.70703 15.5704 9.82267 15.686Z" fill="white"/></svg>