<svg width="24" height="24" viewBox="0 0 24 24" fill="none" xmlns="http://www.w3.org/2000/svg"><path d="M16.4766 6.38065C15.2168 4.09101 13.4989 2.37378 11.6665 1C11.501 1.27574 11.3421 1.55148 11.1851 1.82401C10.6902 2.68301 10.2136 3.51023 9.60496 4.20549C9.14685 4.89239 8.58693 5.47752 8.02702 6.06265C7.74706 6.35521 7.4671 6.64778 7.19987 6.95306C7.06982 7.08306 6.97669 7.28686 6.87855 7.50162C6.80385 7.66511 6.72624 7.83495 6.62723 7.9834C7.65798 7.52547 8.45968 7.18202 9.3759 6.83858C11.422 6.15682 13.4681 6.2645 15.6262 6.37809L15.6749 6.38065H16.4766Z" fill="white"/><path d="M19.6834 9.92966H17.9655C14.7587 9.7007 11.6665 10.2731 9.14684 12.3338C7.65798 13.4786 6.16911 14.7379 5.59647 16.6841C5.36742 17.371 5.25289 17.9434 5.13836 18.7448C5.04749 18.6085 4.93859 18.4903 4.83312 18.3758C4.67274 18.2016 4.52028 18.0361 4.45119 17.8289C3.76402 16.3407 3.87855 14.8524 4.68025 13.3641C6.39817 10.0441 9.03231 7.98347 12.8117 7.75451C13.8425 7.64003 14.9878 7.75451 16.0185 7.86899C17.3929 8.09795 18.9963 9.01381 19.6834 9.92966Z" fill="white"/><path d="M19.798 16.684C18.4236 14.9668 16.5912 15.0813 14.7587 15.7682C13.8635 16.0366 13.0383 16.5149 12.2283 16.9844C12.0021 17.1155 11.777 17.246 11.5519 17.3709C11.2084 17.5999 10.8648 17.9433 10.6357 18.2868C9.71949 19.2026 10.6357 20.4619 11.5519 20.5764C12.6972 20.6909 13.728 20.1185 14.5297 19.4316C14.6442 19.3171 14.7587 19.0882 14.7587 18.8592C14.7587 18.8592 14.4151 18.7447 14.3006 18.6302C14.1329 18.6302 13.9652 18.5689 13.7526 18.4911C13.6748 18.4626 13.591 18.4319 13.4989 18.4013C13.728 18.1723 13.957 17.9433 14.3006 17.8289C14.9878 17.5999 15.7895 17.3709 16.4766 17.3709C17.851 17.2565 18.5381 18.5158 17.9655 19.6606C17.2783 20.9199 16.1331 21.8357 14.7587 22.2937C14.1299 22.5294 13.4472 22.6572 12.7476 22.7882C12.4278 22.8481 12.1044 22.9087 11.781 22.9806C9.60496 23.2095 8.00157 21.3778 7.65798 19.5461C7.3144 17.8289 8.00157 16.5696 9.03232 15.3103C10.1776 14.051 11.4374 12.7917 13.2699 12.4482C15.3314 11.9903 17.2783 12.1048 18.9963 13.593C19.9125 14.3944 20.2561 15.5392 19.798 16.684Z" fill="white"/></svg>