<svg width="24" height="24" viewBox="0 0 24 24" fill="none" xmlns="http://www.w3.org/2000/svg"><path d="M17.0769 21.6982C15.9053 21.4379 14.9941 21.568 14.6036 20.9172C14.4734 20.6568 13.8225 18.9645 14.0828 17.9231C14.3432 17.0118 14.9941 15.3195 15.3846 14.6686C14.9941 14.5385 14.6036 14.4083 14.0828 14.2781C13.432 14.0178 13.0414 13.7574 13.0414 13.3669C13.0414 13.2367 13.0414 13.2367 13.0414 13.1065C13.0414 12.3254 14.0828 12.0651 15.2544 11.5444C15.3846 11.5444 15.5148 11.4142 15.645 11.4142C15.7752 11.4142 15.9053 11.284 16.0355 11.284C17.7278 10.2426 17.4675 9.46154 17.4675 8.15976C17.4675 5.94675 17.3373 5.68639 17.3373 4.64497C17.3373 2.56213 18.6391 2.56213 19.9408 1.52071C19.6805 1.13018 18.7692 1 17.858 1H17.7278H12.6509H11.0888H6.27219H6.14201C5.23077 1 4.44971 1.13018 4.05917 1.52071C5.36095 2.69231 6.66272 2.69231 6.66272 4.64497C6.66272 5.55621 6.53255 5.94675 6.53255 8.15976C6.53255 9.46154 6.14201 10.2426 7.9645 11.284C8.09468 11.284 8.22485 11.4142 8.35503 11.4142C8.48521 11.4142 8.61539 11.5444 8.74556 11.5444C9.91716 12.0651 10.9586 12.3254 10.9586 13.1065C10.9586 13.2367 10.9586 13.2367 10.9586 13.3669C10.8284 13.7574 10.568 14.0178 9.91716 14.2781C9.52663 14.4083 9.00592 14.6686 8.61539 14.6686C8.87574 15.3195 9.65681 17.0118 9.91716 17.9231C10.1775 18.9645 9.52663 20.6568 9.39645 20.9172C9.1361 21.568 8.09468 21.4379 6.92308 21.6982C5.75148 21.9586 5.75148 23 5.75148 23H6.14201H7.9645H11.0888H12.6509H15.7752H17.5976H18.2485C18.2485 23 18.2485 21.9586 17.0769 21.6982Z" fill="white"/></svg>