<svg width="24" height="24" viewBox="0 0 24 24" fill="none" xmlns="http://www.w3.org/2000/svg"><path d="M9.15695 8.65431C9.15695 8.54496 9.15695 8.43562 9.15695 8.21692L6.42327 3.62434L5.00175 1L4.56436 3.51499L3.36154 9.41974C3.36154 9.52909 3.36154 9.74778 3.47089 9.85713L6.09522 12.3721L8.17282 22.3227C8.28217 22.7601 8.71956 23.0882 9.2663 22.9788C9.2663 22.9788 10.1411 22.5414 10.0317 22.104L7.84478 11.8254L9.15695 8.65431Z" fill="white"/><path d="M7.40734 11.716C7.40734 11.716 12.984 12.1534 13.0934 10.8412C13.2027 10.0758 11.3438 10.4039 11.3438 9.41973C11.3438 8.98234 14.843 7.99821 19.7636 7.88887C18.9982 9.31038 17.0299 10.9506 17.0299 10.9506C17.0299 10.9506 19.3262 12.2628 20.6384 13.903C19.1075 14.3404 14.843 13.4656 14.5149 14.231C14.7336 15.1058 15.171 16.746 15.171 16.746C15.171 16.746 12.1093 18.2769 8.50081 17.5114C8.06342 15.5432 8.28212 13.2469 8.28212 13.2469L7.40734 11.716Z" fill="white"/></svg>