<svg width="24" height="24" viewBox="0 0 24 24" fill="none" xmlns="http://www.w3.org/2000/svg"><path d="M18.38 11.67L23 6.71995L16.07 6.16995L17.28 7.26995L16.18 7.70995C15.74 7.15995 15.3 6.71995 14.97 6.27995C14.53 5.83995 14.09 5.39995 13.54 5.06995C13.1 4.73995 12.55 4.40995 12 4.18995C10.9 3.74995 9.8 3.41995 8.7 3.30995C8.15 3.30995 7.6 3.19995 7.05 3.19995C6.5 3.30995 5.95 3.30995 5.4 3.41995C6.39 3.74995 7.38 4.18995 8.37 4.62995C8.92 4.84995 9.47 5.17995 10.02 5.39995L1 13.76L13.1 17.17C12.44 18.38 11.56 19.59 10.46 20.7999C12.55 20.03 14.42 18.6 15.74 16.62C16.07 16.18 16.29 15.52 16.51 14.97C16.62 14.64 16.73 14.42 16.84 14.09C16.84 13.98 16.95 13.76 16.95 13.65L17.06 13.21L17.17 12.77C17.17 12.66 17.17 12.44 17.17 12.33C17.17 12 17.17 11.67 17.17 11.45L17.06 10.57C17.06 10.57 17.06 10.57 17.06 10.46L18.27 10.13L18.38 11.67ZM11.01 6.05995C11.78 6.60995 12.55 7.26995 13.1 7.92995C13.21 8.14995 13.43 8.36995 13.54 8.58995L4.96 11.78L11.01 6.05995ZM14.42 11.56V12.22C14.42 12.33 14.42 12.44 14.42 12.55C14.42 12.66 14.42 12.77 14.42 12.88V13.21C14.42 13.32 14.42 13.43 14.42 13.54C14.42 13.76 14.31 13.98 14.31 14.2C14.2 14.64 14.09 15.08 13.87 15.52C13.76 15.74 13.76 15.85 13.65 16.07L5.4 13.65L14.42 11.01V11.56Z" fill="white"/></svg>