<svg width="24" height="24" viewBox="0 0 24 24" fill="none" xmlns="http://www.w3.org/2000/svg"><path d="M22.9126 10.3923C22.9126 10.1591 22.796 10.0426 22.796 9.80947C22.796 9.57636 22.6795 9.4598 22.5629 9.22669C22.5629 9.11013 22.4464 8.99358 22.4464 8.99358C22.4464 8.87702 22.3298 8.76047 22.3298 8.76047C22.3298 8.64391 22.2132 8.52735 22.0967 8.4108L21.9801 8.29424C21.9801 8.29424 21.9801 8.17768 21.8636 8.17768C21.3974 7.5949 20.9311 7.01212 20.1152 6.5459C19.4159 6.07967 18.4834 5.84656 17.551 5.73C16.6185 5.61345 15.8026 5.84656 15.1033 5.96312C14.8702 6.07967 14.6371 6.07967 14.404 6.19623C13.5881 6.77901 12.7722 7.36179 11.8397 7.82802C11.1404 8.17768 9.97483 8.76047 9.04238 8.52735C8.92583 8.52735 8.92583 8.52735 8.80927 8.52735C8.34305 8.52735 7.87682 8.4108 7.64371 8.17768C7.64371 8.17768 7.64371 8.06113 7.52715 8.06113C7.17748 7.82802 6.94437 7.47835 7.17748 6.89557C7.29404 6.42934 7.64371 6.07967 7.99338 5.73C8.4596 5.26378 9.04238 4.91411 9.62516 4.56444C11.1404 3.8651 12.8887 3.51543 14.5205 3.74855C15.3364 3.8651 16.2689 4.09821 17.0848 4.56444C17.9007 5.03067 18.7166 5.49689 19.2993 6.19623C18.8331 5.38033 18.2503 4.56444 17.4344 3.8651C16.7351 3.16576 15.8026 2.58298 14.8702 2.23331C13.9377 1.76709 12.8887 1.53398 11.8397 1.41742C10.7907 1.30086 9.62517 1.41742 8.57616 1.53398C7.76027 1.76709 6.71126 2.11676 5.66225 2.69954C5.07947 3.04921 4.61325 3.39888 4.14702 3.8651C3.91391 4.09821 3.79735 4.21477 3.68079 4.33133C3.56424 4.44788 3.44768 4.681 3.33113 4.79755C3.33113 4.91411 3.21457 5.03067 3.21457 5.03067C3.21457 5.14722 3.09801 5.26378 3.09801 5.26378C3.09801 5.38033 2.98146 5.49689 2.98146 5.61345L2.8649 5.84656V5.96312C2.63179 6.5459 2.51523 7.12868 2.51523 7.82802C2.16556 8.4108 1.81589 8.99358 1.58278 9.69292C1.23311 10.6254 1 11.6744 1 12.7234C1 13.7724 1.11656 14.8214 1.46623 15.8704C1.81589 16.9194 2.28212 17.8519 2.8649 18.7843C3.44768 19.7168 4.26358 20.5327 5.19603 21.3485C5.66225 21.6982 6.24503 22.0479 6.94437 22.281C7.06093 22.3976 7.29404 22.3976 7.4106 22.5141C7.64371 22.5141 7.76027 22.6307 7.99338 22.6307C8.10993 22.6307 8.22649 22.6307 8.34305 22.6307C8.4596 22.6307 8.57616 22.6307 8.69271 22.6307C8.80927 22.6307 8.92583 22.6307 9.04238 22.6307H9.15894H9.2755C9.97483 22.6307 10.7907 22.3976 11.6066 22.0479C11.8397 21.9313 12.0728 21.8148 12.306 21.5817C13.1219 21.6982 14.0543 21.5817 14.8702 21.4651C15.8026 21.232 16.8517 20.8823 17.7841 20.4161C18.7166 19.8333 19.5324 19.134 20.2318 18.4346C20.9311 17.6187 21.5139 16.6863 21.9801 15.7538C22.4464 14.7048 22.796 13.6558 22.9126 12.3737C23.0291 11.7909 23.0291 11.0916 22.9126 10.3923ZM9.62516 17.6187C9.39205 18.2015 8.80927 18.3181 8.22649 18.2015H8.10993C7.87682 18.2015 7.52715 18.085 7.17748 17.9684C6.47815 17.7353 5.77881 17.2691 5.19603 16.8029C3.91391 15.7538 2.98146 14.2386 2.51523 12.4903C2.28212 11.6744 2.16556 10.7419 2.28212 9.80947C2.28212 9.34325 2.39868 8.99358 2.51523 8.52735C2.63179 9.34325 2.8649 10.1591 3.33113 10.8585C3.68079 11.4413 4.03046 11.7909 4.49669 12.2572C4.49669 12.2572 4.49669 12.2572 4.61324 12.2572C5.42914 12.9565 6.36159 13.4227 7.29404 13.8889C8.10993 14.2386 8.80927 14.5883 9.2755 15.4042C9.62516 15.987 9.85828 16.9194 9.62516 17.6187ZM19.0662 14.5883C18.9497 14.7048 18.9497 14.7048 19.0662 14.5883C18.8331 16.2201 18.0172 17.8519 16.8517 19.134C16.2689 19.7168 15.5695 20.2995 14.6371 20.7658C13.9377 21.1154 13.2384 21.3485 12.4225 21.5817C12.8887 21.232 13.2384 20.7658 13.5881 20.4161C14.0543 19.7168 14.404 18.9009 14.6371 18.2015C14.7536 17.8519 14.7536 17.5022 14.8702 17.036C14.8702 16.9194 14.8702 16.8028 14.8702 16.6863C14.8702 15.4042 14.9868 14.0055 15.6861 12.8399C16.1523 12.024 17.551 10.3923 18.4834 10.975C19.649 11.6744 19.2993 13.6558 19.0662 14.5883Z" fill="white"/></svg>