<svg width="24" height="24" viewBox="0 0 24 24" fill="none" xmlns="http://www.w3.org/2000/svg"><path d="M12.3082 23C11.4937 21.6703 10.6792 20.4615 9.98113 19.1319C8.93396 17.1978 7.88679 15.2637 6.83962 13.2088C6.02516 11.6374 4.97799 10.5495 3.34906 9.94506C3.69811 9.94506 4.04717 9.94506 4.39623 9.94506C4.74528 9.94506 5.09434 9.94506 5.4434 9.94506C6.02516 9.94506 6.60692 9.94506 7.18868 9.94506C7.65409 9.94506 7.88679 10.0659 8.1195 10.4286C8.70126 11.3956 9.28302 12.2418 9.86478 13.2088C10.5629 14.5385 11.261 15.8681 12.0755 17.3187C12.0755 17.4396 12.1918 17.4396 12.1918 17.5604C12.3082 17.4396 12.3082 17.3187 12.4245 17.1978C13.3553 15.5055 14.2862 13.6923 15.217 12C15.3333 11.7582 15.4497 11.6374 15.566 11.3956C16.1478 10.4286 16.8459 9.94506 17.8931 10.0659C18.9403 10.1868 19.9874 10.0659 21.1509 10.0659C21.0346 10.1868 21.0346 10.1868 20.9182 10.1868C19.4057 10.7912 18.3585 11.8791 17.6604 13.3297C16.3805 16.1099 14.8679 18.7692 13.239 21.3077C13.1226 21.9121 12.7736 22.3956 12.3082 23Z" fill="white"/><path d="M21.5 8.61539C21.0346 8.61539 20.5692 8.61539 19.9874 8.61539C19.2893 8.61539 18.5912 8.61539 17.8931 8.61539C17.3113 8.61539 16.7296 8.49451 16.1478 8.01099C14.9843 7.04396 13.9371 5.95604 12.7736 4.86813C12.6572 4.74725 12.5409 4.62637 12.4245 4.50549C11.6101 5.23077 10.912 6.07692 10.0975 6.8022L9.98113 6.92308C8.1195 8.49451 8.00314 8.61539 5.55975 8.61539C4.74528 8.61539 3.81447 8.61539 3 8.61539C6.37421 6.43956 9.51572 4.02198 12.4245 1C14.9843 4.02198 18.0094 6.56044 21.5 8.61539Z" fill="white"/><path d="M12.3082 12.3626C11.0283 12.3626 9.98113 11.2747 9.98113 9.94506C9.98113 8.61539 11.0283 7.40659 12.4245 7.52747C13.7044 7.52747 14.7516 8.61539 14.7516 9.94506C14.7516 11.2747 13.7044 12.3626 12.3082 12.3626Z" fill="white"/></svg>