<svg width="24" height="24" viewBox="0 0 24 24" fill="none" xmlns="http://www.w3.org/2000/svg"><path d="M17.7848 18.6006C20.9849 15.2774 21.6003 11.0926 22.0926 9.12333C20.3695 9.00025 19.0156 8.63101 17.7848 8.26177L19.1387 6.7848L20.9849 6.41556L21.8464 1L17.1694 3.83086L17.5386 5.55399L15.6924 7.64636C13.1077 6.53864 12 5.30783 12 5.30783C12 5.30783 10.7692 6.53864 8.30755 7.64636L6.46134 5.55399L6.83058 3.83086L2.15351 1L3.13816 6.41556L4.86129 6.7848L6.21518 8.38485C4.98437 8.75409 3.5074 9.00025 1.90735 9.24642C2.52275 11.2157 3.01508 15.4005 6.21518 18.7236L3.87664 21.4314C3.5074 21.9237 3.63048 22.5391 4.1228 22.7853C4.61513 23.1546 5.23053 23.0315 5.47669 22.5391L7.56907 20.0775C8.67679 20.9391 10.1538 21.6776 11.7538 22.1699C13.4769 21.6776 14.8308 20.9391 15.9386 20.0775L18.0309 22.5391C18.4002 23.0315 19.0156 23.1546 19.3848 22.7853C19.8771 22.4161 20.0002 21.8007 19.631 21.4314L17.7848 18.6006ZM12 19.216V8.26177L19.5079 11.4619C19.5079 11.4619 14.3385 12.0773 17.7848 14.662C14.9539 19.339 12 19.216 12 19.216Z" fill="white"/></svg>