<svg width="24" height="24" viewBox="0 0 24 24" fill="none" xmlns="http://www.w3.org/2000/svg"><path d="M2 6.35183C3.37143 5.54353 4.74286 6.23636 6.22857 6.00541C6.22857 5.31259 6.22857 4.73523 6.22857 4.0424C6.22857 3.46504 6.45714 3.00316 6.91429 2.88769C7.71429 2.65674 8.62857 2.31033 9.42857 2.19486C11.6 1.84844 13.7714 1.96392 15.9429 2.54127C16.0571 2.54127 16.2857 2.65674 16.4 2.65674C17.0857 2.88769 17.5429 3.34957 17.5429 4.15787C17.5429 4.73523 17.5429 5.31259 17.5429 5.88994C19.0286 6.23636 20.6286 5.54353 22 6.4673C20.9714 7.73748 20.4 9.12314 19.8286 10.6243C19.4857 11.4326 19.0286 12.2409 18.4571 12.9337C17.5429 14.0884 16.2857 14.5503 14.9143 14.5503C14.6857 14.5503 14.4571 14.6658 14.2286 14.8967C13.8857 15.2431 13.6571 15.5895 13.3143 15.8205C12.5143 16.5133 12.8571 18.5918 14.2286 18.8227C15.1429 18.9382 15.7143 19.631 15.9429 20.4393C16.0571 20.6703 15.9429 20.9012 15.7143 21.0167C13.2 22.4023 10.8 22.2869 8.28571 20.9012C8.17143 20.9012 8.05714 20.6703 8.05714 20.5548C8.28571 19.7465 8.62857 19.0537 9.54286 18.8227C11.2571 18.3609 11.6 16.7443 10.3429 15.4741C9.77143 14.8967 9.2 14.5503 8.28571 14.4348C6.45714 14.2039 5.31429 13.0492 4.51429 11.4326C4.05714 10.5088 3.82857 9.58503 3.37143 8.77673C2.91429 7.96843 2.45714 7.16013 2 6.35183ZM15.2571 4.27334C15.2571 4.15787 15.2571 4.15787 15.2571 4.0424C14.9143 3.92693 14.6857 3.69599 14.3429 3.69599C12.6286 3.34957 10.9143 3.34957 9.2 3.69599C8.97143 3.81146 8.74286 4.0424 8.51429 4.15787C8.74286 4.27334 8.97143 4.50429 9.2 4.61976C10.9143 4.96617 12.7429 4.96617 14.4571 4.61976C14.8 4.50429 15.0286 4.38881 15.2571 4.27334ZM18.6857 8.19937C18.2286 8.19937 17.8857 8.19937 17.4286 8.19937C17.3143 8.19937 17.2 8.31484 17.2 8.43031C16.8571 10.1624 16.1714 11.779 15.2571 13.2801C17.0857 13.2801 18.4571 10.9707 18.6857 8.19937ZM5.2 8.31484C5.42857 10.9707 6.91429 13.2801 8.28571 13.3956C7.82857 12.1254 7.25714 10.7397 6.8 9.35408C6.45714 8.19937 6.57143 8.19937 5.2 8.31484C5.31429 8.19937 5.31429 8.19937 5.2 8.31484Z" fill="white"/></svg>