<svg width="24" height="24" viewBox="0 0 24 24" fill="none" xmlns="http://www.w3.org/2000/svg"><path d="M19.5906 9.5098C19.2769 9.61438 18.9631 9.71895 18.754 9.9281C18.1265 10.451 17.6037 10.9739 16.9762 11.4967C16.6625 11.8105 16.2442 11.915 15.8259 11.6013C15.5122 11.2876 15.0939 10.9739 14.9893 10.6601C14.7801 10.0327 14.7801 9.40523 14.8847 8.77778C15.0939 7.4183 15.5122 5.95425 15.8259 4.59477C15.9305 3.96732 16.1396 3.44444 15.8259 2.81699C15.6167 2.50327 15.4076 2.08497 15.0939 2.08497C14.8847 1.98039 14.4664 2.29412 14.2573 2.50327C13.9435 2.92157 13.7344 3.44444 13.5252 3.96732C13.2115 4.9085 12.8978 5.95425 12.5841 6.89542C12.4795 7.10457 12.2703 7.31372 12.0612 7.62745C11.852 7.10457 11.6429 6.79085 11.5383 6.37255C11.3292 5.43137 10.9109 4.38562 11.12 3.44444C11.2246 2.71242 11.3292 2.08497 10.5971 1.56209C10.4926 1.56209 10.4926 1.45752 10.4926 1.35294C10.2834 1.03922 10.0743 0.934641 9.65596 1.03922C9.34223 1.03922 9.13308 1.35294 9.0285 1.66667C9.0285 1.87582 9.0285 1.98039 8.92393 2.08497C8.50563 2.50327 8.40105 3.02614 8.50563 3.54902C8.6102 4.80392 8.81935 6.1634 8.92393 7.4183C8.92393 7.73203 8.92393 7.94118 8.81935 8.2549C8.71478 8.2549 8.71478 8.2549 8.6102 8.35948C8.08733 7.94118 7.56445 7.52288 7.04158 7C7.14615 6.89542 7.14615 6.79085 7.14615 6.79085C7.7736 5.84967 7.56445 5.11765 6.41413 5.01307C6.41413 4.9085 6.30955 4.9085 6.20498 4.9085C5.47295 4.80392 4.63635 5.3268 4.74092 6.05882C4.8455 7 4.95007 8.04575 5.57752 8.88235C5.89125 9.19608 6.1004 9.61438 6.41413 10.0327C6.20498 10.0327 6.1004 9.9281 5.99583 9.9281C5.47295 9.71895 4.95007 9.40523 4.4272 9.30065C3.69517 9.0915 3.38145 9.30065 3.06772 10.1373C2.85857 10.451 3.1723 11.0784 3.48602 11.3922C4.0089 11.8105 4.53177 12.2288 5.05465 12.6471C5.89125 13.3791 6.30955 14.3203 6.937 15.2614C7.45988 16.098 8.08733 17.0392 8.6102 17.8758C8.71478 18.085 8.92393 18.2941 8.92393 18.6078C8.92393 19.1307 9.13308 21.6405 9.13308 22.1634C9.13308 22.268 9.13308 22.3725 9.13308 22.4771C9.23765 22.5817 9.34223 22.7908 9.44681 23H9.55138C9.65596 23 9.76053 22.8954 9.86511 22.8954C9.96968 22.8954 10.1788 22.7908 10.2834 22.7908C10.5971 22.3725 11.0154 21.8497 11.3292 21.3268C11.4337 20.6993 11.6429 18.5033 11.6429 17.7712L12.4795 20.281C12.4795 20.281 12.4795 20.4902 12.5841 20.5948C12.6886 20.8039 12.4795 20.8039 12.4795 20.9085C12.4795 20.9085 12.4795 20.9085 12.4795 21.0131C12.4795 21.1176 12.5841 21.2222 12.5841 21.4314C12.6886 21.6405 12.7932 21.9542 12.8978 22.1634C13.0024 22.1634 13.1069 22.1634 13.1069 22.1634C13.3161 22.1634 13.5252 21.8497 13.7344 21.6405C13.839 21.7451 13.9435 21.9542 14.0481 22.0588C14.1527 22.1634 14.2573 22.268 14.3618 22.4771C14.571 22.5817 14.6756 22.6863 14.8847 22.7908C14.9893 22.5817 15.1984 22.4771 15.303 22.268C15.4076 21.7451 15.4076 21.2222 15.4076 20.6993C15.303 19.3399 15.4076 19.9673 15.1984 18.6078C15.0939 18.1895 15.303 17.8758 15.5122 17.5621C15.9305 17.1438 15.7213 16.7255 16.035 16.2026C16.4533 15.4706 16.9762 14.8431 17.8128 14.4248C18.4403 14.0065 19.0677 13.6928 19.6952 13.2745C20.0089 13.0654 20.1135 12.8562 20.0089 12.5425C19.9043 12.1242 19.9043 11.7059 20.218 11.2876C20.3226 11.183 20.3226 10.9739 20.4272 10.7647C20.5318 9.82353 20.1135 9.40523 19.5906 9.5098Z" fill="white"/></svg>