<svg width="24" height="24" viewBox="0 0 24 24" fill="none" xmlns="http://www.w3.org/2000/svg"><path fill-rule="evenodd" clip-rule="evenodd" d="M11.9448 1C11.9448 1 17.0224 1.1672 18.1521 7.545C19.2807 13.9195 21.5984 14.4805 21.5984 14.4805C21.5984 14.4805 19.9088 20.5525 14.2801 23C14.2801 23 17.1577 18.3063 17.1577 14.7962C17.1577 12.8899 16.6429 9.7417 11.9492 9.7417C7.25549 9.7417 6.74069 12.8943 6.74069 14.7962C6.74069 18.3063 9.61829 23 9.61829 23C3.98959 20.5514 2.29999 14.4849 2.29999 14.4849C2.29999 14.4849 4.61329 13.9239 5.74299 7.5461C6.87049 1.165 11.9437 1 11.9437 1H11.9448ZM7.96499 13.32C8.76799 11.0738 11.9448 11.1596 11.9448 11.1596C11.9448 11.1596 15.1249 11.0738 15.9246 13.3189C15.0336 15.8577 13.9325 18.8211 11.9448 18.8211C9.96149 18.8211 8.85379 15.8577 7.96499 13.3189V13.32Z" fill="white"/></svg>