<svg width="24" height="24" viewBox="0 0 24 24" fill="none" xmlns="http://www.w3.org/2000/svg"><path d="M22.1855 3.27174C21.5877 3.27174 20.9898 4.22826 20.392 4.58696C20.2725 4.70652 20.0333 4.70652 20.0333 4.70652C19.1964 4.34783 19.6746 1.47826 18.1203 3.27174C18.0007 3.51087 17.642 3.63043 17.4029 3.63043C16.4464 3.51087 14.1746 1 12.7398 1C10.8268 1 8.19637 3.63043 8.19637 3.63043C8.19637 3.63043 7.35941 3.98913 6.64202 3.15217C5.56593 2.19565 5.44637 2.79348 5.20724 3.63043C5.08767 3.86957 4.96811 4.34783 4.96811 4.70652C4.84854 4.94565 4.48985 5.06522 4.37028 4.82609C3.65289 4.34783 3.77246 2.79348 2.45724 3.15217C1.62028 4.94565 2.09854 8.77174 2.5768 9.48913C3.65289 11.163 3.2942 13.3152 3.53333 15.3478C3.65289 16.7826 4.37028 17.9783 5.56593 18.6957C7.12028 19.6522 8.4355 20.8478 9.75072 21.9239C11.5442 23.3587 13.0985 23.3587 14.892 21.9239C16.3268 20.8478 17.5225 19.6522 19.0768 18.6957C20.2725 17.9783 21.229 16.7826 21.4681 15.2283C21.7072 13.0761 21.1094 11.7609 22.3051 9.36957C22.7833 8.41304 23.142 3.15217 22.1855 3.27174ZM6.0442 14.3913C4.96811 13.7935 4.96811 12 5.08767 10.3261C5.20724 9.6087 6.28333 9.6087 6.64202 9.72826C8.91376 10.5652 10.4681 12.3587 10.5877 15.587C10.5877 15.9457 10.229 16.1848 9.98985 16.0652C8.55507 15.4674 7.23985 14.9891 6.0442 14.3913ZM10.7072 20.1304C10.4681 20.0109 10.229 19.7717 10.1094 19.5326C9.98985 19.2935 10.229 19.1739 10.4681 19.1739C10.8268 19.2935 11.1855 19.5326 11.1855 20.0109C11.1855 20.25 10.8268 20.25 10.7072 20.1304ZM13.6964 20.1304C13.3377 20.1304 13.2181 19.8913 13.3377 19.6522C13.4572 19.413 13.6964 19.1739 13.9355 19.0543C14.1746 18.9348 14.4138 19.0543 14.4138 19.413C14.4138 19.8913 14.1746 20.1304 13.6964 20.1304ZM18.7181 14.3913C17.5225 15.1087 16.2072 15.587 14.6529 16.1848C14.2942 16.3043 13.9355 16.0652 14.0551 15.7065C14.2942 12.4783 15.8485 10.6848 18.0007 9.84783C18.479 9.6087 19.4355 9.6087 19.5551 10.4457C19.7942 11.8804 19.7942 13.7935 18.7181 14.3913Z" fill="white"/></svg>