<svg width="24" height="24" viewBox="0 0 24 24" fill="none" xmlns="http://www.w3.org/2000/svg"><path d="M21.8224 11.129C21.5984 10.793 21.3744 10.569 21.0385 10.345C20.5905 9.89706 20.1425 9.3371 19.6946 8.88914C19.1346 8.1052 18.7986 7.20928 18.4627 6.42534C18.4627 6.31335 18.3507 6.31335 18.3507 6.20136C18.1267 5.75339 17.9027 5.30543 17.6787 4.85747C17.3428 4.4095 17.0068 4.07353 16.6708 3.62557C17.1188 3.06561 17.6787 2.28167 18.3507 1.38575C18.3507 1.27376 18.2387 1.27376 18.2387 1.16176V1.04977C17.7907 1.04977 17.3428 0.937783 17.1188 1.04977C15.7749 1.49774 14.319 1.9457 12.9751 2.39367C12.5272 2.39367 11.9672 2.50566 11.5192 2.50566C10.8473 2.61765 10.2873 2.61765 9.61539 2.84163C9.50339 2.84163 9.3914 2.84163 9.27941 2.95362C9.16742 2.95362 9.05543 2.95362 9.05543 3.06561H8.94344C8.1595 3.06561 7.71154 3.28959 7.15158 3.40158C6.81561 3.40158 6.59163 3.51357 6.25566 3.73756C6.14367 3.84955 5.91968 3.96154 5.80769 4.07353C5.80769 4.07353 5.80769 4.07353 5.6957 4.18552C5.24774 4.29751 4.68778 4.63348 4.35181 4.96946C4.23982 4.96946 4.12783 5.08145 4.12783 5.08145C3.90385 5.41742 3.67986 5.6414 3.45588 5.97738C3.45588 5.97738 3.45588 5.97738 3.45588 6.08937C3.67986 6.08937 3.79186 6.08937 4.01584 5.97738C4.12783 5.97738 4.12783 5.97738 4.23982 5.97738C4.57579 5.86538 4.91176 5.86538 5.24774 5.86538C5.35973 5.86538 5.47172 5.86538 5.58371 5.86538H5.6957C5.6957 5.86538 5.6957 5.97738 5.58371 5.97738C4.23982 6.64932 3.11991 7.65724 2.22398 8.88914C2.22398 8.88914 2.22398 8.88914 2.11199 8.88914C2.11199 8.88914 2.11199 8.88914 2.11199 9.00113L2 9.11312C2 9.22511 2.11199 9.3371 2.11199 9.3371C2.67195 9.22511 3.11991 9.11312 3.56787 8.88914C3.67986 8.88914 3.67986 8.88914 3.79186 8.88914C3.67986 9.22511 3.56787 9.56109 3.45588 9.89706C3.45588 10.0091 3.34389 10.121 3.34389 10.345C3.2319 10.681 3.11991 10.905 3.00792 11.241C2.89593 11.6889 2.78394 12.1369 2.67195 12.5848C2.67195 12.8088 2.55995 13.0328 2.55995 13.3688C2.44796 13.7048 2.44796 14.0407 2.44796 14.3767C2.44796 14.4887 2.44796 14.6007 2.44796 14.6007C2.44796 14.7127 2.55995 14.7127 2.67195 14.7127C2.67195 14.4887 2.89593 14.2647 3.11991 14.1527C3.11991 14.1527 3.2319 14.1527 3.2319 14.0407C3.2319 14.1527 3.2319 14.2647 3.2319 14.3767C3.2319 14.8247 3.2319 15.3846 3.34389 15.8326C3.45588 16.8405 3.67986 17.8484 4.23982 18.6324C5.02376 18.9683 5.6957 19.1923 6.47964 19.5283C6.70362 19.6403 7.03959 19.7523 7.26357 19.8643C7.15158 19.7523 7.15158 19.6403 7.03959 19.5283C6.59163 18.6324 6.14367 17.6244 6.25566 16.7285C6.03167 15.0486 6.03167 13.1448 6.47964 11.4649C6.70362 10.457 7.03959 9.56109 7.37557 8.55317C7.59955 7.88122 8.04751 7.20928 8.60747 6.76131C8.60747 6.76131 8.60747 6.76131 8.60747 6.64932C8.71946 6.42534 8.83145 6.31335 9.05543 6.08937C9.27941 5.97738 9.50339 5.86538 9.72738 5.75339C9.61538 5.86538 9.61538 5.97738 9.50339 5.97738C9.27941 6.42534 9.05543 6.76131 8.83145 7.20928C8.71946 7.43326 8.49547 7.76923 8.38348 7.99321C8.38348 8.1052 8.27149 8.21719 8.27149 8.32919C8.27149 8.44118 8.1595 8.55317 8.1595 8.66516V8.77715C7.59955 10.0091 7.26357 11.3529 7.15158 12.6968C7.03959 13.2568 7.03959 13.9287 7.15158 14.4887C7.15158 14.9367 7.26358 15.3846 7.37557 15.8326C8.1595 18.5204 10.5113 20.6482 12.8631 21.9921C13.0871 21.9921 13.3111 22.1041 13.5351 22.1041C14.655 22.3281 15.6629 22.552 16.6708 23C16.8948 21.8801 17.0068 20.6482 17.0068 19.5283C16.8948 18.5204 16.6708 17.5124 16.1109 16.6165C15.8869 16.2805 15.6629 15.8326 15.4389 15.4966C15.1029 15.0486 14.879 14.7127 14.543 14.2647C14.095 13.5928 13.871 12.9208 13.5351 12.1369C14.319 12.0249 15.1029 11.8009 15.7749 11.9129C16.2229 12.0249 16.6708 12.2489 17.0068 12.4728H17.1188C17.5667 12.6968 17.9027 12.8088 18.3507 13.0328C18.7986 13.1448 19.1346 13.3688 19.3586 13.7048C19.5826 14.0407 19.8066 14.1527 20.2545 14.2647C20.9265 14.3767 21.9344 14.2647 22.0464 13.3688C22.2704 12.8088 22.1584 11.8009 21.8224 11.129Z" fill="white"/></svg>