<svg width="24" height="24" viewBox="0 0 24 24" fill="none" xmlns="http://www.w3.org/2000/svg"><path d="M5.98755 16.3065C5.98755 16.3065 5.15814 15.9511 4.21025 16.0695C3.38085 16.188 2.78841 15.7141 3.02539 14.5292C3.26236 13.3444 3.49933 12.515 2.78841 12.515C2.0775 12.515 1.1296 13.2259 1.01112 14.6477C0.892632 16.0695 1.60355 20.572 8.94971 21.8754C16.2959 23.1787 20.4429 19.3872 22.3387 15.7141C23.642 13.2259 22.8126 12.1595 21.6278 11.0931C20.4429 10.0267 19.495 10.1452 19.0211 10.3822C18.5471 10.6192 18.0732 11.5671 18.0732 11.804C18.0732 12.041 18.1916 12.1595 18.5471 12.041C18.5471 12.041 19.9689 11.4486 20.4429 12.7519C20.7983 14.0553 19.6135 14.6477 17.0068 14.6477C16.5328 15.7141 15.348 17.9653 11.7934 18.0838C8.23879 18.3208 5.98755 16.3065 5.98755 16.3065Z" fill="white"/><path d="M6.46148 15.8326C6.46148 15.8326 5.98753 13.6998 5.75056 12.8704C5.51359 12.041 6.34299 11.0931 6.57997 10.7377C6.93543 10.3822 7.40937 9.67128 7.52786 9.43431C7.76483 9.07885 7.76483 8.60491 7.76483 7.7755C7.76483 6.94609 7.52786 3.50999 10.253 2.32512C12.9782 1.25875 13.2152 0.903287 13.8076 1.02177C14.4001 1.02177 15.7034 1.85118 16.0589 2.20664C16.4143 2.5621 17.4807 4.45788 17.5992 5.05031C17.7177 5.64274 17.9547 7.53853 17.7177 7.53853C17.3622 7.65701 17.2437 7.53853 16.2959 6.35366C15.348 5.1688 14.7555 4.81334 14.4001 4.81334C14.0446 4.81334 13.4522 5.9982 13.4522 6.47215C13.4522 6.94609 14.0446 8.72339 15.4664 10.5007C16.8883 12.278 16.4143 14.1738 16.4143 14.1738C16.4143 14.1738 15.111 17.0174 11.6749 17.1359C8.35726 17.1359 6.46148 15.8326 6.46148 15.8326Z" fill="white"/></svg>