<svg width="24" height="24" viewBox="0 0 24 24" fill="none" xmlns="http://www.w3.org/2000/svg"><path d="M22.97 10.873C22.4824 3.19399 14.6815 1 14.6815 1C14.6815 1 16.1442 3.0721 15.7785 6.60686C15.5348 8.43519 14.6815 9.65407 13.9502 10.2635C13.8283 10.2635 13.7064 10.2635 13.7064 10.2635C13.2189 10.1416 12.8532 8.55708 12.9751 8.06952C13.097 7.58197 13.7064 6.11931 14.0721 5.26609C14.4378 4.41287 12.7313 2.95021 12.2438 2.58455C11.7562 2.21888 10.2936 4.1691 10.0498 4.65665C9.80601 5.1442 9.9279 9.77596 9.9279 9.77596L9.80601 9.89785C9.07468 9.28841 8.46524 8.19141 8.22146 6.60686C7.8558 3.0721 9.31846 1 9.31846 1C9.31846 1 1.5176 3.19399 1.03005 10.873C0.542495 18.5519 6.14936 20.5021 6.14936 20.5021C6.14936 20.5021 3.5897 17.6987 4.93048 14.5296C6.02747 17.2112 8.22146 17.9425 8.22146 17.9425C8.22146 17.9425 5.90558 14.1639 7.97768 11.7262C8.34335 12.3356 9.07468 13.6764 9.56223 15.139C9.68412 15.6266 9.9279 16.1142 10.1717 16.4798C10.2936 16.6017 10.2936 16.7236 10.4155 16.9674C10.5373 17.2112 10.5373 17.333 10.6592 17.5768C10.6592 17.8206 10.6592 18.0644 10.6592 18.3081C10.6592 18.6738 10.6592 19.0395 10.6592 19.4051C10.5373 19.8927 10.0498 20.1365 9.56223 20.0146C8.95279 19.8927 8.8309 19.527 8.95279 18.9176C8.95279 18.7957 8.8309 18.6738 8.70902 18.6738C8.09957 18.5519 7.73391 19.0395 7.73391 19.527C7.61202 20.1365 7.8558 20.7459 8.22146 21.2335C8.95279 22.2086 10.4155 22.818 11.6343 22.6961C12.2438 22.6961 12.8532 22.4523 13.3408 21.9648C13.8283 21.5991 14.4378 21.1116 14.6815 20.5021C14.9253 20.1365 15.0472 19.6489 15.0472 19.2833C15.1691 18.9176 15.1691 18.5519 15.1691 18.0644C15.1691 16.3579 14.9253 15.3828 14.9253 13.9202C14.9253 12.4575 14.6815 11.3605 15.291 11.4824C15.4129 11.4824 15.5348 11.4824 15.6567 11.4824C15.7785 11.4824 15.7785 11.6043 15.9004 11.6043C18.0944 14.0421 15.7785 18.0644 15.7785 18.0644C15.7785 18.0644 17.9725 17.333 19.0695 14.5296C20.4103 17.8206 17.8506 20.5021 17.8506 20.5021C17.8506 20.5021 23.4575 18.5519 22.97 10.873Z" fill="white"/></svg>