<svg width="24" height="24" viewBox="0 0 24 24" fill="none" xmlns="http://www.w3.org/2000/svg"><path d="M16.0708 7.6114C15.8428 7.49741 15.6149 7.26943 15.3869 7.04145C15.3869 7.04145 15.3869 7.04145 15.2729 6.92746C14.9309 6.69948 14.7029 6.35751 14.475 6.01554C14.133 5.10363 13.905 4.19171 14.133 3.1658C14.361 2.48187 14.5889 1.79793 15.1589 1.34197C15.1589 1.34197 15.2729 1.11399 15.1589 1.11399C15.1589 1 15.0449 1 14.9309 1C14.5889 1.11399 14.361 1.11399 14.019 1.22798C13.1071 1.56995 12.3092 2.02591 11.5112 2.59586C11.0553 2.93782 10.5993 3.39378 10.2573 3.73575C10.1433 3.84974 10.1433 3.96373 10.1433 4.07772C10.2573 4.41969 10.2573 4.76166 10.2573 5.21762C10.2573 5.90155 10.1433 6.69948 10.1433 7.38342C10.1433 7.72539 10.0294 8.18135 9.91537 8.52332C9.5734 9.32124 9.00345 9.7772 8.31951 10.2332C8.20552 10.3472 8.09154 10.3472 7.97755 10.4611C8.31951 11.2591 8.54749 11.943 8.4335 12.8549C8.4335 13.0829 8.4335 13.1969 8.4335 13.3109C9.11744 13.4249 9.68739 13.7668 10.3713 14.1088C10.8273 14.3368 11.2832 14.6788 11.6252 15.1347C11.3972 15.0207 11.0553 15.0207 10.8273 14.9067C10.7133 14.9067 10.7133 14.9067 10.5993 14.7927C10.5993 14.7927 10.5993 14.7927 10.4853 14.7927C10.2573 14.6788 9.91537 14.5648 9.68739 14.5648C9.45941 14.4508 9.34542 14.4508 9.11744 14.4508C8.88946 14.3368 8.54749 14.3368 8.31951 14.2228H8.20553C7.52159 14.3368 6.95164 14.6788 6.60967 15.2487C6.03972 16.0466 5.92573 16.8446 6.03972 17.7565V17.8705C6.15371 17.8705 6.15371 17.8705 6.2677 17.8705C6.38169 17.7565 6.49568 17.6425 6.60967 17.5285C6.83765 17.3005 7.17962 17.1865 7.63558 17.0725C7.86356 16.9585 8.09153 16.8446 8.31951 16.7306C8.77547 16.6166 9.11744 16.5026 9.5734 16.5026C9.23143 16.7306 8.77547 16.9585 8.54749 17.3005C8.20553 17.6425 8.09154 18.0984 8.09154 18.5544C7.86356 19.0104 7.63558 19.4663 7.29361 19.8083C7.17962 20.0363 6.95164 20.1503 6.83765 20.3782L6.72366 20.4922C6.83765 20.8342 6.95164 21.1762 7.06563 21.5181C7.17962 21.6321 7.29361 21.6321 7.52159 21.7461C7.63558 21.7461 7.74957 21.8601 7.86356 21.9741C7.97755 22.0881 8.09153 22.0881 8.31951 22.2021C8.54749 22.4301 8.66148 22.544 8.88946 22.772C9.00345 22.886 9.11744 22.886 9.23143 23H9.34542H9.45941C9.5734 22.886 9.5734 22.886 9.68739 22.772C9.80138 22.658 9.80138 22.658 9.91537 22.544C9.91537 22.4301 10.0294 22.3161 10.0294 22.2021C10.0294 22.0881 9.91537 21.8601 9.91537 21.7461C9.80138 21.2902 9.68739 20.8342 9.80138 20.2642C9.80138 20.1503 9.68739 19.9223 9.80138 19.8083C10.0294 19.1244 10.2573 18.4404 10.5993 17.6425C10.9413 17.1865 11.5112 16.8446 11.9672 16.6166C12.1952 16.6166 12.4231 16.5026 12.6511 16.5026C12.6511 16.5026 12.7651 16.5026 12.8791 16.5026C14.019 16.3886 15.2729 16.0466 16.4128 15.5907C16.5268 15.5907 16.6408 15.5907 16.7547 15.4767C16.8687 15.4767 16.9827 15.4767 17.0967 15.4767C17.2107 15.4767 17.3247 15.3627 17.3247 15.3627C17.3247 15.2487 17.3247 15.1347 17.2107 15.1347L17.0967 15.0207L16.9827 14.9067C16.2988 14.5648 15.7288 14.2228 15.2729 13.6529C15.0449 13.3109 14.7029 12.9689 14.7029 12.399C14.7029 12.285 14.7029 12.171 14.7029 12.057C14.8169 11.715 14.8169 11.2591 15.0449 10.9171C15.1589 10.8031 15.1589 10.6891 15.2729 10.5751C15.9568 9.7772 16.9827 9.43523 17.4387 8.40933C17.3247 8.40933 17.3247 8.40933 17.3247 8.18135C17.3247 8.06736 17.3247 8.06736 17.3247 8.06736C16.8687 8.06736 16.4128 7.83938 16.0708 7.6114Z" fill="white"/></svg>