<svg width="24" height="24" viewBox="0 0 24 24" fill="none" xmlns="http://www.w3.org/2000/svg"><path d="M10.8522 23C10.8522 19.6404 5 18.1232 5 12.271C5 6.41875 13.5616 5.98525 13.5616 10.6453C13.5616 11.2956 11.936 12.4877 11.936 11.5123C11.936 9.77835 8.14286 9.12811 8.14286 12.5961C8.14286 14.6552 8.90148 15.8473 10.6355 17.1478C10.8522 18.0148 11.2857 19.6404 10.8522 23Z" fill="white"/><path d="M9.87685 13.0296C9.87685 13.0296 10.5271 17.4729 14.8621 15.7389C19.197 14.0049 18.6552 9.23645 16.2709 6.41872C13.8867 3.60099 11.5025 4.7931 11.5025 1C10.6355 1.65025 9.76847 3.92611 10.6355 5.00985C11.5025 6.0936 15.9458 8.26108 14.9704 11.9458C13.9951 15.6305 10.7438 14.7635 9.87685 13.0296Z" fill="white"/></svg>