<svg width="24" height="24" viewBox="0 0 24 24" fill="none" xmlns="http://www.w3.org/2000/svg"><path d="M12.3667 16.4955C11.5572 16.4955 10.6321 16.1486 9.82267 15.686C9.70703 15.5704 9.70703 15.4547 9.70703 15.3391C9.47575 14.414 10.0539 13.2576 10.8634 12.7951C11.7885 12.3325 12.7136 12.3325 13.6387 12.9107C14.4482 13.4889 14.7951 14.2984 14.6794 15.3391C14.6216 15.4547 14.5927 15.5415 14.5638 15.6282C14.5349 15.7149 14.506 15.8017 14.4482 15.9173C13.7543 16.2642 13.0605 16.4955 12.3667 16.4955Z" fill="white"/><path fill-rule="evenodd" clip-rule="evenodd" d="M21.6176 12.5637C21.7701 13.2498 21.822 13.986 21.8728 14.7063C21.8991 15.0787 21.9251 15.4469 21.9645 15.8016C21.8489 16.8423 21.502 17.6518 21.0394 18.4612C20.4612 19.3863 19.6518 20.0802 18.8423 20.774C18.4569 21.0823 18.0714 21.2879 17.6859 21.4935C17.4932 21.5963 17.3005 21.6991 17.1078 21.8147C16.1246 22.3609 14.935 22.5975 13.8315 22.817C13.7669 22.8299 13.7026 22.8427 13.6386 22.8555C12.9448 23.0289 12.251 23.0072 11.5572 22.9855C11.3259 22.9783 11.0946 22.9711 10.8633 22.9711C10.459 22.9711 10.1113 22.858 9.78051 22.7505C9.63826 22.7042 9.49916 22.659 9.36005 22.6242C8.78187 22.5085 8.08804 22.2773 7.50986 22.046C6.35348 21.6991 5.42838 21.0053 4.61892 20.1958L4.50329 20.0802C4.04074 19.502 3.69382 18.8081 3.57819 18.1143C3.23127 17.1892 3 16.1485 3 15.1078C3 14.4139 3 13.6045 3.11564 12.9106L3.23127 12.795C3.26514 12.8627 3.28909 12.9206 3.30893 12.9685C3.35683 13.0841 3.38078 13.1419 3.46255 13.1419L3.80946 14.5296C4.27201 16.1485 5.08147 17.6518 6.35348 18.6925C6.93167 19.1551 7.74113 19.502 8.43495 19.7332H8.55059C8.83069 19.92 9.18619 20.0313 9.49533 20.1282C9.56906 20.1513 9.64016 20.1735 9.70696 20.1958C10.4008 20.3114 11.0946 20.4271 11.7884 20.4271C12.3666 20.4271 12.8292 20.4271 13.4074 20.3114C12.5979 20.1958 11.7884 20.0802 11.0946 19.8489C9.8226 19.502 8.66623 18.9238 7.74113 17.9987C7.62549 17.8831 7.48095 17.7674 7.3364 17.6518C7.19186 17.5361 7.04731 17.4205 6.93167 17.3049C6.75821 17.0158 6.55585 16.7267 6.35348 16.4376C6.15112 16.1485 5.94875 15.8594 5.7753 15.5703C4.50328 13.4888 4.04074 11.2917 4.50329 8.97898C4.61892 8.51643 4.73456 8.05388 5.08147 7.70696C5.17074 7.34988 5.32893 7.13062 5.50284 6.88959C5.5542 6.81841 5.60693 6.74532 5.65966 6.66623C5.89093 6.55059 6.00657 6.43495 6.12221 6.31932C6.23784 6.2615 6.35348 6.17477 6.46912 6.08804C6.58476 6.00131 6.70039 5.91459 6.81603 5.85677C6.93167 5.74113 7.27858 5.62549 7.50986 5.62549C7.50986 5.50986 7.62549 5.50986 7.62549 5.50986H7.74113C7.68331 5.62549 7.6544 5.74113 7.62549 5.85677C7.59658 5.9724 7.56767 6.08804 7.50986 6.20368C7.50986 6.55059 7.50986 7.01314 7.62549 7.47569C7.62549 7.57965 7.64886 7.70697 7.67458 7.84715C7.70608 8.01883 7.74113 8.20981 7.74113 8.40079C7.74113 8.45861 7.77004 8.48752 7.79895 8.51643C7.82786 8.54534 7.85677 8.57425 7.85677 8.63206C7.91459 8.57425 7.9724 8.54534 8.03022 8.51643C8.08804 8.48752 8.14586 8.45861 8.20368 8.40079C8.78187 7.93824 9.24441 7.24442 9.59133 6.43495L10.6321 4.00657V3.89093C10.8633 3.31275 11.0946 2.73455 11.3259 2.27201C11.5082 2.12615 11.679 1.98029 11.8456 1.83806C12.2073 1.52924 12.5489 1.23752 12.9448 1C12.9448 1.34691 13.0604 1.80946 13.1761 2.15637C13.2339 2.32983 13.2917 2.5322 13.3495 2.73457C13.4074 2.93693 13.4652 3.13929 13.523 3.31275C13.7543 4.46912 14.795 5.27858 15.7201 5.97241C16.1826 6.31931 16.7608 6.66621 17.339 7.01312C17.339 6.43493 17.339 5.74113 17.2234 5.16294C17.1078 5.16294 17.2234 5.04731 17.2234 5.04731C17.2234 4.93167 17.339 4.93167 17.4547 4.93167C18.1827 5.24366 18.7236 5.92978 19.1616 6.48532C19.2106 6.54749 19.2583 6.60803 19.3049 6.66623C20.3456 7.8226 21.1551 9.21025 21.502 10.8292C21.6176 11.4073 21.6176 11.9856 21.6176 12.5637ZM15.9514 16.1485L16.9921 15.4547C17.4547 14.9921 17.9172 14.5296 18.611 13.9514C18.4954 12.9106 18.2641 11.9855 17.8016 11.1761C17.6859 11.0605 17.5703 10.8292 17.4547 10.5979C17.2234 10.251 16.9921 9.90407 16.7608 9.6728C15.7201 8.86334 14.5637 8.28515 13.2917 7.93824H13.1761C13.4074 8.1117 13.6097 8.25624 13.8121 8.40079C14.0145 8.54534 14.2168 8.68988 14.4481 8.86334C14.795 9.09461 15.1419 9.32589 15.3732 9.6728L15.7201 10.0197C16.067 10.4823 16.2983 10.8292 16.4139 11.2917C16.6128 11.7889 16.7262 12.3716 16.8276 12.8928C16.8441 12.9777 16.8603 13.0609 16.8765 13.1419L16.5296 12.795C16.1827 12.3325 15.8357 11.9855 15.3732 11.6386C14.795 11.1761 14.2168 10.8292 13.523 10.5979C12.9448 10.4823 12.3666 10.3666 11.7884 10.4823C10.979 10.5979 10.2852 10.9448 9.70696 11.2917C9.12878 11.7543 8.55059 12.2168 8.08804 12.795C7.9724 12.9685 7.85677 13.113 7.74113 13.2576C7.62549 13.4021 7.50986 13.5466 7.39422 13.7201C7.27858 13.9514 7.16294 14.067 7.04731 14.1827C7.16294 14.1827 7.16294 14.2983 7.16294 14.2983C7.16294 14.4139 7.27858 14.5296 7.27858 14.5296C7.74113 15.339 8.43495 15.8016 9.12878 16.2641H9.24442C9.59133 16.4954 9.93824 16.7267 10.4008 16.8423C11.5572 17.3049 12.7135 17.5361 13.8699 17.0736C14.5637 16.8423 15.2576 16.4954 15.9514 16.1485Z" fill="white"/></svg>