<svg width="24" height="24" viewBox="0 0 24 24" fill="none" xmlns="http://www.w3.org/2000/svg"><path d="M21.3527 10.097L21.244 9.98821C20.2652 9.3357 18.8514 9.11819 17.4376 9.11819V9.22694C17.4376 9.44445 17.4376 9.66195 17.4376 9.87946C17.4376 10.097 17.4376 10.3145 17.4376 10.532C17.4376 10.532 17.4376 10.532 17.4376 10.6407C17.6551 10.6407 17.8726 10.6407 17.9814 10.7495C18.1989 10.7495 18.4164 10.7495 18.6339 10.8582C18.9602 10.967 19.3952 11.1845 19.6127 11.402C20.0477 11.7282 20.4827 12.1633 20.809 12.9245C20.9177 13.577 20.3739 14.2296 19.5039 14.8821C18.5251 15.6433 17.5464 14.7733 17.6551 13.9033C17.6551 13.2508 17.6551 12.5983 17.6551 11.7282C15.1538 12.272 14.5013 13.4683 13.9575 15.3171C13.4138 12.272 16.0238 11.0757 16.0238 11.0757C16.0238 11.0757 16.3501 9.66195 16.0238 8.90069C14.3926 7.81316 12.1088 2.9193 12 2.81055C11.8912 2.9193 9.7162 7.81316 7.97616 8.90069C7.6499 9.66195 7.97616 11.0757 7.97616 11.0757C7.97616 11.0757 10.5862 12.272 10.0425 15.3171C9.49869 13.4683 8.84618 12.272 6.34487 11.7282C6.34487 12.5983 6.34487 13.2508 6.34487 13.9033C6.45362 14.8821 5.47485 15.6433 4.49608 14.8821C3.62606 14.2296 3.0823 13.577 3.19105 12.9245C3.62606 12.0545 3.95232 11.6195 4.38733 11.2932C4.71358 11.0757 5.03984 10.8582 5.3661 10.7495C5.5836 10.7495 5.80111 10.6407 6.01861 10.6407C6.23612 10.6407 6.45362 10.6407 6.56238 10.532C6.56238 10.532 6.56238 10.532 6.56238 10.4232C6.56238 10.2057 6.56238 9.98821 6.56238 9.77071C6.56238 9.5532 6.56238 9.3357 6.56238 9.11819V9.00944C5.14859 9.00944 3.62606 9.11819 2.75604 9.87946L2.64729 9.98821C1.34226 11.1845 0.907248 12.8158 1.016 14.4471C1.23351 15.5346 1.88602 16.7309 3.19105 17.6009C3.40855 17.7096 3.73481 17.9271 3.95232 18.0359C4.06107 18.1446 4.16982 18.1446 4.27857 18.2534C7.10614 19.7759 10.9125 20.9722 12 21.1897C13.0875 20.9722 16.8939 19.6672 19.7214 18.2534C19.8302 18.1446 19.9389 18.1446 20.0477 18.0359C20.2652 17.9271 20.5914 17.7096 20.809 17.6009C22.114 16.7309 22.6577 15.5346 22.984 14.4471C23.0928 12.9245 22.6577 11.1845 21.3527 10.097ZM12 11.2932L10.695 9.98821L12 7.70441L13.305 9.98821L12 11.2932Z" fill="white"/></svg>