<svg width="24" height="24" viewBox="0 0 24 24" fill="none" xmlns="http://www.w3.org/2000/svg"><path fill-rule="evenodd" clip-rule="evenodd" d="M20.7994 10.625C22.1782 8 23.181 4.125 19.0445 1.125C20.1727 4 18.7938 7.875 15.2841 9.25C13.1532 8.25 10.897 8.25 8.76612 9.125C5.25641 7.875 3.8776 3.875 5.00572 1C0.869278 4.125 1.7467 8 3.25086 10.625L3.8776 13.625L2.87482 16.75C4.12829 19.25 7.638 23 12.1505 23C16.663 23 19.7966 19.75 21.4261 16.75L20.4234 13.625L20.7994 10.625ZM6.38453 15.125C6.13384 15.25 6.00849 15.5 5.88314 15.625V14.625C5.88314 14.625 6.76057 12.5 7.88869 12.5C9.14216 12.5 9.89424 14.625 9.89424 14.625V15.75C9.14216 14.5 7.51265 14.375 6.38453 15.125ZM10.7717 19.625C10.0196 19.25 9.2675 18.625 9.01681 17.875V16.875C10.897 18.25 13.4039 18.25 15.1588 16.875V17.875C14.4067 19.5 12.4012 20.25 10.7717 19.625ZM18.1671 15.75C17.415 14.625 15.9109 14.25 14.7828 15C14.5321 15.25 14.2814 15.5 14.0307 15.75V14.75C14.0307 14.75 14.6574 12.625 16.0362 12.625C17.415 12.625 18.0418 14.75 18.0418 14.75V15.75H18.1671Z" fill="white"/></svg>