<svg width="24" height="24" viewBox="0 0 24 24" fill="none" xmlns="http://www.w3.org/2000/svg"><path d="M12.1436 19.9613C9.34804 17.1657 6.43091 17.0442 4.97235 17.1657L4.72925 20.326C4.72925 20.326 8.25411 18.9889 12.1436 23C16.0331 18.9889 19.558 20.326 19.558 20.326L19.3149 17.1657C17.8563 17.0442 14.9392 17.1657 12.1436 19.9613Z" fill="white"/><path d="M19.1934 12.547C19.6796 11.6961 19.9226 10.8453 19.9226 9.87293C19.9226 7.44199 18.0994 5.37569 15.547 4.40331L12.0221 1L8.61878 4.40331C6.0663 5.37569 4.36464 7.44199 4.36464 9.87293C4.36464 10.8453 4.60773 11.6961 5.09392 12.547L4 16.3149C4 16.3149 8.25414 14.8564 12.1436 18.8674C16.0331 14.8564 20.2873 16.3149 20.2873 16.3149L19.1934 12.547ZM7.8895 9.99447C7.64641 10.6022 7.52486 11.2099 7.52486 11.9392C7.64641 12.4254 7.76796 12.7901 8.1326 13.1547C7.28177 12.7901 6.55249 11.9392 6.43094 10.2376C6.30939 6.83425 11.9006 5.01105 11.9006 5.01105C11.9006 5.01105 8.37569 7.56354 7.8895 9.99447Z" fill="white"/></svg>