<svg width="24" height="24" viewBox="0 0 24 24" fill="none" xmlns="http://www.w3.org/2000/svg"><path d="M18.2857 7.89013C17.8022 5.35166 15.989 3.41759 13.5714 2.81319V1H10.4286V2.81319C8.01098 3.41759 6.07691 5.35166 5.71427 7.89013L12 5.47254L18.2857 7.89013Z" fill="white"/><path d="M5.59342 17.5604V19.2527L12 23L18.4066 19.2527V17.5604L12 19.978L5.59342 17.5604Z" fill="white"/><path fill-rule="evenodd" clip-rule="evenodd" d="M4.50548 9.94508L12 7.04397L19.4945 9.94508V15.7473L12 18.6484L4.50548 15.7473V9.94508ZM7.28571 14.6594C7.40658 14.5385 7.40658 14.4176 7.40658 14.2967V11.3956C7.40658 11.1539 7.40658 11.033 7.28571 10.9121L5.95603 11.1539V14.4176L7.28571 14.6594ZM10.9121 15.3847V10.1868L9.46153 10.4286V15.022L10.9121 15.3847ZM13.0879 15.2638L14.5385 15.022V10.3077L13.0879 10.066V15.2638ZM18.044 14.4176V11.1539L16.7143 10.9121C16.5934 11.033 16.5934 11.2748 16.5934 11.3956V14.2967C16.5934 14.4176 16.5934 14.5385 16.7143 14.6594L18.044 14.4176Z" fill="white"/></svg>