<svg width="24" height="24" viewBox="0 0 24 24" fill="none" xmlns="http://www.w3.org/2000/svg"><path d="M11.4979 16.3428C11.7186 16.4531 11.8289 16.5634 12.0496 16.5634C12.2702 16.5634 12.3806 16.5634 12.6012 16.3428C12.8219 16.2325 12.9322 16.0118 13.0425 15.7911C13.3735 15.3498 13.5942 14.5775 13.5942 13.8052C13.5942 13.2536 13.4839 12.7019 13.2632 12.2606C13.0425 11.8193 12.8219 11.4883 12.6012 11.2677C12.3806 11.1573 12.2702 11.047 12.0496 11.047C11.8289 11.047 11.7186 11.047 11.4979 11.2677C11.2773 11.378 11.1669 11.5986 11.0566 11.8193C10.7256 12.2606 10.505 13.0329 10.505 13.8052C10.505 14.3569 10.6153 14.9085 10.836 15.3498C10.9463 15.7911 11.1669 16.1221 11.4979 16.3428Z" fill="white"/><path d="M22.8618 10.9367C22.5308 9.28171 21.5378 7.95777 20.9862 6.30283C20.8758 6.52349 20.6552 6.63382 20.6552 6.85448C20.5449 7.29579 20.4345 7.73711 20.3242 8.28875C20.2139 8.95073 19.8829 9.28171 19.2209 9.28171C18.5589 9.28171 18.0073 8.8404 17.7866 8.0681C17.235 6.41316 17.0143 4.75823 17.0143 3.10329C17.0143 2.7723 16.904 2.44132 16.7937 2.11033C16.6833 2.11033 16.6833 2.11033 16.573 2C16.1317 2.33099 15.8007 2.55164 15.4697 2.99296C14.3664 4.31691 13.7045 5.86152 13.4838 7.51645C13.2631 8.8404 13.4838 10.054 14.2561 11.1573C14.2561 11.2676 14.3664 11.2676 14.4768 11.378C15.0284 10.385 15.6904 10.2747 16.573 10.716C17.4556 11.1573 17.6763 11.9296 17.566 12.9226C17.4556 13.4742 17.1247 13.8052 16.573 13.9155C15.6904 14.1362 15.0284 13.6949 14.4768 13.1432C14.4768 13.3639 14.4768 13.5845 14.4768 13.9155C14.4768 14.5775 14.3664 15.2395 14.1458 15.7911C13.9251 16.3428 13.5941 16.7841 13.1528 17.1151C12.8218 17.3357 12.4908 17.4461 12.1599 17.4461C11.8289 17.4461 11.4979 17.3357 11.1669 17.1151C10.8359 16.8944 10.6152 16.6738 10.3946 16.3428C9.95327 15.6808 9.73261 14.7982 9.73261 13.9155C9.73261 13.6949 9.73261 13.3639 9.84294 13.1432C9.40163 13.3639 9.07064 13.6949 8.62932 13.9155C7.63636 14.0259 6.75373 13.6949 6.53307 12.9226C6.31241 12.1503 6.42274 11.047 7.52603 10.6057C8.40867 10.1643 8.96031 10.385 9.62229 11.378C9.73261 11.2676 9.73261 11.1573 9.84294 11.047C10.3946 10.1643 10.6152 9.28171 10.6152 8.28875C10.6152 7.51645 10.3946 6.74415 10.1739 5.97184C9.84294 5.08921 9.51196 4.42724 9.18097 3.76526C8.73965 2.99296 8.18801 2.33099 7.19505 2C7.08472 2.22066 6.97439 2.44132 6.97439 2.7723C6.97439 2.88263 6.97439 2.99296 6.97439 3.10329C7.74669 5.19954 6.86406 7.29579 5.98143 8.50941C5.65044 8.73007 5.42978 8.95073 5.0988 9.06106C4.32649 9.50237 3.66452 9.06106 3.55419 8.17842C3.55419 7.73711 3.33353 7.29579 3.2232 6.74415C3.2232 6.63382 3.11287 6.52349 3.00254 6.41316C2.56123 7.18546 2.23024 7.95777 1.89925 8.73007C1.56827 9.50237 1.23728 10.2747 1.12695 11.047C0.906293 12.2606 0.906293 13.5845 1.6786 14.5775C2.34057 15.5705 3.11287 16.4531 3.88518 17.3357C3.99551 17.6667 4.32649 17.9977 4.65748 18.3287C4.76781 18.5494 4.98847 18.6597 5.20912 18.8803C5.20912 18.8803 5.31945 18.8803 5.31945 18.77C5.31945 18.6597 5.31945 18.5494 5.31945 18.439C5.31945 18.108 5.31945 17.6667 5.42978 17.3357C5.76077 16.5634 6.75373 16.2324 7.41571 16.6738C7.85702 17.0047 8.29834 17.5564 8.519 18.108C8.84998 18.9907 9.2913 19.6526 10.0636 20.2043C10.7256 20.6456 11.3876 21.1973 11.8289 21.8592C12.0495 22.1902 12.1599 22.0799 12.4908 21.8592C12.9322 21.3076 13.3735 20.7559 14.0354 20.4249C14.8077 19.8733 15.3594 19.2113 15.8007 18.439C16.0214 18.108 16.1317 17.6667 16.3524 17.3357C17.0143 16.3428 18.1176 16.2324 18.7796 17.1151C19.0003 17.4461 19.0003 17.9977 19.1106 18.439C19.1106 18.5494 19.1106 18.6597 19.1106 18.8803H19.2209C19.4416 18.6597 19.5519 18.5494 19.7726 18.3287C20.3242 17.6667 20.8758 16.8944 21.5378 16.2324C22.6411 14.6878 23.3031 13.0329 22.8618 10.9367Z" fill="white"/></svg>