<svg width="24" height="24" viewBox="0 0 24 24" fill="none" xmlns="http://www.w3.org/2000/svg"><path d="M18.38 11.6702L23 6.7202L16.07 6.1702L17.28 7.2702L16.18 7.71019C15.74 7.16019 15.3 6.7202 14.97 6.28019C14.53 5.84019 14.09 5.4002 13.54 5.0702C13.1 4.7402 12.55 4.41019 12 4.19019C10.9 3.75019 9.8 3.4202 8.7 3.3102C8.15 3.3102 7.6 3.2002 7.05 3.2002C6.5 3.3102 5.95 3.3102 5.4 3.4202C6.39 3.7502 7.38 4.1902 8.37 4.6302C8.92 4.8502 9.47 5.1802 10.02 5.4002L1 13.7602L13.1 17.1702C12.44 18.3802 11.56 19.5902 10.46 20.8002C12.55 20.0302 14.42 18.6002 15.74 16.6202C16.07 16.1802 16.29 15.5202 16.51 14.9702C16.62 14.6402 16.73 14.4202 16.84 14.0902C16.84 13.9802 16.95 13.7602 16.95 13.6502L17.06 13.2102L17.17 12.7702C17.17 12.6602 17.17 12.4402 17.17 12.3302C17.17 12.0002 17.17 11.6702 17.17 11.4502L17.06 10.5702C17.06 10.5702 17.06 10.5702 17.06 10.4602L18.27 10.1302L18.38 11.6702ZM11.01 6.0602C11.78 6.6102 12.55 7.2702 13.1 7.9302C13.21 8.1502 13.43 8.37019 13.54 8.5902L4.96 11.7802L11.01 6.0602ZM14.42 11.5602V12.2202C14.42 12.3302 14.42 12.4402 14.42 12.5502C14.42 12.6602 14.42 12.7702 14.42 12.8802V13.2102C14.42 13.3202 14.42 13.4302 14.42 13.5402C14.42 13.7602 14.31 13.9802 14.31 14.2002C14.2 14.6402 14.09 15.0802 13.87 15.5202C13.76 15.7402 13.76 15.8502 13.65 16.0702L5.4 13.6502L14.42 11.0102V11.5602Z" fill="white"/></svg>