<svg width="24" height="24" viewBox="0 0 24 24" fill="none" xmlns="http://www.w3.org/2000/svg"><path d="M13.9022 7.58959C13.9022 8.13873 14.0121 9.67629 14.0121 10.2254C14.1219 12.0925 14.2317 14.0693 14.3415 15.9364C14.4514 17.1445 14.4514 18.3526 14.5612 19.5607C14.5612 19.8901 14.4514 20.1098 14.2317 20.3295C13.4629 21.2081 12.804 22.0867 12.0352 22.9653C11.8155 22.7456 11.7057 22.526 11.4861 22.3063C11.4861 22.3063 10.7173 21.4277 10.3878 20.8786C9.94849 20.4393 9.50918 20.1098 9.50918 19.5607C9.50918 18.9017 9.50918 18.1329 9.50918 17.474C9.61901 16.0462 9.72884 14.6185 9.83866 13.1907C9.94849 11.763 10.0583 10.3353 10.1681 8.90751C10.1681 8.79768 10.1681 7.80925 10.1681 7.58959C9.50918 7.58959 8.85022 7.58959 8.19127 7.58959C8.19127 7.15029 8.19127 6.05203 8.19127 5.61272C10.7173 6.16185 13.3531 6.16185 15.8791 5.61272C15.8791 6.05203 15.8791 7.15029 15.8791 7.69942L13.9022 7.58959Z" fill="white"/><path d="M12.9139 1C12.2549 1 11.7058 1 11.0469 1C11.0469 2.53757 11.0469 4.07514 11.0469 5.61271C11.7058 5.61271 12.2549 5.61271 12.9139 5.61271C12.9139 4.07514 12.9139 2.53757 12.9139 1Z" fill="white"/><path d="M17.9659 10.8844C19.0641 10.7745 20.382 10.5549 21.1508 10.1156C22.6884 9.23696 23.2375 7.91905 22.908 5.72252C20.1624 8.46818 17.6364 8.68783 15.1104 9.01731C15.2202 11.4335 15.33 13.8497 15.4399 16.2658C15.7693 15.9364 15.989 15.6069 16.0988 15.1676C16.0988 15.0578 16.2086 14.8381 16.2086 14.7283C17.856 15.1676 18.515 14.5086 19.5034 13.4104C18.515 13.7398 17.3069 13.1907 16.6479 12.8612C19.6133 13.63 21.4803 12.4219 22.2491 10.5549C21.2607 11.2138 19.3936 11.104 17.9659 10.8844Z" fill="white"/><path d="M2.91965 10.1156C3.68844 10.5549 5.00635 10.7745 6.10462 10.8844C4.7867 11.104 2.80983 11.2138 1.82139 10.6647C2.59017 12.6416 4.45722 13.7398 7.42253 12.9711C6.76357 13.3005 5.55548 13.8497 4.56705 13.5202C5.55548 14.6185 6.21444 15.1676 7.86184 14.8381C7.86184 15.0578 7.97166 15.1676 7.97166 15.2774C8.08149 15.7167 8.30114 16.0462 8.63062 16.3757C8.74045 13.9595 8.74045 11.5433 8.85027 9.12714C6.32427 8.68783 3.79826 8.46818 1.0526 5.72252C0.832951 7.91905 1.27226 9.23696 2.91965 10.1156Z" fill="white"/></svg>