<svg width="24" height="24" viewBox="0 0 24 24" fill="none" xmlns="http://www.w3.org/2000/svg"><path d="M2.02716 12.516C2.02716 12.9506 2.1358 13.2765 2.1358 13.7111C2.1358 13.8198 2.1358 13.9284 2.24444 14.037C2.57037 14.5802 3.00494 14.9062 3.54815 15.2321C4.09136 15.558 4.85185 15.6667 5.28642 16.1012C5.5037 16.3185 5.61235 16.6444 5.72099 16.9704C5.93827 17.1877 6.04691 17.5136 6.15556 17.7309C6.48148 18.3827 7.02469 18.9259 7.45926 19.5778C7.78519 20.2296 8.11111 20.8815 8.54568 21.4247C8.98025 22.0765 9.52346 22.6198 10.1753 22.837C10.9358 23.0543 11.6963 23.0543 12.4568 22.837C13.1086 22.6198 13.9778 22.6198 14.4123 22.0765C14.8469 21.5333 14.9556 20.8815 15.2815 20.3383C15.9333 19.1432 16.5852 17.8395 17.7802 17.079C18.8667 15.884 20.1704 14.9062 20.8222 13.4938C21.1481 12.7333 21.3654 11.9728 21.3654 11.2123C21.3654 11.1037 21.2568 10.9951 21.2568 10.8864C21.1481 10.6691 21.1481 10.4519 21.0395 10.2346C20.9309 10.1259 20.9309 10.0173 20.8222 9.90864C20.7136 9.8 20.6049 9.69136 20.3877 9.58272C20.0617 9.25679 19.7358 9.03951 19.5185 8.71358C19.4099 8.38765 19.3012 8.17037 19.084 7.84444C19.084 7.84444 19.084 7.7358 18.9753 7.7358C18.758 7.7358 18.6494 7.84444 18.4321 7.95309C18.4321 8.06173 18.3235 8.17037 18.3235 8.17037C18.2148 8.27901 18.2148 8.38765 18.2148 8.60494C18.2148 8.71358 18.2148 8.82222 18.2148 8.82222C18.2148 9.14815 18.4321 9.47407 18.6494 9.69136C18.8667 10.1259 18.8667 10.4519 18.8667 10.8864C18.8667 11.1037 18.758 11.321 18.6494 11.4296C18.5407 12.2988 17.8889 13.0593 17.3457 13.7111C17.3457 13.6025 17.237 13.6025 17.237 13.4938C16.9111 12.9506 16.5852 12.516 16.1506 12.1901C16.042 11.9728 16.042 11.6469 16.042 11.4296C16.042 10.5605 16.1506 9.8 16.3679 8.93086C16.4765 8.17037 16.6938 7.40988 17.0198 6.64938C17.1284 6.4321 17.1284 6.21482 17.237 5.99753C17.237 5.88889 17.237 5.88889 17.237 5.78025C17.237 5.45432 17.237 5.1284 17.1284 4.80247C17.0198 4.47654 16.9111 4.15062 16.5852 3.93333C16.042 3.49877 15.4988 3.28148 14.9556 2.95556C14.4123 2.62963 14.0864 2.19506 13.6519 1.76049C13.4346 1.54321 13.2173 1.32593 12.8914 1.21728C12.7827 1.21728 12.5654 1.10864 12.4568 1C12.3481 1.21728 12.3481 1.54321 12.2395 1.76049C12.2395 1.97778 12.2395 2.19506 12.3481 2.41235C12.4568 2.73827 12.5654 3.17284 12.6741 3.49877C12.6741 3.60741 12.7827 3.60741 12.7827 3.71605C12.8914 3.82469 13 3.93333 13 4.15062C13.3259 4.58518 13.9778 4.80247 14.0864 5.34568C14.1951 5.88889 13.7605 6.32346 13.5432 6.86667C13.4346 7.19259 13.3259 7.51852 13.2173 7.84444C13.1086 8.27901 13.1086 8.71358 13 9.14815C12.7827 9.69136 12.4568 10.3432 12.4568 10.9951C12.2395 10.9951 12.0222 10.9951 11.8049 10.9951C11.6963 10.8864 11.5877 10.8864 11.479 10.7778L11.3704 10.6691C11.2617 10.4519 11.0444 10.2346 10.9358 10.0173C10.9358 9.14815 11.1531 8.27901 11.5877 7.40988C11.6963 7.40988 11.6963 7.19259 11.8049 6.97531C11.8049 6.54074 12.0222 6.21481 11.9136 5.78025C11.6963 5.56296 11.479 5.45432 11.2617 5.45432C11.1531 5.45432 11.0444 5.45432 10.9358 5.56296C10.7185 5.56296 10.6099 5.6716 10.6099 5.78025C10.5012 5.88889 10.5012 5.88889 10.3926 5.99753C10.284 6.32346 10.1753 6.54074 10.0667 6.86667C10.0667 6.97531 10.0667 6.97531 9.95802 7.08395C9.95802 7.19259 9.84938 7.40988 9.84938 7.51852C9.84938 7.40988 9.74074 7.40988 9.74074 7.30123C9.52346 7.08395 9.41481 6.75802 9.41481 6.4321C9.41481 6.4321 9.41481 6.32346 9.30617 6.32346C9.08889 5.88889 9.30617 5.56296 9.30617 5.12839C9.41481 4.69383 9.30617 4.25926 9.41481 3.93333C9.52346 3.60741 9.74074 3.28148 9.95802 3.0642L10.0667 2.95556C10.1753 2.73827 10.3926 2.41235 10.5012 2.19506C10.6099 1.97778 10.6099 1.86914 10.7185 1.65185V1.54321V1.43457V1.32593V1.21728C10.5012 0.891358 10.0667 1 9.74074 1.10864C9.74074 1.21728 9.6321 1.32593 9.6321 1.43457C9.6321 1.54321 9.52346 1.65185 9.52346 1.76049L9.41481 1.86914C9.41481 1.86914 9.41481 1.86914 9.30617 1.97778C9.30617 1.97778 9.30617 1.97778 9.19753 1.97778C9.08889 1.97778 8.98025 2.08642 8.98025 2.08642C8.65432 2.3037 8.54568 2.41235 8.32839 2.52099C8.00247 2.73827 7.67654 2.95556 7.5679 3.39012C7.5679 3.49877 7.45926 3.71605 7.35062 3.82469V3.93333C7.35062 3.93333 7.35062 3.93333 7.35062 4.04198V4.15062C7.35062 4.15062 7.24198 4.3679 7.24198 4.47654C7.24198 4.80247 7.13333 5.12839 7.24198 5.56296C7.35062 5.78025 7.35062 6.10617 7.35062 6.32346C7.5679 6.97531 7.67654 7.7358 7.67654 8.38765C7.78519 9.14815 7.89383 9.8 8.00247 10.5605V10.6691C8.21975 10.9951 8.32839 11.2123 8.43704 11.5383V11.6469C8.65432 12.0815 8.98025 12.4074 9.08889 12.842C9.41481 13.7111 9.74074 14.6889 9.74074 15.6667C9.74074 15.7753 9.6321 15.8839 9.52346 15.8839C8.32839 16.2099 7.78519 14.2543 7.35062 13.4938C6.91605 12.7333 6.2642 11.9728 6.15556 11.1037C6.15556 10.7778 6.15556 10.5605 6.04691 10.2346C6.04691 10.0173 5.93827 9.8 5.93827 9.47407C5.82963 8.93086 5.93827 8.38765 6.04691 7.84444C6.15556 7.7358 6.15556 7.51852 6.2642 7.40988C6.37284 7.19259 6.2642 6.97531 6.15556 6.86667C6.04691 6.86667 6.04691 6.75802 5.93827 6.75802H5.82963H5.72099H5.61235C5.28642 6.75802 4.96049 6.97531 4.74321 7.30123C4.63457 7.40988 4.52593 7.51852 4.52593 7.7358C4.41728 7.84444 4.41728 8.06173 4.30864 8.27901C4.30864 8.4963 4.2 8.71358 4.2 8.93086C4.09136 9.69136 4.09136 10.3432 4.2 11.1037C4.41728 11.9728 4.74321 12.7333 5.06914 13.6025C4.74321 13.3852 4.41728 13.1679 4.09136 13.0593C3.98272 13.0593 3.98272 12.9506 3.87407 12.9506C3.76543 12.9506 3.65679 12.9506 3.54815 12.842L3.43951 12.7333C3.43951 12.7333 3.43951 12.7333 3.33086 12.7333C3.22222 12.6247 3.22222 12.516 3.11358 12.516C3.11358 12.4074 3.00494 12.4074 3.00494 12.2988V12.1901C3.00494 12.0815 2.8963 12.0815 3.00494 12.0815V11.9728C2.8963 11.7556 2.8963 11.6469 2.8963 11.4296C2.8963 11.4296 2.8963 11.321 2.8963 11.4296V11.321C2.8963 11.321 2.78765 11.321 2.78765 11.2123C2.67901 11.2123 2.57037 11.2123 2.46173 11.2123C2.35309 11.321 2.24444 11.5383 2.1358 11.6469C1.91852 11.8642 2.02716 12.1901 2.02716 12.516Z" fill="white"/></svg>