<svg width="24" height="24" viewBox="0 0 24 24" fill="none" xmlns="http://www.w3.org/2000/svg"><path d="M17.0855 10.7429C12.476 1 12.1617 1 12.1617 1C12.1617 1 11.8474 1 7.2379 10.7429C3.36171 19.019 9.64742 22.2667 11.6379 23V20.2762L8.49504 17.7619L7.76171 16.4L9.22838 16.9238L11.6379 18.9143V15.5619L9.4379 13.781L8.70457 12.419L10.1712 12.9429L11.7427 14.2V8.75238L12.2665 6.65714L12.7903 8.75238V14.2L14.3617 12.9429L15.8284 12.419L14.9903 13.781L12.7903 15.5619V18.9143L15.3046 16.9238L16.7712 16.4L16.0379 17.7619L12.895 20.2762V23C14.676 22.2667 20.9617 19.019 17.0855 10.7429Z" fill="white"/></svg>