<svg width="24" height="24" viewBox="0 0 24 24" fill="none" xmlns="http://www.w3.org/2000/svg"><path d="M20.1119 16.651L15.7237 11.4832V2.99329H17.9935V1H5.88813V3.06711H8.08223V11.7047L6.72037 13.3289L3.92101 16.651C2.93745 17.7584 2.71047 19.3825 3.3914 20.7852C4.07233 22.1879 5.43418 23 7.02301 23H17.0099C18.5988 23 19.9606 22.1141 20.6415 20.7852C21.2468 19.3825 21.0955 17.7584 20.1119 16.651ZM13.1513 11.0403C13.7566 11.0403 14.2106 11.4832 14.2106 12.0738C14.2106 12.6644 13.7566 13.1074 13.1513 13.1074C12.5461 13.1074 12.0921 12.6644 12.0921 12.0738C12.0921 11.4832 12.6217 11.0403 13.1513 11.0403ZM10.125 15.6913C9.36842 15.6913 8.76315 15.1007 8.76315 14.3624C8.76315 13.6242 9.36842 13.0336 10.125 13.0336C10.8816 13.0336 11.4869 13.6242 11.4869 14.3624C11.4869 15.1007 10.8816 15.6913 10.125 15.6913ZM13.9836 19.8993C12.9244 19.8993 12.0921 19.0872 12.0921 18.0537C12.0921 17.0201 12.9244 16.2081 13.9836 16.2081C15.0428 16.2081 15.8751 17.0201 15.8751 18.0537C15.8751 19.0872 15.0428 19.8993 13.9836 19.8993Z" fill="white"/></svg>