<svg width="24" height="24" viewBox="0 0 24 24" fill="none" xmlns="http://www.w3.org/2000/svg"><path d="M17.886 12.9565C20.6842 13.5304 22.9035 15.5391 22.9035 18.1217C22.9035 18.35 22.9255 18.7089 22.9485 19.0842C22.9736 19.4953 23 19.9261 23 20.2261H15.7632C15.3772 17.7391 13.5439 15.7304 11.1316 14.5826C12 13.8174 13.2544 13.2435 14.6053 12.9565V10.2783C13.2544 9.51304 12.386 7.7913 12.386 5.87826C12.386 3.2 14.1228 1 16.2456 1C18.3684 1 20.1053 3.2 20.1053 5.87826C20.1053 7.7913 19.1404 9.51304 17.886 10.2783V12.9565Z" fill="white"/><path d="M9.20175 15.8261C12 16.4 14.2193 18.4087 14.2193 20.9913V23H7.27193C6.98246 22.9043 3.89474 22.9043 1 23L1 21.087C1 17.2609 4.71825 16.0816 5.92105 15.8261V13.1478C4.57018 12.3826 3.70175 10.6609 3.70175 8.74783C3.70175 6.06957 5.4386 3.86957 7.5614 3.86957C9.68421 3.86957 11.4211 6.06957 11.4211 8.74783C11.4211 10.6609 10.4561 12.3826 9.20175 13.1478V15.8261Z" fill="white"/></svg>