<svg width="24" height="24" viewBox="0 0 24 24" fill="none" xmlns="http://www.w3.org/2000/svg"><path d="M22.7985 7.81744C22.0334 3.56339 18.3609 0.262837 11.781 1.14298C13.6172 2.97663 14.4589 6.27718 12.0105 7.7441L11.0159 5.91045L8.18502 7.52406L9.02663 9.13767C5.8132 10.2379 4.28299 6.57057 3.97695 5.10365C0.533989 8.62425 0.151437 13.9785 2.44675 17.7191C4.58903 21.313 7.80247 21.3864 12.4696 21.093C10.5568 20.5062 7.80247 16.3255 11.5515 14.1252L16.2186 23L19.3555 21.093L14.5354 12.5116C18.6669 11.5581 19.3555 15.372 19.5085 17.059C22.4159 14.7853 23.4871 11.7781 22.7985 7.81744Z" fill="white"/></svg>