<svg width="24" height="24" viewBox="0 0 24 24" fill="none" xmlns="http://www.w3.org/2000/svg"><path d="M15.0451 14.0093V3.79257L12.5652 1L10.0144 3.86068V14.0093H15.0451ZM18.9421 17.483C18.6587 16.8019 18.3753 16.1889 18.0919 15.5077C18.021 15.3715 17.9502 15.3034 17.8793 15.2353C17.8085 15.2353 17.7376 15.1672 17.5959 15.1672H7.39279C7.32193 15.1672 7.18022 15.1672 7.10937 15.2353C7.03851 15.3034 6.8968 15.3715 6.8968 15.5077C6.61338 16.1889 6.32996 16.8019 6.04654 17.483C5.97569 17.6192 5.97569 17.8235 6.1174 17.8916C6.25911 17.9598 6.47167 17.9598 6.54253 17.8235C6.82595 17.6192 7.46364 16.9381 7.60535 16.7337C7.60535 16.7337 7.67621 16.7337 7.67621 16.6656H11.2898C11.5024 16.7337 11.5732 16.9381 11.5732 17.2105V19.7306C11.5024 19.7306 11.5024 19.7988 11.5024 19.7988C11.4315 19.8669 11.2898 19.935 11.219 20.0031C10.8647 20.3437 10.6521 20.7523 10.6521 21.2972C10.6521 21.5015 10.723 21.6378 10.723 21.8421V21.9102C10.723 21.9783 10.7938 22.0464 10.7938 22.1146C10.9355 22.387 11.219 22.6594 11.5024 22.8638H11.5732C11.6441 22.8638 11.7149 22.9319 11.7858 22.9319C11.8566 22.9319 11.8566 22.9319 11.9275 23H12.9195C12.9903 23 13.0612 23 13.0612 22.9319C13.132 22.9319 13.2029 22.8638 13.2737 22.8638H13.3446C13.628 22.6594 13.9114 22.4551 14.0532 22.1146C14.124 22.0464 14.124 21.9783 14.124 21.9102V21.8421C14.1949 21.7059 14.1949 21.5015 14.1949 21.2972C14.1949 20.8204 13.9823 20.3437 13.628 20.0031C13.5572 19.935 13.4863 19.8669 13.3446 19.7988C13.2737 19.7988 13.2737 19.7306 13.2737 19.7306V17.2105C13.2737 16.9381 13.3446 16.7337 13.5572 16.6656H17.1708C17.1708 16.6656 17.2416 16.6656 17.2416 16.7337C17.4542 16.87 18.021 17.5511 18.3045 17.8235C18.4462 17.9598 18.5879 17.9598 18.7296 17.8916C19.0839 17.8235 19.013 17.6192 18.9421 17.483Z" fill="white"/></svg>