<svg width="24" height="24" viewBox="0 0 24 24" fill="none" xmlns="http://www.w3.org/2000/svg"><path d="M13.6547 8.66831C15.0935 6.78637 15.1655 4.54252 13.8705 2.73296C12.5755 0.923404 10.2734 0.706257 8.33094 1.28532C6.67626 1.71961 5.59712 3.02249 5.66906 4.90443C5.81295 7.14828 7.39568 7.79972 9.26619 8.01687V7.94449C8.69065 7.58257 8.33094 7.00352 8.33094 6.27969C8.33094 5.19396 9.26619 4.32537 10.3453 4.32537C11.4245 4.32537 12.4317 5.48349 12.2158 6.56922C12 7.72734 11.3525 8.59593 11.0647 8.95784C9.33813 11.4188 5.59712 11.0569 2 11.5636C7.46763 11.9255 10.9209 12.215 13.6547 8.66831ZM15.0216 14.9656C12.7194 14.097 10.4173 14.097 7.17986 14.1694C8.54676 14.6037 9.6259 14.7484 11.8561 15.3999C12.9353 15.6894 14.0863 16.9199 14.0863 18.078C14.0863 19.2361 13.1511 20.1771 12 20.1771C11.2086 20.1771 10.5612 19.7428 10.2014 19.1637C9.91367 18.8018 9.84173 18.9466 9.6259 18.9466C9.6259 21.5524 10.8489 23 13.223 23C15.3813 23 17.2518 22.2038 17.8273 19.8152C18.3309 17.2094 17.1799 15.7618 15.0216 14.9656ZM20.5612 7.00352C19.482 6.42446 18.0432 6.93113 17.3237 8.08925C16.964 8.66831 16.8921 9.17498 17.4676 9.82642C17.5396 9.89881 17.6115 9.82642 17.6835 9.89881C17.6835 9.24737 18.187 9.03022 18.6906 9.03022C19.2662 9.03022 19.7698 9.60928 19.7698 10.1883C19.7698 10.7674 19.1223 11.4912 18.5468 11.636C15.5252 12.5046 13.6547 12.3598 11.9281 12.5046C14.518 12.9389 17.4676 13.0112 19.3381 12.7217C20.705 12.5046 21.9281 11.3465 22 9.89881C22 8.52354 21.7122 7.58257 20.5612 7.00352Z" fill="white"/></svg>