<svg width="24" height="24" viewBox="0 0 24 24" fill="none" xmlns="http://www.w3.org/2000/svg"><path d="M7.62225 8.41184C7.59954 8.33869 7.57829 8.27028 7.54445 8.20187L6.45369 7.46683C6.27189 7.37495 6.36279 7.00743 6.54458 6.91555L7.63535 6.2724C7.72625 5.99676 7.90804 5.72112 8.08984 5.44548L7.99894 3.79165C7.99894 3.51601 8.27163 3.33225 8.45343 3.42413L9.90778 3.97541C10.2714 3.79165 10.7259 3.60789 11.1803 3.51601L12.0893 2.13782C12.2711 1.95406 12.6347 1.95406 12.7256 2.13782L13.6346 3.51601C13.9073 3.51601 14.18 3.60789 14.3617 3.69977L15.7252 2.96473C15.9979 2.87286 16.2706 2.96473 16.2706 3.24037L16.3615 4.8942C16.6342 5.16984 16.816 5.44548 16.9978 5.72112L18.0885 6.08864C18.3612 6.18052 18.4521 6.45616 18.2703 6.63991L17.4522 7.65059C17.4316 7.71311 17.4063 7.77563 17.3806 7.83922C17.2929 8.05599 17.2002 8.28522 17.2705 8.56938C17.3614 9.02878 16.5433 9.21254 16.1797 8.9369C15.3616 8.29375 14.0891 7.65059 12.7256 7.65059C11.3621 7.65059 10.1805 8.01811 9.3624 8.66126C9.20016 8.70226 9.07411 8.87132 8.94389 9.04599C8.78227 9.26277 8.61421 9.48818 8.36253 9.48818C8.18073 9.3963 7.90804 9.02878 7.81715 8.84502C7.70303 8.672 7.66055 8.53518 7.62225 8.41184Z" fill="white"/><path d="M19.6225 13.9797C20.1221 14.5841 20.6597 15.2344 21.2699 15.9197C21.8234 16.6469 22.7474 17.4422 23.3651 17.9739C23.762 18.3155 24.0324 18.5483 23.9969 18.5842C23.9969 18.6412 23.6134 18.5923 23.2566 18.5469C23.0373 18.519 22.8281 18.4924 22.7243 18.4924C22.3906 18.4699 21.986 18.4089 21.5494 18.343C20.202 18.1397 18.5487 17.8903 17.725 18.5842C17.6795 18.6302 17.5432 18.745 17.4068 18.8599C17.2705 18.9747 17.1341 19.0896 17.0887 19.1355C13.7255 22.7188 13.0892 23.2701 11.8166 22.9026C11.7727 22.8804 11.7288 22.8635 11.6887 22.8482C11.5629 22.8 11.475 22.7663 11.5439 22.6269C12.0893 21.7082 14.8162 15.2766 13.4528 13.3471C12.2441 11.6811 9.93949 12.9354 7.30177 14.371C5.57554 15.3105 3.70663 16.3277 1.90884 16.6548C1.54525 16.6548 0 16.5629 0 16.5629C4.23206 15.3337 6.30343 13.4202 7.9416 11.907C9.36454 10.5926 10.4606 9.58006 12.362 9.58006C15.9854 9.58006 17.4431 11.3434 19.6225 13.9797Z" fill="white"/></svg>