<svg width="24" height="24" viewBox="0 0 24 24" fill="none" xmlns="http://www.w3.org/2000/svg"><path d="M20.9305 8.90459C20.0177 10.0919 19.3538 10.6855 18.1921 10.5159C18.773 5.34276 12.9642 6.0212 12.0513 0C10.9726 6.0212 5.24675 5.34276 5.82763 10.5159C4.66587 10.6007 4.00201 10.0071 3.0892 8.90459C2.5913 13.3993 4.16797 17.8092 8.06817 19.6749C8.64905 20.0989 9.89379 20.6078 10.8066 21.0318V23.4912C10.8066 23.7456 11.0556 24 11.3045 24H12.7152C12.9642 24 13.2131 23.7456 13.2131 23.4912V20.947C14.2089 20.523 15.8686 19.7597 16.4494 19.3357C16.8644 19.0813 17.1963 18.9117 17.5282 18.5724C18.524 17.894 19.1879 17.0459 19.6028 16.1131C20.7646 14.0777 21.1795 11.5336 20.9305 8.90459ZM15.1217 13.4841C15.1217 13.4841 12.0513 15.9435 11.9684 15.9435L8.81502 13.4841C8.48309 13.1449 8.31712 12.8905 8.31712 12.3816C8.31712 11.8728 8.48309 11.4488 8.81502 11.1095C9.14695 10.7703 9.56186 10.6007 10.0598 10.6007C10.5577 10.6007 10.9726 10.7703 11.3045 11.1095L11.9684 11.788L12.6322 11.1095C12.9642 10.7703 13.3791 10.6007 13.877 10.6007C14.3749 10.6007 14.7898 10.7703 15.1217 11.1095C15.7856 11.8728 15.7856 12.8057 15.1217 13.4841Z" fill="white"/></svg>