<svg width="24" height="24" viewBox="0 0 24 24" fill="none" xmlns="http://www.w3.org/2000/svg"><path d="M6.09612 8.87368C1.49782 17.0561 5.50279 21.8421 8.24693 23C8.24693 23 7.06028 17.6737 11.9552 15.1263C14.1061 15.5123 10.2494 18.1368 11.9552 19.0632C12.5486 19.6035 15.441 16.6702 16.2569 16.4386C16.7019 17.2105 16.4052 22.8456 16.331 23C18.6302 20.7614 20.2618 17.8281 19.9652 15.2807C20.0393 12.7333 18.1852 10.0316 16.9985 7.87018C16.331 6.71228 16.0344 5.16842 16.0344 5.16842C15.1444 4.16491 15.3669 8.02456 15.3669 8.56491C11.4361 6.94386 11.8811 3.08421 11.6586 1C6.61528 4.16491 8.17277 8.95088 7.95027 11.5754C6.09612 10.6491 7.13444 8.25614 6.09612 8.87368Z" fill="white"/></svg>