<svg width="24" height="24" viewBox="0 0 24 24" fill="none" xmlns="http://www.w3.org/2000/svg"><path d="M15.2261 13.9664L23 12.3339L15.2261 10.6272C14.9152 10.0336 14.4488 9.58834 13.8269 9.29152L12.1166 1.5L10.1731 9.29152C9.62897 9.58834 9.0848 10.0336 8.77385 10.6272L1 12.2597L8.77385 13.9664C9.0848 14.5601 9.62897 15.0795 10.3286 15.3763L11.9611 22.5L13.6714 15.4505C14.371 15.1537 14.9152 14.6343 15.2261 13.9664Z" fill="white"/><path d="M16.7809 9.3658L19.424 4.9135L14.9929 7.9559C15.7703 8.25272 16.3922 8.77216 16.7809 9.3658Z" fill="white"/><path d="M8.77385 7.8817L4.10954 5.35873L7.29682 9.58841C7.53003 8.84636 8.0742 8.25272 8.77385 7.8817Z" fill="white"/><path d="M4.49823 19.8286L7.14134 15.3763C7.53003 15.9699 8.15194 16.5635 8.92933 16.7861L4.49823 19.8286Z" fill="white"/><path d="M19.8127 19.3833L15.1484 16.8604C15.8481 16.4893 16.3922 15.8957 16.6254 15.1536L19.8127 19.3833Z" fill="white"/></svg>