<svg width="24" height="24" viewBox="0 0 24 24" fill="none" xmlns="http://www.w3.org/2000/svg"><path d="M20.7003 14.0638C20.7003 14.0638 19.7805 15.1188 17.4808 15.1188C16.101 15.1188 15.0279 14.0638 15.0279 12.7075C15.0279 11.3511 16.101 10.2962 17.4808 10.2962C18.2474 10.2962 18.9373 10.673 19.3972 11.2004H19.4739C21.6202 8.63847 21.1603 6.45326 18.9373 4.4941C16.0244 2.15818 13.1882 2.83635 10.4286 4.6448C7.43902 6.67931 7.28571 9.09058 1 10.0702C2.22648 16.7765 5.98258 21.1469 11.6551 20.9962C8.05226 16.1737 5.82927 9.01523 14.4146 7.13143C7.59233 11.0497 13.6481 19.7152 15.3345 20.1673C16.4077 20.2427 22.9233 14.1392 23 13.9885C21.007 14.0638 20.7003 14.0638 20.7003 14.0638Z" fill="white"/></svg>