<svg width="24" height="24" viewBox="0 0 24 24" fill="none" xmlns="http://www.w3.org/2000/svg"><path fill-rule="evenodd" clip-rule="evenodd" d="M17.7226 1.11732L20.1199 6.04486C20.1199 6.20129 20.1199 6.35772 19.8879 6.27951L19.5013 6.51415L17.4133 7.68738C17.1813 7.84381 17.0266 8.07845 17.0266 8.3131V13.3189C17.0266 13.3521 17.0266 13.3712 17.0207 13.3882C17.0127 13.4112 16.9938 13.4303 16.9493 13.4753L16.7946 13.6317L14.8613 15.4307L14.088 16.2128C13.9333 16.291 13.856 16.5257 13.856 16.6821V20.9057C13.856 21.0621 13.856 21.2186 13.7013 21.375L13.4693 21.6096C13.3147 21.6879 13.16 21.7661 13.0053 21.7661H11.1494C10.9947 21.7661 10.84 21.7661 10.6854 21.6096L10.4534 21.375C10.376 21.2186 10.2987 21.0621 10.2987 20.9057V16.6821C10.2987 16.5257 10.2214 16.3692 10.0667 16.2128L8.13339 14.3357L7.36007 13.6317L7.2054 13.4753C7.12807 13.4753 7.12807 13.3971 7.12807 13.3189V8.39131C7.12807 8.15667 6.9734 7.92202 6.74141 7.76559L4.65343 6.59237L4.26677 6.35773C4.18944 6.27951 4.1121 6.12308 4.18944 6.04486L6.20008 2.0559L6.35475 1.89947L6.74141 1.11732C6.81874 0.960893 7.05074 0.960893 7.12807 1.11732L7.51473 1.89947L10.0667 6.59237C10.2214 6.82701 10.4534 6.98344 10.6854 6.98344H13.7013C13.9333 6.98344 14.1653 6.82701 14.32 6.59237L17.3359 1.11732C17.4133 0.960893 17.6453 0.960893 17.7226 1.11732ZM10.84 13.3971H11.304V11.911C11.304 11.911 10.6854 11.911 9.98937 11.6763C9.29338 11.4417 8.52005 10.7378 8.52005 10.7378C8.52005 10.7378 8.52005 12.2238 9.37071 12.9278C9.68004 13.1624 10.144 13.3971 10.84 13.3971ZM13.392 13.3971C14.088 13.3971 14.552 13.1624 14.8613 12.9278C15.712 12.2238 15.712 10.6595 15.712 10.6595C15.712 10.6595 14.8613 11.3635 14.2427 11.5981C13.5467 11.8328 12.928 11.8328 12.928 11.8328V13.3971H13.392Z" fill="white"/><path d="M21.9759 15.4306C21.4346 15.8216 20.7386 15.6652 20.3519 15.1177L16.6399 17.777L19.7332 19.967C19.7332 19.8106 19.8106 19.6542 19.8879 19.4977C20.1972 19.1067 20.5839 18.872 21.0479 18.9502C21.6666 19.0284 22.1305 19.6542 22.0532 20.2799C21.9759 20.9056 21.3572 21.3749 20.7386 21.2967C20.8932 21.6877 20.8932 22.157 20.6612 22.4699C20.2746 23.0174 19.5786 23.1738 19.0373 22.7828C18.4959 22.3917 18.3413 21.6877 18.7279 21.1402V21.062L14.7066 18.5592V17.0731H14.784L19.5786 13.7098C19.5552 13.6861 19.5247 13.6625 19.4914 13.6366C19.4147 13.5771 19.3232 13.506 19.2692 13.397C19.0373 13.0059 18.9599 12.5366 19.1919 12.1455C19.5012 11.598 20.2746 11.3634 20.8159 11.6762C21.3572 11.9891 21.5892 12.7712 21.2799 13.3187C21.6666 13.2405 22.0532 13.4752 22.2852 13.788C22.6719 14.3355 22.5172 15.0395 21.9759 15.4306Z" fill="white"/><path d="M4.42142 13.7098L9.21603 17.0731L9.29337 18.5592L5.27208 21.062V21.1402C5.65874 21.6877 5.50408 22.3917 4.96275 22.7828C4.42142 23.1738 3.72543 23.0174 3.33877 22.4699C3.10677 22.0788 3.10677 21.6877 3.26144 21.2967C2.64278 21.3749 2.02412 20.9056 1.94679 20.2799C1.86945 19.5759 2.33345 19.0284 2.95211 18.7938C3.4161 18.7938 3.8801 18.9502 4.11209 19.3413C4.18943 19.4977 4.26676 19.6542 4.26676 19.8106L7.36005 17.6206L3.6481 15.0395V15.1177C3.26144 15.6652 2.56544 15.8216 2.02412 15.4306C1.48279 15.0395 1.32813 14.3355 1.71479 13.788C1.94679 13.4752 2.33345 13.3187 2.72011 13.3187C2.41078 12.693 2.64278 11.9891 3.1841 11.6762C3.80276 11.3634 4.49876 11.598 4.80808 12.1455C5.04008 12.5366 4.96275 13.0059 4.73075 13.397C4.70734 13.4206 4.68392 13.4515 4.65836 13.4852C4.5995 13.5627 4.52926 13.6553 4.42142 13.7098Z" fill="white"/></svg>