<svg width="24" height="24" viewBox="0 0 24 24" fill="none" xmlns="http://www.w3.org/2000/svg"><path d="M8.37253 8.51219C5.04307 6.90244 3 6.51916 3 6.51916C3 6.51916 3.30268 10.7352 4.13504 11.7317C5.87544 13.7247 11.021 18.7073 14.8044 23C14.2747 18.554 9.73458 9.12543 8.37253 8.51219ZM8.37253 1.76655C8.52387 2.5331 8.75088 4.98606 8.97789 5.75261C10.1886 10.2753 14.1234 12.0383 18.6636 20.0105C16.8475 12.8049 16.9232 5.52265 8.37253 1.76655ZM16.2422 1C15.3341 9.27875 19.0419 9.12543 20.9337 16.561C21.0093 8.35888 21.6903 5.44599 16.2422 1Z" fill="white"/></svg>