<svg width="24" height="24" viewBox="0 0 24 24" fill="none" xmlns="http://www.w3.org/2000/svg"><path d="M19.1406 19.3193C19.0806 19.5797 19.0188 19.848 18.9788 20.1582C19.2006 20.0866 19.2746 20.0151 19.4225 19.8719C22.8986 17.0083 24.008 11.9254 22.0111 7.98789C20.1621 4.40838 17.1298 2.47545 13.062 2.04591C10.2515 1.75955 8.69836 2.8334 7.81084 4.69474C6.55353 7.27199 8.03272 10.1356 11.0651 10.9231C11.3302 10.9744 11.5954 11.0217 11.8595 11.0687C12.7005 11.2186 13.5313 11.3666 14.3193 11.639C17.2037 12.5697 19.6444 14.9321 19.2746 18.6548C19.2407 18.8845 19.1913 19.0991 19.1406 19.3193Z" fill="white"/><path fill-rule="evenodd" clip-rule="evenodd" d="M4.6547 6.06055C4.67953 5.67876 4.70453 5.29425 4.70453 4.90975C2.41178 6.84269 1.0805 9.27675 1.00654 12.212C0.858623 16.7221 3.22533 20.3732 7.44104 22.163C9.21607 22.9505 11.0651 23.1653 12.9141 22.8789C14.7631 22.5209 16.1683 20.8744 16.4641 19.013C16.76 17.1517 15.9464 15.4335 14.2453 14.646C13.1359 14.1449 11.8786 13.8585 10.6213 13.5722C7.66294 12.7847 5.37017 11.3529 4.70453 8.27449C4.55713 7.56111 4.60557 6.81613 4.6547 6.06055ZM11.9526 20.3732C7.1452 20.588 3.29929 16.5074 3.66909 12.3551C3.97525 12.5976 4.27094 12.8603 4.56797 13.1243C5.06025 13.5617 5.55624 14.0025 6.10977 14.3597C7.66292 15.5051 9.51191 16.0062 11.4349 16.2926C11.8786 16.3642 12.3224 16.5074 12.6922 16.6505C13.6537 17.0801 14.0974 17.8676 13.8755 18.7983C13.7276 19.5142 13.062 20.3016 11.9526 20.3732Z" fill="white"/></svg>