<svg width="24" height="24" viewBox="0 0 24 24" fill="none" xmlns="http://www.w3.org/2000/svg"><path d="M10.0769 16.4295L7.38462 13.4765C6.84615 12.8859 6.38462 13.4027 6.38462 13.4027C6 13.7718 6.38462 14.2886 6.38462 14.2886L7.92308 16.2081C8.15385 16.4295 7.84615 16.651 7.84615 16.651C6.07692 16.4295 5.30769 15.396 4.92308 14.1409C4.69231 13.4765 4.69231 12.0738 4.69231 12.0738C4.69231 10.8188 3.92308 10.745 3.38462 10.8188C3.15385 10.8188 3 11.0403 3 11.1879V14.7315C3.30769 18.8658 5.84615 20.3423 6.84615 20.7852C7.07692 20.8591 7.23077 21.0805 7.23077 21.302V22.4094C7.23077 22.7047 7.53846 23 7.84615 23H10C10.3077 23 10.6154 22.7047 10.6154 22.4094V17.906C10.6154 17.3154 10.4615 16.8725 10.0769 16.4295ZM20.6154 10.745C20.1538 10.6711 19.3846 10.745 19.3077 12C19.3077 12 19.3077 13.4765 19.0769 14.0671C18.6154 15.396 17.8462 16.3557 16.1538 16.5772C16.1538 16.5772 15.8462 16.4295 16.0769 16.1342L17.6154 14.2148C17.6154 14.2148 18.0769 13.698 17.6154 13.3289C17.6154 13.3289 17.1538 12.8859 16.6154 13.4027L13.9231 16.3557C13.5385 16.7248 13.3846 17.2416 13.3846 17.7584V22.2617C13.3846 22.557 13.6923 22.8523 14 22.8523H16.1538C16.4615 22.8523 16.7692 22.557 16.7692 22.2617V21.1544C16.7692 20.9329 16.9231 20.7114 17.1538 20.6376C18.1538 20.1946 20.6923 18.7181 21 14.5839V11.0403C21 10.9664 20.8462 10.8188 20.6154 10.745ZM18.5385 9.48993H17.8462C17.6923 9.19463 17.4615 9.04698 17.0769 9.04698H13.3846V8.16107C14.8462 7.6443 15.8462 6.31544 15.8462 4.69128C15.8462 2.62416 14.1538 1 12 1C9.84615 1 8.15385 2.62416 8.15385 4.69128C8.15385 6.24161 9.15385 7.57047 10.6154 8.16107V9.04698H6.92308C6.61538 9.04698 6.30769 9.26846 6.15385 9.48993H5.53846V9.85906L12 16.4295L18.4615 9.85906V9.48993H18.5385Z" fill="white"/></svg>