<svg width="24" height="24" viewBox="0 0 24 24" fill="none" xmlns="http://www.w3.org/2000/svg"><path d="M12.462 1.03306C10.8792 0.883118 9.44705 1.25798 8.31645 1.85777C6.50748 2.75745 5.37687 4.85669 5 7.55573H8.99481C9.07018 6.80599 9.37168 6.13124 9.8993 5.45648C10.4269 4.78172 11.256 4.48183 12.3113 4.63177C13.3665 4.78172 14.0449 5.15659 14.4217 5.75637C14.7232 6.35616 14.874 7.03091 14.7986 7.70567C14.7232 8.30546 14.4971 8.83027 14.0449 9.28011C13.8187 9.50503 13.5172 9.72995 13.1404 9.95487L12.0851 10.6296C11.0299 11.3044 10.4269 11.9042 10.05 12.429C9.56926 13.0865 9.47182 13.8394 9.33745 14.8777C9.3033 15.1416 9.26676 15.4239 9.22093 15.7278H12.9142C12.9896 14.9781 13.1404 14.6782 13.2911 14.3783C13.5172 13.8535 13.8941 13.4786 14.4971 13.1037L15.5523 12.429C16.6076 11.7542 17.3613 11.2294 17.7382 10.7796C18.4165 10.1048 18.7934 9.13016 18.9441 7.93059C19.1703 6.05626 18.718 4.48183 17.4367 3.35723C16.1553 2.15766 14.4971 1.25798 12.462 1.03306Z" fill="white"/><path d="M13.3665 20.6009C13.3665 21.9259 12.2866 23 10.9545 23C9.62245 23 8.54258 21.9259 8.54258 20.6009C8.54258 19.2759 9.62245 18.2017 10.9545 18.2017C12.2866 18.2017 13.3665 19.2759 13.3665 20.6009Z" fill="white"/></svg>