<svg width="24" height="24" viewBox="0 0 24 24" fill="none" xmlns="http://www.w3.org/2000/svg"><path d="M5.46672 9.46154C5.46672 9.38796 5.54086 9.2408 5.39259 9.2408C5.17018 9.16722 4.57709 9.53512 4.42881 9.6087C4.05813 10.0502 1.61163 7.76923 1.16681 7.03345C0.944398 6.73913 0.944398 6.51839 1.16681 6.1505C1.83404 4.89967 5.615 1.95652 7.17186 1.14716C7.32013 1.07358 7.46841 1.07358 7.61668 1C7.69082 1.51505 7.17186 4.23746 7.39427 4.31104C7.61668 4.38462 7.69082 4.16388 7.83909 4.0903C8.58045 3.50167 9.39596 3.0602 10.3597 2.83946C12.4356 2.32441 14.3631 2.76589 16.0682 4.01672C16.2165 4.16388 16.3648 4.38462 16.5131 4.31104C16.8096 4.23746 16.5131 1.95652 16.2165 1.07358C16.3648 1 16.5131 1 16.7355 1.14716C19.1078 2.47157 21.3319 3.94314 22.8888 6.22408C23.0371 6.51839 23.0371 6.66555 22.8888 6.88629C22.3698 7.69565 21.3319 8.79933 20.5164 9.38796C19.3302 10.2709 19.7009 9.97659 18.9596 9.38796C18.5147 9.09365 18.4406 9.31438 18.4406 9.75585C18.5889 11.6689 18.663 13.5819 18.8113 15.495C18.8113 16.0836 18.5889 16.4515 18.1441 16.7458C17.1803 17.4816 15.7717 18.0702 14.6596 18.7324C15.4751 18.8796 17.4768 18.0702 17.6251 18.0702C18.8113 17.7023 18.8113 17.7023 19.2561 18.8796C19.5527 19.5418 19.7751 20.204 19.7751 20.8662C19.7751 21.2341 18.2923 23 11.9907 23C7.39427 22.7793 3.98399 21.8227 4.13227 21.087C4.28054 20.1304 4.42881 19.0268 4.94777 18.2174C5.09604 17.9231 5.31845 17.7759 5.68913 17.9231C6.57877 18.1438 8.95114 18.7324 9.39596 18.6589C8.50632 18.2174 6.35636 17.0401 6.05981 16.893C5.39259 16.4515 4.94777 16.01 5.09604 15.2007L5.46672 9.46154ZM15.401 7.40134C15.6976 7.1806 15.7717 6.95987 15.4751 6.66555L14.8079 6.00334C12.8804 4.45819 10.2856 4.67893 8.72873 6.59197C8.35805 7.10702 8.43218 7.32776 8.95114 7.69565C11.1752 9.46154 14.3631 8.28428 15.401 7.40134Z" fill="white"/></svg>