<svg width="24" height="24" viewBox="0 0 24 24" fill="none" xmlns="http://www.w3.org/2000/svg"><g clip-path="url(#clip0_1854_128)"><path d="M7.24701 10C9.86201 9.04 13.688 4.4 15.419 2C15.323 3.6 15.419 4.4 15.419 4.4C15.419 4.4 19.914 2 21.14 2C18.28 3.6 17.462 6.8 17.462 6.8C17.462 6.8 20.226 5.6 21.452 6C20.226 6.8 19.914 9.2 19.914 10C22.202 10 23.592 11.6 24 12.4C22.502 12.8 20.226 14.4 20.226 14.4C20.226 14.4 21.86 17.6 22.269 18.8L19.817 17.2C15.731 14.8 11.741 19.6 10.924 22L5.61201 19.6C8.88101 17.6 13.122 14.978 12.15 13.6C11.178 12.222 8.33601 13.793 6.02101 15.126V17.2L3.97801 15.2V18C2.48001 17.6 -1.04499 15.2 0.300012 12.4C1.83801 9.2 3.97801 11.2 7.24601 10H7.24701Z" fill="white"/></g><defs><clipPath id="clip0_1854_128"><rect width="24" height="24" fill="white"/></clipPath></defs></svg>