<svg width="24" height="24" viewBox="0 0 24 24" fill="none" xmlns="http://www.w3.org/2000/svg"><path d="M6.8581 8.191C8.3081 6.832 9.7241 5.505 9.3861 1C14.2651 2.437 15.4841 7.884 15.4841 10.429C16.5291 9.711 17.0811 8.034 17.2261 7.286C24.1961 16.266 16.3551 23 11.9991 23C7.6431 23 2.1751 18.262 4.5941 11.326C5.1201 9.819 5.9951 8.999 6.8571 8.19L6.8581 8.191ZM11.6851 13.571C11.3951 14.319 10.8141 14.918 9.5071 16.264C8.5331 17.268 9.0711 20.305 11.6851 20.305C14.2991 20.305 14.7341 17.611 13.8631 16.264C13.1661 15.186 12.1211 14.019 11.6851 13.57V13.571Z" fill="white"/></svg>