<svg width="24" height="24" viewBox="0 0 24 24" fill="none" xmlns="http://www.w3.org/2000/svg"><path d="M10.8619 1H13.1381V5.62019L15.7828 3.19551L17.321 4.87308L13.1381 8.70765V10.8619H15.6719L19.5064 6.67899L21.184 8.21722L18.7593 10.8619H23V13.1381H18.7593L21.184 15.7828L19.5064 17.321L15.6719 13.1381H13.1381V15.8616L17.321 19.6962L15.7828 21.3738L13.1381 18.9491V23H10.8619V18.9491L8.21722 21.3738L6.67899 19.6962L10.8619 15.8616V13.1381H8.70765L4.87308 17.321L3.19551 15.7828L5.62019 13.1381H1V10.8619H5.62019L3.19551 8.21722L4.87308 6.67899L8.70765 10.8619H10.8619V8.70765L6.67899 4.87308L8.21722 3.19551L10.8619 5.62019V1Z" fill="white"/></svg>