<svg width="24" height="24" viewBox="0 0 24 24" fill="none" xmlns="http://www.w3.org/2000/svg"><path d="M8.22955 3L19.2228 9.75052C21.7456 11.5928 23.8439 16.0499 19.4489 20.7645L19.2228 21L15.9252 18C16.9025 17.3751 18.6371 15.5998 17.7575 13.5C17.1471 14.0003 15.5594 14.6996 14.093 13.5C12.6791 12.3433 13.197 10.8601 13.6738 10.1954L13.7262 10.1253L6.76419 5.25052L8.22955 3ZM8.22339 7.63398L11.0277 9.5977L10.2745 10.1253C10.7626 10.7502 11.373 12.3004 9.90762 13.5C8.44227 14.6996 6.8536 14.0003 6.2432 13.5C5.57012 15.1078 6.4292 16.5262 7.3078 17.3824C7.66129 17.7278 7.70959 18.3329 7.34376 18.6657L5.2937 20.53C5.22565 20.5936 5.14595 20.643 5.05916 20.6752C4.97237 20.7074 4.8802 20.7219 4.78791 20.7178C4.69562 20.7138 4.60503 20.6912 4.52131 20.6514C4.43759 20.6116 4.36239 20.5554 4.30001 20.486C0.238936 15.8761 2.30338 11.5572 4.77682 9.74948L8.22236 7.63398H8.22339ZM16.0948 3.50977L16.1595 3.59456L16.8357 4.63294C16.932 4.78162 16.9734 4.96023 16.9527 5.13709C16.9321 5.31394 16.8505 5.47762 16.7227 5.59909L16.6394 5.66818L15.7403 6.29623L13.0706 4.65806L15.173 3.36741C15.3189 3.27785 15.4908 3.24306 15.6592 3.26906C15.8275 3.29506 15.9816 3.38021 16.0948 3.50977Z" fill="white"/></svg>