<svg width="24" height="24" viewBox="0 0 24 24" fill="none" xmlns="http://www.w3.org/2000/svg"><g clip-path="url(#clip0_1854_179)"><path d="M15.0216 0.952163C9.62463 -2.40784 5.28763 3.91816 4.68863 7.62616C2.89163 14.7452 4.68862 18.7502 9.18062 19.6402C10.9706 19.9952 12.3646 19.4152 13.5226 18.9342C14.6446 18.4682 15.5446 18.0932 16.3686 18.7502C18.0426 20.0852 17.1446 24.0902 12.7746 23.6452C17.8066 25.0692 19.6626 21.8652 19.9626 20.0852C20.4116 14.7452 16.6956 12.0762 13.5506 11.6312C13.5506 11.6312 20.7386 4.51216 15.0216 0.952163ZM10.4806 4.35616C10.2386 5.05316 9.66162 5.48916 9.19263 5.32916C8.72363 5.16916 8.53963 4.47416 8.78163 3.77716C9.02363 3.08016 9.60063 2.64416 10.0696 2.80416C10.5386 2.96416 10.7226 3.65916 10.4806 4.35616ZM12.9006 7.94116C12.5516 7.59116 12.6986 6.88816 13.2286 6.37016C13.7586 5.85216 14.4706 5.71616 14.8186 6.06516C15.1676 6.41516 15.0206 7.11816 14.4906 7.63616C13.9606 8.15416 13.2486 8.29016 12.9006 7.94116Z" fill="white"/></g><defs><clipPath id="clip0_1854_179"><rect width="24" height="24" fill="white"/></clipPath></defs></svg>