<svg width="24" height="24" viewBox="0 0 24 24" fill="none" xmlns="http://www.w3.org/2000/svg"><path d="M12 2V3.06C13.4107 2.68974 14.8616 2.49394 16.32 2.477C13.248 7.441 14.4 13.454 15.36 15.841H12L12.001 18.221C15.881 18.121 18.891 16.818 19.622 15.481L19.68 15.364L24 13.932C23.36 17.114 18.72 23 12.48 23C9.096 23 10.08 23 5.76 22.523C4.32 21.091 0.879 17.73 0 14.409C2.31 15.633 6.931 18.037 11.04 18.216V15.841H7.68C4.608 10.877 7.36 6.136 9.12 4.386C9.652 3.963 10.32 3.628 11.04 3.364V2H12Z" fill="white"/></svg>