<svg width="24" height="24" viewBox="0 0 24 24" fill="none" xmlns="http://www.w3.org/2000/svg"><g clip-path="url(#clip0_1854_205)"><path d="M5.53959 5H18.2146C20.0036 9.356 20.4516 16.278 20.4516 19H3.30259C3.30259 16.278 3.74959 9.356 5.53959 5ZM8.14859 9.667C8.76659 9.667 9.26659 9.145 9.26659 8.5C9.26659 7.855 8.76559 7.333 8.14859 7.333C7.53059 7.333 7.03059 7.855 7.03059 8.5C7.03059 9.145 7.53159 9.667 8.14859 9.667ZM16.7236 8.5C16.7236 7.856 16.2226 7.333 15.6056 7.333C14.9886 7.333 14.4876 7.855 14.4876 8.5C14.4876 9.144 14.9886 9.667 15.6056 9.667C16.2226 9.667 16.7236 9.145 16.7236 8.5ZM17.4686 14.333H6.28459V17.055H17.4686V14.333ZM2.95159 11.556C2.6215 11.4393 2.26776 11.4056 1.92159 11.458C0.698591 11.64 -0.151409 12.822 0.0225912 14.097C0.188591 15.311 1.22259 16.173 2.37659 16.097L2.95159 11.557V11.556ZM22.0786 11.37C21.7324 11.3182 21.3788 11.3518 21.0486 11.468L21.6236 16.008C22.7776 16.084 23.8116 15.223 23.9776 14.008C24.1516 12.732 23.3016 11.551 22.0786 11.369V11.37Z" fill="white"/></g><defs><clipPath id="clip0_1854_205"><rect width="24" height="24" fill="white"/></clipPath></defs></svg>