<svg width="24" height="24" viewBox="0 0 24 24" fill="none" xmlns="http://www.w3.org/2000/svg"><path d="M12.833 2.139C17.41 2.139 20.87 7.977 17.1 12.738C18.2723 13.1909 19.3304 13.8967 20.199 14.805C21.643 16.321 22.75 18.622 22.75 22H21.25C21.25 18.979 20.273 17.057 19.113 15.84C18.161 14.8438 16.9368 14.15 15.593 13.845L14.218 13.552L15.227 12.573H15.228C19.352 8.574 16.293 3.639 12.833 3.639V2.139ZM11.167 2V21.556H2C2 15.156 6.167 12.667 8.25 12.223V12.222C3.667 7.778 7 2 11.167 2Z" fill="white"/></svg>