<svg width="24" height="24" viewBox="0 0 24 24" fill="none" xmlns="http://www.w3.org/2000/svg"><path d="M16.4103 13.2592C16.495 14.7969 16.3255 16.8471 14.2072 17.9577C11.0721 19.5808 6.66596 18.8119 4.63236 16.42C3.9545 15.4803 3.36137 14.4552 3.1919 13.2592C2.76824 11.3799 3.10717 9.50051 3.61557 7.70656C4.54763 4.37495 6.92015 2.75185 10.14 2.15387C13.8683 1.47046 18.0202 3.09356 20.308 6.42517C20.0843 6.31244 19.8784 6.20566 19.684 6.10483C19.1416 5.82362 18.6886 5.5887 18.1896 5.40006C16.1561 4.46037 14.0377 3.94782 11.7499 4.03324C8.19115 4.20409 5.81863 7.27943 6.32702 11.0382C6.39475 11.6527 6.57073 11.9943 6.89822 12.6301C6.98048 12.7898 7.07229 12.968 7.17435 13.1738C8.86901 15.7366 12.3431 15.7366 13.6141 13.1738C13.8683 12.405 13.6141 11.7216 12.682 11.5507C12.5125 11.5507 12.1736 11.4653 12.1736 11.209C12.0889 10.9527 12.3431 10.6965 12.5973 10.611C13.4446 10.2693 14.2919 10.3548 15.0545 10.9527C15.7324 11.4653 16.3255 12.3196 16.4103 13.2592Z" fill="white"/><path d="M10.8179 5.65609C12.9362 4.88725 15.0545 5.0581 17.1728 5.91236C19.7996 7.10833 21.1553 10.4399 20.9858 12.9173C20.9011 17.872 18.698 20.7765 14.7156 21.7162C10.3942 22.7413 5.47969 20.8619 4.54763 18.1283C5.90335 18.6408 7.25909 19.1534 8.61481 19.5805C10.7331 20.2639 12.8515 20.4348 14.8851 19.4097C17.5118 18.0429 18.1049 15.6509 17.8507 12.9173C17.7006 12.0851 17.4841 11.6549 17.2011 11.0927C17.1645 11.0201 17.1269 10.9452 17.0881 10.8671C16.2408 8.81685 12.8515 8.21887 11.3263 9.84196C10.3942 10.8671 10.4789 11.7213 11.6652 12.4047C11.6858 12.4151 11.7076 12.4255 11.73 12.4361C11.8926 12.5134 12.0889 12.6067 12.0889 12.8319C12.0889 13.1315 11.8282 13.2998 11.5927 13.4519C11.5596 13.4732 11.527 13.4942 11.4957 13.5153C10.6484 13.857 9.37741 13.5153 8.78428 12.7464C6.58122 10.0128 7.51328 6.76662 10.8179 5.65609Z" fill="white"/></svg>