<svg width="24" height="24" viewBox="0 0 24 24" fill="none" xmlns="http://www.w3.org/2000/svg"><path d="M11.6321 6.61334C12.6401 6.69934 13.5401 5.73735 13.6431 4.46535C13.7461 3.19335 13.0131 2.09135 12.0051 2.00535C10.9971 1.91935 10.0971 2.88135 9.99411 4.15335C9.89111 5.42534 10.6241 6.52734 11.6321 6.61334ZM8.12711 6.05434C8.19811 7.71534 7.43611 9.09834 6.42611 9.14434C5.41611 9.19034 4.54011 7.88034 4.46911 6.21934C4.39811 4.55834 5.16011 3.17535 6.17011 3.12935C7.18011 3.08335 8.05611 4.39334 8.12711 6.05434ZM12.8731 9.84934C11.9221 9.28534 10.1441 9.53335 8.23711 10.5753C6.85311 11.3313 5.78111 11.3773 4.90311 11.4163C3.84511 11.4623 3.06911 11.4963 2.36811 12.7423C1.32311 14.6013 2.50311 16.8673 5.90711 17.8373C6.60711 18.0363 7.30011 18.2753 7.92911 18.6493C8.55811 19.0233 9.10611 19.5203 9.62411 20.0433C12.1431 22.5873 14.6421 22.5043 15.6871 20.6453C16.3871 19.3993 16.0271 18.6913 15.5371 17.7263C15.1301 16.9253 14.6331 15.9483 14.5781 14.3393C14.5021 12.1223 13.8231 10.4153 12.8721 9.85135L12.8731 9.84934ZM17.9181 8.97234C16.8551 9.70234 15.5381 9.59334 14.9761 8.72934C14.4141 7.86535 14.8211 6.57335 15.8841 5.84335C16.9471 5.11335 18.2641 5.22234 18.8261 6.08634C19.3881 6.95034 18.9811 8.24234 17.9181 8.97234ZM17.0821 14.7153C17.6811 15.6373 19.2141 15.6653 20.5061 14.7783C21.7981 13.8913 22.3601 12.4253 21.7611 11.5043C21.1621 10.5823 19.6291 10.5543 18.3371 11.4413C17.0451 12.3283 16.4831 13.7943 17.0821 14.7163V14.7153Z" fill="white"/></svg>