<svg width="24" height="25" viewBox="0 0 24 25" fill="none" xmlns="http://www.w3.org/2000/svg"><path d="M19.7778 14.9337C17.7556 15.4247 15.9333 15.2326 14.2 14.336C15.8889 12.6067 17.7111 10.8989 18.6 10.664C21.1111 10.0449 22.3333 10.7921 24 12.6281C24 12.6281 22.5111 4.98539 15.8889 3C15.8889 3 17.2222 6.09551 15.8 8.23034C14.5333 10.1517 13.2667 11.6674 11.9778 12.7989C10.6889 11.6674 9.42222 10.1303 8.15556 8.23034C6.73333 6.09551 8.06667 3 8.06667 3C1.48889 5.00674 0 12.6494 0 12.6494C1.66667 10.8135 2.91111 10.0663 5.4 10.6854C6.28889 10.8989 10.8667 16.0652 12.4 17.5382C10.1333 17.5809 8.48889 15.873 7.42222 15.1258C6.4 15.2753 5.33333 15.2112 4.22222 14.9337L12 22L19.7778 14.9337Z" fill="white"/></svg>