<svg width="24" height="25" viewBox="0 0 24 25" fill="none" xmlns="http://www.w3.org/2000/svg"><path d="M21.4646 8.53704C21.2184 15.0759 17.1142 15.7481 17.1142 15.7481C18.2428 14.6685 19.6793 13.1 20.1718 9.75926C20.6028 6.86667 20.1923 4.68704 17.1142 3.56667C17.6888 12.2037 14.6106 14.1796 14.6106 14.1796C15.5751 10.2889 16.3549 1 12.4969 1C8.63897 1 9.41877 10.2889 10.3833 14.2C10.3833 14.2 7.3051 12.2037 7.87969 3.58704C4.80153 4.68704 4.41163 6.88704 4.82205 9.77963C5.31455 13.1204 6.75103 14.6685 7.87969 15.7481C7.87969 15.7481 3.77547 15.0963 3.52922 8.53704C1.33346 10.5741 0.779396 15.2185 6.85363 18.8852C6.85363 19.5981 6.99728 20.1278 7.28458 20.5352C7.57187 20.9426 7.98229 21.2074 8.45428 21.2889C8.5774 21.3093 8.70053 21.3296 8.80314 21.3296C9.21356 21.3296 9.60346 21.2074 9.95231 20.963C10.1165 21.4111 10.3217 21.7778 10.5679 22.063C11.081 22.6741 11.7376 23 12.4969 23C13.2562 23 13.9334 22.6741 14.4259 22.063C14.6722 21.7574 14.8774 21.3907 15.0415 20.963C15.3699 21.2074 15.7598 21.3296 16.1907 21.3296C16.3138 21.3296 16.437 21.3093 16.5396 21.2889C17.0116 21.2074 17.4425 20.9426 17.7093 20.5352C17.9966 20.1278 18.1402 19.5981 18.1402 18.8852C24.235 15.1981 23.6604 10.5537 21.4646 8.53704Z" fill="white"/></svg>