<svg width="24" height="25" viewBox="0 0 24 25" fill="none" xmlns="http://www.w3.org/2000/svg"><path fill-rule="evenodd" clip-rule="evenodd" d="M15.6444 4.85546L12 2L8.35556 4.85546L6.31111 19.6499L12 23L17.6889 19.6499L15.6444 4.85546ZM12 20.1221V16.637L9.28889 12.4325L10.5778 6.24947L12 5.14775L13.4222 6.24947L13.4444 6.38437L12.7333 9.8469L14.8444 13.1296L15.8222 17.8512L12 20.1221Z" fill="white"/><path d="M4.6 8.22805L2.95555 6.72163L1.31111 8.22805L0 15.94L2.82222 17.6039L2.95555 17.6713L3.11111 17.6039L5.93333 15.94L4.6 8.22805Z" fill="white"/><path d="M21.0444 6.72163L19.4 8.22805L18.0667 15.94L20.8889 17.6039L21.0444 17.6713L21.1778 17.6039L24 15.94L22.6889 8.22805L21.0444 6.72163Z" fill="white"/></svg>