<svg width="24" height="25" viewBox="0 0 24 25" fill="none" xmlns="http://www.w3.org/2000/svg"><path fill-rule="evenodd" clip-rule="evenodd" d="M16.0612 1.11071C16.0612 1.11071 18.8163 0.519792 20.5102 2.06839C22.2041 3.617 22.8163 5.30823 22.8163 5.30823C22.8707 5.41691 22.907 5.52558 22.9433 5.63425C22.9614 5.68859 22.9796 5.74293 23 5.79727C22.6939 5.63426 22.3265 5.34899 21.8571 4.94146C20.3673 3.65775 18.3673 3.20947 18.9796 5.65463C17.8367 5.02296 17.2245 5.5935 16.898 6.20479C17.4898 6.40856 18.0612 6.6327 18.6122 6.91797C20.7347 7.97754 22.0612 10.1374 22.0612 12.5011V13.255C21.4694 13.3161 20.7959 13.6014 20.0204 13.9682C19.4286 12.0324 17.3265 11.6045 17.3265 11.6045C17.7143 14.1108 16.5918 15.3334 15.5918 15.9243C14.4898 16.2707 13.2857 16.5152 12 16.5152C10.6939 16.5152 9.5102 16.2707 8.40816 15.9243C7.40816 15.3334 6.28571 14.1108 6.67347 11.6045C6.67347 11.6045 4.57143 12.0324 3.97959 13.9682C3.20408 13.6014 2.53061 13.3161 1.93878 13.255V12.5011C1.93878 10.1374 3.26531 7.97754 5.38775 6.91797C5.95918 6.65307 6.53061 6.40856 7.10204 6.20479C6.77551 5.5935 6.16326 5.04334 5.02041 5.65463C5.63265 3.20947 3.63265 3.65775 2.14286 4.94146C1.65306 5.34899 1.28571 5.61388 1 5.79727L1.18367 5.30823C1.18367 5.30823 1.79592 3.617 3.4898 2.06839C5.18367 0.519792 7.93878 1.11071 7.93878 1.11071C7.93878 1.11071 5.71428 4.16716 9.30612 5.61388C11.0816 5.28786 12.9184 5.28786 14.6939 5.61388C18.2857 4.16716 16.0612 1.11071 16.0612 1.11071ZM6.93878 8.07942C6.89796 8.9556 7.30612 9.83178 8.06122 10.4023C8.81633 10.9932 9.77551 11.1155 10.6327 10.8506C10.6735 9.95404 10.2653 9.07786 9.5102 8.50732C8.73469 7.93678 7.77551 7.81452 6.93878 8.07942ZM15.9388 10.4023C16.6939 9.83178 17.102 8.9556 17.0612 8.07942C16.2245 7.79415 15.2653 7.93678 14.4898 8.48694C13.7347 9.05748 13.3469 9.95404 13.3673 10.8302C14.2245 11.0951 15.1837 10.9729 15.9388 10.4023Z" fill="white"/><path d="M22.0612 13.255L22.0612 14.8647C22.0612 17.2284 20.7347 19.3883 18.6122 20.4479L14.8163 22.3429C13.0408 23.219 10.9796 23.219 9.20407 22.3429L5.40815 20.4479C3.2857 19.3883 1.95917 17.2284 1.95917 14.8647V13.2754C2.63264 14.5795 7.51019 18.6547 12 18.6547C16.4898 18.6547 21.3673 14.5795 22.0612 13.255Z" fill="white"/></svg>