<svg width="24" height="24" viewBox="0 0 24 24" fill="none" xmlns="http://www.w3.org/2000/svg"><path fill-rule="evenodd" clip-rule="evenodd" d="M1.34318 5.11223C0.49287 3.67451 1.38608 3.87031 2.25619 4.37192V4.37082C2.25619 4.37082 4.56402 5.93834 5.77073 5.93834C6.69055 5.93834 10.3211 5.9881 12.0002 6.01183C13.6795 5.9881 17.3106 5.93834 18.2295 5.93834C19.4363 5.93834 21.7441 4.37082 21.7441 4.37082V4.37192C22.6142 3.87031 23.5074 3.67451 22.6571 5.11223C22.5729 5.25467 22.4837 5.41052 22.3891 5.57572C21.5286 7.07917 20.2246 9.35718 18.2295 9.35718H17.1537V10.8983H19.2878C19.4954 10.8992 19.6943 10.9821 19.841 11.129C19.9877 11.276 20.0704 11.475 20.071 11.6826V12.38C20.071 12.8112 19.719 13.1632 19.2878 13.1632H17.1537V19.1053H17.1478L17.1515 19.1055C17.1515 19.1055 16.7709 19.7677 15.6268 19.7677C14.4828 19.7677 14.1022 19.1055 14.1022 19.1055L14.1059 19.1053L14.1055 13.1632H12.1133C12.0995 13.164 12.0856 13.1643 12.0716 13.1643V13.1632H11.9287V13.1643C11.9147 13.1643 11.9008 13.164 11.8869 13.1632H9.89689V19.1033H9.86398L9.89799 19.1053C9.89799 19.1053 9.51739 19.7675 8.37337 19.7675C7.22826 19.7675 6.84875 19.1053 6.84875 19.1053L6.88277 19.1033H6.84875V13.1632H4.71252C4.50507 13.1624 4.30636 13.0796 4.15967 12.9329C4.01297 12.7862 3.93018 12.5875 3.92931 12.38V11.6826C3.92931 11.2514 4.28132 10.8983 4.71252 10.8983H6.84875V9.35718H5.77073C3.77502 9.35718 2.4698 7.0764 1.60908 5.57236C1.51528 5.40844 1.42675 5.25374 1.34318 5.11223ZM14.1055 10.8983V9.35718H9.89689V10.8983H14.1055Z" fill="white"/></svg>