<svg width="24" height="24" viewBox="0 0 24 24" fill="none" xmlns="http://www.w3.org/2000/svg"><path fill-rule="evenodd" clip-rule="evenodd" d="M17.345 12.271L21 9.74L19.456 9.307L16.733 8.543L17.927 4.223L13.899 6.086L12.074 2L11.684 2.83C11.176 3.91 10.674 4.975 10.17 6.05L6.18 4.108L7.288 8.45C5.85872 8.82122 4.42939 9.19222 3 9.563L6.606 12.165L4.32 15.395L4.028 15.808L4.278 15.79C4.436 15.779 4.583 15.769 4.73 15.757L6.086 15.646L6.628 15.601C6.763 15.591 6.898 15.581 7.034 15.573C7.332 15.553 7.63 15.533 7.924 15.49C8.493 15.406 9.058 15.299 9.624 15.191L9.934 15.133C9.96929 15.125 10.0026 15.1101 10.0322 15.0891C10.0617 15.0682 10.0868 15.0417 10.106 15.011C10.476 14.326 10.844 13.638 11.211 12.95L11.638 12.15L12.018 11.447L12.198 11.116L12.223 11.156C12.238 11.177 12.249 11.194 12.258 11.212L12.648 11.955C13.181 12.97 13.713 13.985 14.242 15.002C14.29 15.095 14.347 15.142 14.444 15.16L15.389 15.337C16.046 15.461 16.703 15.585 17.362 15.697C17.714 15.757 18.07 15.791 18.427 15.827L18.798 15.864C19.032 15.889 19.268 15.911 19.51 15.933L19.854 15.964L19.634 15.641L17.345 12.271ZM12.809 14.434L12.194 13.265L12.16 13.321C12.143 13.348 12.13 13.368 12.12 13.388L11.925 13.753C11.541 14.469 11.158 15.186 10.778 15.903C10.733 15.988 10.685 16.035 10.589 16.051C10.014 16.151 9.439 16.253 8.865 16.356C8.55676 16.4122 8.24842 16.4678 7.94 16.523L7.65 16.576L7.686 16.619C7.707 16.645 7.723 16.664 7.741 16.683L8.191 17.164C8.657 17.663 9.123 18.161 9.594 18.654C9.729 18.794 9.79 18.915 9.754 19.124C9.67 19.621 9.604 20.12 9.537 20.62L9.467 21.14C9.4421 21.3199 9.41777 21.4999 9.394 21.68L9.354 21.98L9.472 21.924L9.549 21.886L10.041 21.649C10.716 21.323 11.391 20.997 12.067 20.675C12.0994 20.6626 12.1339 20.6568 12.1686 20.6578C12.2033 20.6589 12.2374 20.6667 12.269 20.681C12.894 20.987 13.517 21.296 14.139 21.605L14.79 21.927C14.823 21.943 14.856 21.957 14.893 21.973L14.955 22L14.905 21.612L14.782 20.656C14.7122 20.1073 14.6399 19.559 14.565 19.011C14.551 18.909 14.579 18.84 14.651 18.766C15.195 18.206 15.734 17.641 16.273 17.076L16.331 17.015C16.413 16.929 16.493 16.841 16.576 16.75L16.701 16.613C16.489 16.573 16.278 16.533 16.068 16.495C15.3 16.351 14.545 16.209 13.792 16.062C13.7077 16.0402 13.6352 15.9864 13.59 15.912C13.39 15.545 13.196 15.175 13.003 14.805L12.809 14.435V14.434Z" fill="white"/></svg>