<svg width="24" height="24" viewBox="0 0 24 24" fill="none" xmlns="http://www.w3.org/2000/svg"><path fill-rule="evenodd" clip-rule="evenodd" d="M10.6365 7.1963C10.0238 7.4735 9.50575 8.3139 9.92815 9.3853C7.57305 8.59 7.66765 5.2845 9.12955 4.399C10.5893 3.5157 12.0038 1 12.0038 1C12.0038 1 13.4228 3.5124 14.8814 4.399C16.34 5.2856 16.4346 8.5911 14.0784 9.3842C14.5019 8.3139 13.9838 7.4779 13.3712 7.1963C12.7584 6.9158 12.0038 6.2624 12.0038 5.7509C12.0038 6.2668 11.2492 6.9158 10.6365 7.1963ZM16.5953 12.9317V20.1158H18.8997C18.8997 20.1158 18.0912 23 13.9838 23H10.0173C5.90985 23 5.10025 20.1158 5.10025 20.1158H7.40475V12.9328C7.40475 11.7426 8.38925 10.7691 9.59375 10.7691H11.1613V9.5151C11.163 9.29395 11.2523 9.08251 11.4096 8.92706C11.5669 8.77161 11.7794 8.68482 12.0005 8.6857C12.2215 8.68511 12.4337 8.77203 12.5908 8.92744C12.7479 9.08286 12.837 9.29414 12.8387 9.5151V10.7691H14.4073C15.6108 10.7691 16.5953 11.7426 16.5953 12.9317Z" fill="white"/></svg>