<svg width="24" height="24" viewBox="0 0 24 24" fill="none" xmlns="http://www.w3.org/2000/svg"><path fill-rule="evenodd" clip-rule="evenodd" d="M1 12C1 5.9269 5.9269 1 12 1C18.0731 1 23 5.9269 23 12C23 12.5489 22.945 13.0813 22.8691 13.6082C22.2179 10.0662 19.1214 7.3822 15.3946 7.3822C13.3778 7.38278 11.4438 8.18429 10.0178 9.61048C8.59182 11.0367 7.79059 12.9708 7.7903 14.9876C7.7903 19.0565 10.9902 22.3697 15.0096 22.571C14.0526 22.8427 13.0428 23 12 23C5.9269 23 1 18.0731 1 12ZM18.7903 14.9876C18.7903 15.8881 18.4326 16.7516 17.7959 17.3883C17.1592 18.025 16.2956 18.3827 15.3952 18.3827C14.4947 18.3827 13.6311 18.025 12.9944 17.3883C12.3577 16.7516 12 15.8881 12 14.9876C12 14.0871 12.3577 13.2236 12.9944 12.5869C13.6311 11.9502 14.4947 11.5925 15.3952 11.5925C16.2956 11.5925 17.1592 11.9502 17.7959 12.5869C18.4326 13.2236 18.7903 14.0871 18.7903 14.9876Z" fill="white"/></svg>