<svg width="24" height="24" viewBox="0 0 24 24" fill="none" xmlns="http://www.w3.org/2000/svg"><path fill-rule="evenodd" clip-rule="evenodd" d="M15.1327 4.4259C16.1272 4.83747 17.0305 5.44181 17.7904 6.2041H17.7915C19.2776 7.6902 20.1895 9.7329 20.1895 11.9989C20.1923 13.0756 19.9818 14.1422 19.5702 15.1372C19.1586 16.1322 18.5541 17.0358 17.7915 17.7959C16.3054 19.2754 14.2627 20.1939 11.9967 20.1939C10.9199 20.1965 9.85323 19.9859 8.85826 19.5741C7.8633 19.1623 6.95973 18.5576 6.19969 17.7948C4.72019 16.3098 3.80169 14.266 3.80169 12C3.79893 10.9235 4.00931 9.85717 4.42069 8.86242C4.83208 7.86766 5.43633 6.96418 6.19859 6.2041C7.68579 4.7235 9.72849 3.8061 11.9956 3.8061C13.0719 3.80369 14.1381 4.01434 15.1327 4.4259ZM13.1484 5.5507H10.8527V7.8453H13.1484V5.5507ZM5.55069 13.1473H7.84639V10.8527H5.55069V13.1473ZM10.8527 18.4493H13.1484V16.1547H10.8527V18.4493ZM9.81979 14.1747H14.1758V9.8187H9.81979V14.1747ZM18.4504 10.8527H16.1558V13.1473H18.4504V10.8527Z" fill="white"/><path fill-rule="evenodd" clip-rule="evenodd" d="M1 12C1 5.9236 5.9236 1 12 1C18.0709 1 23 5.9236 23 12C23 18.0764 18.0764 23 12 23C5.9236 23 1 18.0764 1 12ZM5.39432 18.5986C7.14613 20.3509 9.52227 21.3354 12 21.3357C14.4777 21.336 16.8541 20.352 18.6063 18.6002C20.3586 16.8484 21.3431 14.4722 21.3434 11.9945C21.3437 9.51677 20.3597 7.1404 18.6079 5.38817C16.8561 3.63595 14.4799 2.65139 12.0022 2.6511C9.52447 2.65081 7.1481 3.6348 5.39587 5.38662C3.64365 7.13843 2.65909 9.51457 2.6588 11.9923C2.65851 14.47 3.6425 16.8464 5.39432 18.5986Z" fill="white"/></svg>