<svg width="24" height="24" viewBox="0 0 24 24" fill="none" xmlns="http://www.w3.org/2000/svg"><path d="M18.5368 8.2468L17.0364 9.7428C17.6304 10.7548 17.9714 11.9307 17.9714 13.1913C17.9714 15.0943 17.2047 16.7993 15.9529 18.0467C15.3129 18.6859 14.5533 19.1928 13.7173 19.5382C12.8813 19.8836 11.9855 20.0608 11.081 20.0597C10.1766 20.0611 9.28079 19.884 8.44497 19.5386C7.60914 19.1931 6.8497 18.6862 6.21016 18.0467C5.5688 17.4115 5.06008 16.6551 4.71356 15.8216C4.36704 14.9881 4.18964 14.094 4.19166 13.1913C4.19166 11.2883 4.95836 9.5833 6.21016 8.3348C6.84992 7.69563 7.6094 7.18885 8.44518 6.84344C9.28095 6.49803 10.1766 6.32077 11.081 6.3218C12.3787 6.32063 13.6501 6.68798 14.7473 7.3811L13.589 8.5361C12.5868 7.99859 11.4383 7.79749 10.3131 7.96248C9.18792 8.12747 8.14555 8.6498 7.33986 9.4524C6.84809 9.94206 6.45787 10.524 6.19161 11.1649C5.92535 11.8058 5.78829 12.4929 5.78829 13.1869C5.78829 13.8809 5.92535 14.568 6.19161 15.2089C6.45787 15.8498 6.84809 16.4317 7.33986 16.9214C8.33417 17.9126 9.68137 18.4685 11.0854 18.4669C12.4896 18.468 13.8369 17.9122 14.832 16.9214C15.324 16.4319 15.7143 15.85 15.9805 15.2091C16.2467 14.5681 16.3835 13.8809 16.383 13.1869C16.383 12.3762 16.1938 11.6029 15.8605 10.9143L13.4295 13.3376C13.3952 13.9041 13.1536 14.4382 12.7508 14.838C12.3207 15.2615 11.7432 15.5222 11.0898 15.5222C10.6265 15.5232 10.1733 15.3867 9.78763 15.13C9.40196 14.8732 9.10116 14.5078 8.9233 14.08C8.74544 13.6522 8.69853 13.1813 8.78851 12.7268C8.87849 12.2723 9.10131 11.8548 9.42876 11.527C9.85996 11.1035 10.4364 10.8428 11.0898 10.8428C11.1492 10.8428 11.2075 10.8472 11.2669 10.8516L10.7653 11.351C10.5549 11.5625 10.4369 11.8486 10.4369 12.1468C10.4369 12.4451 10.5549 12.7312 10.7653 12.9427C10.9781 13.1526 11.265 13.2702 11.5639 13.2702C11.8628 13.2702 12.1496 13.1526 12.3625 12.9427L13.1798 12.1287L15.3083 10.0057L16.4457 8.8727L18.0979 7.2304V7.226H22.4385L20.2682 5.0623L22.7586 2.5796C22.4803 2.3024 22.3879 2.2309 21.9501 1.7942C21.5112 1.3575 21.4573 1.3069 21.1537 1L18.6754 3.4706L16.5139 1.3146V5.0117C14.9022 3.94672 13.0127 3.37975 11.081 3.3815C8.36726 3.3815 5.89776 4.4815 4.12346 6.2558C3.20917 7.16446 2.4838 8.24511 1.98916 9.43545C1.49452 10.6258 1.24041 11.9023 1.24146 13.1913C1.24041 14.4803 1.49452 15.7568 1.98916 16.9471C2.4838 18.1375 3.20917 19.2181 4.12346 20.1268C5.97034 21.9685 8.47271 23.0019 11.081 23C13.7958 23 16.2653 21.9 18.0396 20.1268C19.5781 18.598 20.5639 16.6006 20.8416 14.4495C21.1192 12.2984 20.6729 10.1161 19.573 8.2468H18.5368Z" fill="white"/></svg>