<svg width="24" height="24" viewBox="0 0 24 24" fill="none" xmlns="http://www.w3.org/2000/svg"><path fill-rule="evenodd" clip-rule="evenodd" d="M22.0436 3.5707C22.0436 6.2635 20.9194 8.6989 19.1011 10.4655C17.1972 12.3069 14.6492 13.3316 12.0006 13.3211C9.35151 13.3319 6.80309 12.3072 4.89895 10.4655C3.08065 8.7 1.95645 6.2635 1.95645 3.5707C1.95645 2.6797 2.08185 1.8184 2.31175 1C4.43255 3.9898 7.97895 5.95 12.0006 5.9522C16.0211 5.95 19.5675 3.9898 21.6883 1C21.9193 1.8184 22.0436 2.6797 22.0436 3.5707ZM5.27405 12.9559C7.13195 14.2693 9.46505 15.0525 12.0006 15.0525C14.5339 15.0525 16.8681 14.2693 18.726 12.9559L19.1737 18.5395L15.2841 16.3604L12.0017 22.9956V23L12.0006 22.9978L11.9984 23V22.9956L8.71595 16.3604L4.82635 18.5395L5.27405 12.9559Z" fill="white"/></svg>