<svg width="24" height="24" viewBox="0 0 24 24" fill="none" xmlns="http://www.w3.org/2000/svg"><path fill-rule="evenodd" clip-rule="evenodd" d="M21.4468 7.75727C21.8616 7.58124 22.3467 7.66375 22.6735 7.95969C22.9991 8.25563 23.0915 8.70558 22.9111 9.09283C21.6949 11.7017 20.5435 14.3403 19.4578 17.0061H19.4666L18.9605 18.2536L18.9198 18.3504C18.9198 18.357 18.9176 18.3614 18.9143 18.3658L18.911 18.3724L17.8967 20.8554L16.9572 18.5584C16.9152 18.5005 16.8797 18.4382 16.8516 18.3724L13.9846 11.479H13.9714C13.6887 11.4878 13.4104 11.4966 13.1375 11.4966C12.0396 11.4966 11.0033 11.413 10.0242 11.2854L6.73806 18.4032C6.71705 18.4534 6.69048 18.501 6.65885 18.5452L5.61373 20.8554L4.75342 18.4836C4.72702 18.4296 4.70062 18.3768 4.67862 18.3196L4.26057 17.1161L4.21986 17.0061L1.05368 7.91128C0.984158 7.70571 0.9849 7.48287 1.05579 7.27776C1.12668 7.07266 1.2637 6.89692 1.44533 6.77815C1.82487 6.51412 2.34083 6.50422 2.72918 6.75615H2.73358L2.75998 6.77375L2.892 6.85296C3.01632 6.92337 3.20004 7.02898 3.44757 7.15659C3.93713 7.40852 4.66101 7.74846 5.58182 8.09171C6.45093 8.41404 7.50595 8.73638 8.6919 8.98721L11.1045 3.75168C11.2805 3.36884 11.6876 3.12131 12.1364 3.13011C12.5875 3.13891 12.9835 3.39414 13.1463 3.78359L15.4533 9.32275C17.5162 9.0926 19.5349 8.56531 21.4468 7.75727ZM3.99213 9.6847L5.87446 15.0918L7.81509 10.8926C6.77945 10.6571 5.76008 10.3551 4.76333 9.98833C4.50421 9.89241 4.24709 9.79117 3.99213 9.6847ZM10.9296 9.34036C11.6348 9.41076 12.3762 9.45477 13.143 9.45477L12.0715 6.86616L10.9296 9.34036ZM17.8714 15.1359C18.5152 13.5855 19.1812 12.0444 19.8692 10.5131C18.6907 10.8622 17.4879 11.1233 16.2707 11.2942L17.8714 15.1359ZM7.97791 20.6442L11.1617 14.0291L12.6392 14.1875L15.8406 20.6453H7.97901L7.97791 20.6442Z" fill="white"/></svg>