<svg width="24" height="24" viewBox="0 0 24 24" fill="none" xmlns="http://www.w3.org/2000/svg"><path d="M20.1512 13.863L20.0973 13.7706C19.9761 13.5619 19.8507 13.3558 19.7211 13.1524C19.7068 13.1304 19.6881 13.1062 19.6749 13.0831C19.556 12.9 19.4331 12.7195 19.3064 12.5418L19.225 12.4252C18.977 12.0799 18.715 11.7449 18.4396 11.4209C19.1898 11.8983 19.8993 12.4329 20.6319 12.9962C21.4206 13.5924 21.9849 14.3206 22.9793 14.9696C23.2158 12.6166 21.3766 10.5728 19.9048 8.96021C18.4275 7.3377 16.7698 6.37189 14.7985 5.48968C11.861 4.18039 8.64483 3.61917 5.43744 3.85616C4.38693 3.95516 3.32982 4.11246 2.31121 4.47547C4.30553 5.25098 6.18875 5.87908 8.02797 6.55449L8.59997 6.76459C8.40802 6.76651 8.21616 6.77421 8.02467 6.78769C7.76799 6.80482 7.51192 6.83013 7.25686 6.86359C6.82456 6.91639 6.38345 6.99119 5.93135 7.09019C5.88515 7.10229 5.83455 7.11109 5.78835 7.12319C5.56614 7.17269 5.34174 7.23099 5.11404 7.2915L5.02054 7.3179C4.81264 7.3762 4.60254 7.44 4.39023 7.5071L4.25493 7.5511C4.02393 7.627 3.79073 7.7106 3.55422 7.7986C3.50802 7.8162 3.46182 7.8327 3.41452 7.8536C3.19562 7.9383 2.97672 8.0252 2.75452 8.122C2.72262 8.1363 2.69072 8.1473 2.65882 8.1627C2.41681 8.2672 2.17041 8.38051 1.92181 8.49711C1.86681 8.52351 1.81511 8.54991 1.75901 8.57521C1.5034 8.69834 1.25034 8.8267 1 8.96021C1.0616 9.20991 1.1287 9.45192 1.198 9.69392L1.2629 9.90952C1.3124 10.0745 1.3619 10.2406 1.4147 10.4012L1.4939 10.6377C1.54561 10.795 1.60171 10.949 1.65671 11.0997C1.68311 11.1701 1.70621 11.2405 1.73371 11.3098C1.80631 11.5045 1.88221 11.6948 1.95811 11.8807L1.98341 11.9445C2.07141 12.1513 2.15941 12.3515 2.24961 12.5495L2.32881 12.7189C2.39481 12.8586 2.46301 12.9984 2.53231 13.1359C2.56532 13.1997 2.60052 13.2635 2.63132 13.3273C2.69952 13.456 2.76662 13.5803 2.83702 13.7068C2.86892 13.764 2.90082 13.8223 2.93602 13.8806C3.02072 14.0269 3.10542 14.1688 3.19232 14.3118L3.24512 14.3998C3.35072 14.5681 3.46182 14.7309 3.56963 14.8882L3.65763 15.0103C3.73903 15.1269 3.82263 15.2435 3.90843 15.3546C3.94583 15.4063 3.98653 15.4558 4.02503 15.5053C4.10313 15.6076 4.18563 15.7066 4.26373 15.8056L4.38143 15.9453C4.47493 16.0553 4.56843 16.1609 4.66414 16.2654L4.74334 16.3534C4.86544 16.4843 4.98864 16.6119 5.11734 16.7373C5.14594 16.767 5.17564 16.7923 5.20094 16.8187C5.29994 16.9144 5.39674 17.0057 5.49684 17.0959C5.54084 17.1333 5.58154 17.1707 5.62445 17.2092L5.89615 17.4391L6.02815 17.5469C6.12715 17.6283 6.22945 17.7042 6.33175 17.7823L6.42745 17.856C6.56165 17.955 6.69916 18.0507 6.83666 18.1442C6.85976 18.1607 6.88616 18.1761 6.90926 18.1904C7.02366 18.2663 7.13696 18.3356 7.25026 18.406L7.38556 18.4841C7.48126 18.5424 7.58136 18.5974 7.68037 18.6535L7.82007 18.7294C7.92567 18.7844 8.03017 18.8394 8.13577 18.8922L8.24907 18.9472C8.39207 19.0176 8.53837 19.0847 8.68468 19.1485C8.69898 19.154 8.71438 19.1595 8.72538 19.1661C8.85738 19.2211 8.98828 19.2761 9.11918 19.3256C9.16318 19.3432 9.21048 19.3608 9.25448 19.3751C9.35898 19.4136 9.46128 19.451 9.56688 19.4851C9.61638 19.5038 9.66258 19.5181 9.71208 19.5357C9.81989 19.5709 9.92879 19.605 10.0366 19.6369L10.1587 19.6754C10.4568 19.7601 10.7571 19.8349 11.0552 19.8998L11.1872 19.9262C11.295 19.946 11.4028 19.9702 11.5106 19.9867L11.6569 20.0131C11.7647 20.0307 11.8725 20.0483 11.9814 20.0626L12.1134 20.0802C12.2586 20.1 12.4038 20.1176 12.5534 20.1297H12.5589C12.7107 20.144 12.8625 20.1561 13.0121 20.1671C13.162 20.1766 13.3119 20.1836 13.462 20.188C13.5082 20.1902 13.5577 20.1902 13.605 20.1902C13.7095 20.1935 13.814 20.1968 13.9229 20.1968H14.0483C14.2199 20.1968 14.3959 20.1935 14.5653 20.188C14.5939 20.188 14.6236 20.1847 14.6533 20.1847C14.804 20.1792 14.9558 20.1704 15.1076 20.1583C15.1406 20.1561 15.1725 20.1561 15.2044 20.1528C15.5522 20.1277 15.8989 20.0899 16.2439 20.0395C16.2725 20.0362 16.3022 20.0307 16.3319 20.0285C16.4948 20.0043 16.6587 19.9779 16.8193 19.9493L16.915 19.9317C17.058 19.9053 17.1988 19.8789 17.3385 19.8503C17.7089 19.7715 18.0769 19.6812 18.4418 19.5797C18.5914 19.5379 18.7344 19.495 18.8807 19.4477L18.9764 19.4191C19.1051 19.3784 19.2338 19.3344 19.3592 19.2904L19.4087 19.2739C19.575 19.2142 19.7404 19.1518 19.9048 19.0869C20.028 19.0374 20.1468 18.9912 20.2678 18.9384L20.2997 18.9241C20.4251 18.8691 20.5472 18.8141 20.6671 18.758C20.6968 18.747 20.7221 18.7316 20.7518 18.7173C20.8662 18.6623 20.9762 18.6095 21.0851 18.5523L21.1016 18.5424C21.2365 18.4714 21.37 18.3977 21.502 18.3213C21.6076 18.2597 21.7099 18.2014 21.8056 18.1409V18.1376C21.7751 17.973 21.741 17.809 21.7033 17.6459C21.6923 17.5986 21.6813 17.5502 21.6681 17.5029C21.6323 17.3627 21.5946 17.2229 21.5548 17.0838C21.5438 17.0464 21.5339 17.0046 21.5218 16.9672C21.4668 16.7837 21.4078 16.6014 21.3447 16.4205C21.3337 16.382 21.315 16.3435 21.304 16.3061C21.2298 16.0993 21.1499 15.8946 21.0642 15.6923C20.8977 15.2896 20.7146 14.894 20.5153 14.5065L20.4449 14.3734C20.3459 14.2095 20.2502 14.0357 20.1501 13.863H20.1512ZM11.4556 9.06471C12.693 9.40078 13.8605 9.95508 14.903 10.7015C13.9229 13.8806 12.4137 17.0838 10.7868 17.8087C9.71869 16.2247 10.1598 12.5506 11.4556 9.06471Z" fill="white"/></svg>