<svg width="24" height="24" viewBox="0 0 24 24" fill="none" xmlns="http://www.w3.org/2000/svg"><path fill-rule="evenodd" clip-rule="evenodd" d="M14.6652 10.3905C14.6623 11.0395 14.5855 11.686 14.4365 12.3177C14.2499 13.0797 13.9749 13.8173 13.617 14.5154C13.3618 15.028 13.0681 15.5076 12.7546 15.9663C12.5324 16.2919 12.3003 16.612 12.0506 16.9112C12.0187 16.9497 12.0033 16.9684 11.9868 16.9684C11.9703 16.9684 11.9538 16.9497 11.923 16.9112C11.4067 16.2732 10.9456 15.5924 10.5447 14.8762C10.2587 14.3526 10.0057 13.8071 9.80334 13.2263C9.6225 12.7128 9.48957 12.1836 9.40625 11.6456C9.36225 11.3486 9.32925 11.0527 9.31825 10.7546L9.31385 10.6688C9.30835 10.5588 9.30285 10.4488 9.30505 10.3388C9.31495 9.84273 9.35895 9.35324 9.44585 8.87035C9.58273 8.15688 9.80123 7.46152 10.097 6.79799C10.3698 6.1699 10.6998 5.58802 11.0639 5.03583C11.2256 4.78943 11.3906 4.55294 11.5622 4.32084C11.6546 4.19544 11.7492 4.07555 11.846 3.95565L11.9263 3.85445C11.9868 3.77745 11.9967 3.78185 12.0539 3.85445C12.4884 4.41984 12.913 4.99843 13.2804 5.63422C13.5026 6.01921 13.7094 6.4196 13.8909 6.83539C14.0889 7.29408 14.2572 7.77037 14.3892 8.26536C14.5101 8.72735 14.5948 9.19704 14.6311 9.67883C14.652 9.91863 14.6685 10.1551 14.6652 10.3905ZM11.0771 17.3941C10.8989 17.3941 10.7405 17.3699 10.5821 17.3468C10.2719 17.3028 9.95844 17.2544 9.65155 17.184C8.99343 17.0418 8.35461 16.8218 7.74859 16.5284C7.26108 16.2894 6.80696 15.9877 6.39781 15.6308C5.90254 15.194 5.48747 14.6739 5.17134 14.0941C4.82754 13.4599 4.58096 12.7777 4.43985 12.0702C4.35845 11.6852 4.30785 11.2958 4.26825 10.9042C4.26057 10.8244 4.2547 10.7445 4.25065 10.6644C4.24845 10.6105 4.24515 10.5577 4.24075 10.5038C4.22095 10.2145 4.22316 9.92523 4.22535 9.63704L4.22755 9.35104C4.22755 9.15745 4.23855 8.96055 4.25835 8.76805C4.26825 8.68115 4.28145 8.66905 4.35845 8.67785L4.58395 8.70425C5.29334 8.77422 5.99367 8.91686 6.67391 9.12995C7.2467 9.30887 7.79475 9.55906 8.30517 9.87463C8.33597 9.89333 8.36897 9.91423 8.40197 9.93183C8.44927 9.96153 8.46577 10.0022 8.45587 10.0583C8.43273 10.1995 8.41475 10.3415 8.40197 10.484L8.39427 10.5632C8.38117 10.6849 8.37383 10.8071 8.37227 10.9295V11.3794C8.37447 11.8084 8.42837 12.2308 8.50977 12.6466C8.61097 13.1658 8.76936 13.6641 8.96846 14.1502C9.14336 14.5825 9.35565 14.995 9.59105 15.3943C9.81324 15.7705 10.0563 16.1324 10.3192 16.4789C10.5143 16.7373 10.7191 16.9883 10.933 17.2313C10.9792 17.2863 11.0254 17.3391 11.076 17.3941H11.0771ZM12.9383 17.3446C12.9284 17.3556 12.9163 17.3699 12.9196 17.3996C13.0747 17.3941 13.2265 17.3743 13.375 17.3556L13.529 17.3358C14.0482 17.2588 14.5629 17.1488 15.0689 16.9926C15.6858 16.8081 16.2752 16.5418 16.8212 16.2006C17.2018 15.9586 17.5582 15.6792 17.8794 15.3492C18.2869 14.9295 18.6288 14.4508 18.8936 13.9291C19.1598 13.4067 19.3512 12.8545 19.4865 12.2759C19.5794 11.87 19.6456 11.4585 19.6844 11.0439C19.7086 10.7887 19.7317 10.5291 19.735 10.2739C19.7372 10.1254 19.7372 9.97693 19.7372 9.82953C19.7372 9.68103 19.7372 9.53254 19.7394 9.38514C19.7396 9.29593 19.7359 9.20675 19.7284 9.11785C19.7213 9.02856 19.718 8.93902 19.7185 8.84945C19.7185 8.82965 19.7152 8.80765 19.7119 8.78675C19.7092 8.77327 19.707 8.7597 19.7053 8.74605C19.6987 8.69985 19.6723 8.68335 19.6316 8.68665C18.6343 8.74451 17.6532 8.966 16.7277 9.34224C16.3328 9.50174 15.9522 9.69423 15.5881 9.92743C15.5034 9.98023 15.5001 9.99013 15.5177 10.0968C15.5683 10.3938 15.5837 10.6952 15.5991 10.9988L15.6079 11.1781C15.612 11.2136 15.6109 11.2496 15.6046 11.2848C15.5914 11.3574 15.5914 11.4311 15.5914 11.5048C15.5914 11.672 15.5738 11.8414 15.5551 12.0108L15.5474 12.0823C15.4463 12.8652 15.2329 13.6295 14.9138 14.3515C14.5711 15.1115 14.143 15.83 13.6379 16.4932C13.4179 16.7869 13.1891 17.0729 12.9438 17.3391L12.9383 17.3446ZM12.4818 18.3676H12.495C12.5709 18.3566 12.6446 18.3478 12.7172 18.3456C13.0747 18.3247 13.4322 18.2851 13.7853 18.2323C14.2198 18.1685 14.6509 18.0849 15.0755 17.976C15.6222 17.833 16.1535 17.6526 16.6661 17.4172C17.1204 17.2082 17.5483 16.9508 17.9531 16.6549C18.2897 16.4085 18.5867 16.1269 18.8694 15.8266C19.0817 15.5967 19.2742 15.3514 19.4457 15.0918C19.4765 15.0467 19.4909 15.0247 19.5117 15.0159C19.5326 15.0082 19.559 15.0159 19.6107 15.028C20.1189 15.1512 20.6084 15.3349 21.0825 15.5505C21.6457 15.8068 22.1715 16.1225 22.683 16.4624L22.6852 16.4635C22.7732 16.5229 22.859 16.5823 22.9459 16.645C23.0141 16.6912 23.0141 16.6989 22.9668 16.7616C22.6394 17.2011 22.2837 17.6189 21.902 18.0123C21.5692 18.3583 21.2087 18.6765 20.824 18.9637C20.3389 19.3267 19.8164 19.6259 19.2467 19.8382C18.8397 19.9922 18.4184 20.1044 17.9839 20.155C17.7569 20.1838 17.5285 20.1992 17.2997 20.2012C16.8542 20.1979 16.4103 20.1478 15.9753 20.0516C15.3599 19.9089 14.7631 19.6955 14.1967 19.4158C13.7536 19.1977 13.3238 18.9534 12.9097 18.6844C12.7726 18.5918 12.637 18.4971 12.5027 18.4006L12.5005 18.3995C12.4916 18.3911 12.4851 18.3804 12.4818 18.3687V18.3676ZM11.505 18.3676H11.5182C11.516 18.3874 11.5072 18.3951 11.4973 18.4028C10.4865 19.2202 9.29585 19.7857 8.02358 20.0527C7.58689 20.1484 7.1447 20.1979 6.70031 20.2012C6.47151 20.2012 6.24161 20.1814 6.01612 20.155C5.58383 20.1015 5.15973 19.9951 4.75334 19.8382C4.18856 19.6234 3.6574 19.3289 3.17598 18.9637C2.79208 18.6778 2.43129 18.3588 2.098 18.0123C1.71636 17.6189 1.36069 17.2011 1.03322 16.7616C0.985919 16.6978 0.985919 16.6912 1.05412 16.645L1.31591 16.4624C1.8285 16.1225 2.35429 15.8068 2.91638 15.5505C3.38965 15.33 3.88283 15.1551 4.38925 15.028C4.44095 15.0148 4.46735 15.0082 4.48825 15.017C4.50915 15.0247 4.52345 15.0467 4.55425 15.0918C4.72584 15.3514 4.91724 15.5978 5.13064 15.8266C5.41333 16.1258 5.71033 16.4096 6.04692 16.6549C6.45061 16.9519 6.8785 17.2071 7.33389 17.4172C7.84538 17.6526 8.37887 17.833 8.92446 17.976C9.34959 18.0847 9.78031 18.1703 10.2147 18.2323C10.5678 18.2851 10.9253 18.3247 11.2817 18.3445C11.3554 18.3478 11.4291 18.3577 11.505 18.3665V18.3676Z" fill="white"/></svg>