<svg width="24" height="24" viewBox="0 0 24 24" fill="none" xmlns="http://www.w3.org/2000/svg"><path d="M21.4384 5.01458C21.4033 4.95883 21.3529 4.91442 21.2932 4.8867C21.2335 4.85899 21.167 4.84916 21.1018 4.8584L17.3039 5.40174L17.5459 1.31896C17.5421 1.25013 17.5173 1.18411 17.4748 1.12978C17.4324 1.07545 17.3743 1.03542 17.3084 1.01506C17.2426 0.9947 17.1721 0.994991 17.1064 1.01589C17.0407 1.03679 16.9829 1.07731 16.9409 1.13198L14.332 3.32956C14.2367 3.23887 14.1345 3.15576 14.0262 3.08098C13.6083 2.78951 12.9461 2.50904 12.0002 2.51124C11.0543 2.50904 10.3922 2.78951 9.97425 3.08098C9.86603 3.15577 9.76379 3.23888 9.66848 3.32956L7.05955 1.13418C7.01716 1.08037 6.95955 1.04057 6.89422 1.01997C6.82889 0.999368 6.75887 0.998924 6.69329 1.01869C6.6277 1.03874 6.5698 1.07834 6.52734 1.1322C6.48488 1.18606 6.45989 1.25161 6.45571 1.32006L6.69769 5.40284L2.89868 4.8584C2.83349 4.84916 2.76701 4.85899 2.70729 4.8867C2.64756 4.91442 2.59714 4.95883 2.56211 5.01458C2.5275 5.06977 2.50988 5.13391 2.51145 5.19904C2.51301 5.26416 2.53369 5.32738 2.57091 5.38084L4.76958 8.53752L2.95147 9.36353C2.89155 9.38991 2.84076 9.43341 2.80548 9.48856C2.7702 9.54371 2.75201 9.60805 2.75318 9.67351C2.75436 9.73897 2.77485 9.80262 2.81209 9.85647C2.84932 9.91032 2.90164 9.95196 2.96247 9.97617L4.52871 10.6262C4.42422 10.7384 4.30873 10.8704 4.19104 11.0222C4.01506 11.2509 3.83468 11.5171 3.69499 11.8141C3.5446 12.1143 3.46235 12.4441 3.45412 12.7798C3.45302 13.0801 3.53551 13.3946 3.72909 13.6762C3.80103 13.7806 3.89347 13.8693 4.00076 13.9369C4.15475 14.037 4.33073 14.0974 4.51771 14.1348C4.70359 14.1711 4.90047 14.1865 5.10725 14.1865C5.33163 14.1865 5.5692 14.1678 5.80788 14.1381L4.5914 16.5062C4.56201 16.5642 4.55008 16.6294 4.55708 16.694C4.56408 16.7587 4.5897 16.8199 4.63083 16.8702C4.67195 16.9205 4.72681 16.9578 4.78874 16.9776C4.85067 16.9973 4.917 16.9986 4.97966 16.9814L7.63039 16.2796C7.59189 16.5128 7.5567 16.7383 7.5248 16.9506C7.45551 17.4125 7.40601 17.8085 7.39282 18.0867C7.39172 18.123 7.38951 18.1582 7.38951 18.1956C7.38951 18.4904 7.44451 18.7896 7.5248 19.0898C7.64799 19.5408 7.83277 19.9906 8.01645 20.4064C8.19903 20.82 8.37941 21.1961 8.4916 21.4766C8.65549 21.8868 8.89856 22.2619 9.23843 22.5435C9.59631 22.8418 10.0484 23.0035 10.5143 22.9999C10.6265 22.9999 10.7398 22.9911 10.8564 22.9746C11.1161 22.9428 11.3655 22.8537 11.5867 22.714C11.7352 22.6161 11.8551 22.4962 11.9463 22.3653C11.965 22.3389 11.9793 22.3103 11.9969 22.2828C12.1336 22.5079 12.3321 22.6889 12.5689 22.8042C12.7339 22.8866 12.9241 22.9427 13.1408 22.9746C13.2574 22.9911 13.3718 22.9999 13.4818 22.9999C13.9486 23.0038 14.4016 22.8416 14.7599 22.5424C15.0947 22.2553 15.3516 21.8884 15.5067 21.4755C15.6552 21.1026 15.9268 20.5582 16.1633 19.9796C16.2847 19.6893 16.3879 19.3918 16.4724 19.0887C16.5538 18.7896 16.6077 18.4904 16.6077 18.1956C16.6077 18.1582 16.6055 18.1219 16.6044 18.0856C16.5767 17.7059 16.5327 17.3276 16.4724 16.9517C16.4394 16.7383 16.4053 16.5117 16.3657 16.2807L19.0164 16.9814C19.1451 17.0143 19.2826 16.9704 19.3673 16.8692C19.4084 16.819 19.434 16.7579 19.4409 16.6934C19.4477 16.6289 19.4355 16.5639 19.4058 16.5062L18.1893 14.1381C18.4291 14.1678 18.6667 14.1865 18.8899 14.1865C19.1649 14.1865 19.4245 14.1612 19.6599 14.0897C19.7782 14.0545 19.8911 14.003 19.9953 13.9369C20.0987 13.8709 20.1933 13.7829 20.2659 13.6762C20.4584 13.3924 20.5409 13.0801 20.5387 12.7798C20.5387 12.4344 20.4375 12.1089 20.2989 11.813C20.1 11.4124 19.8452 11.042 19.5422 10.7131L19.4652 10.6284L21.0325 9.97837C21.0933 9.95416 21.1457 9.91252 21.1829 9.85867C21.2201 9.80482 21.2406 9.74117 21.2418 9.67571C21.243 9.61025 21.2248 9.54591 21.1895 9.49076C21.1542 9.43561 21.1034 9.39211 21.0435 9.36574L19.2243 8.53972L21.423 5.38304C21.4628 5.33052 21.4856 5.26708 21.4883 5.20122C21.4911 5.13537 21.4737 5.07025 21.4384 5.01458ZM17.4546 12.6588C16.391 12.2298 15.7256 11.9186 15.4198 11.6326C15.1866 11.4368 14.6796 10.9837 14.2946 10.6361C14.1651 11.226 13.9423 11.7915 13.6347 12.3112C14.2286 12.9272 14.8357 16.0838 14.9985 17.5027C15.1591 18.9216 14.2154 20.3789 13.9448 21.0476C13.6743 21.7153 13.0044 22.1706 13.1628 19.1195C13.2442 17.5544 13.5148 18.1967 13.2442 17.5544C12.9736 16.911 12.0013 15.2259 12.0013 15.2259C12.0013 15.2259 11.029 16.9132 10.7585 17.5555C10.4879 18.1989 10.7585 17.5555 10.8399 19.1217C10.9971 22.1728 10.3262 21.7175 10.0578 21.0487C9.78727 20.3789 8.84247 18.9227 9.00525 17.5038C9.16693 16.0849 9.77297 12.9272 10.3691 12.3123C10.0617 11.7961 9.83367 11.2366 9.69268 10.6526C9.30882 10.998 8.81277 11.4423 8.58179 11.6348C8.27602 11.9186 7.61059 12.232 6.5481 12.661C5.48561 13.09 3.99196 13.4089 5.07095 12.3761C6.15104 11.3422 7.39282 10.5833 7.39282 10.5833C7.39282 10.5833 8.09454 8.78059 8.88646 7.87099C9.4419 7.23195 10.4153 7.33204 10.9465 7.44973C10.6446 7.08821 10.4819 6.63058 10.4879 6.15956C10.4879 5.16527 11.1654 4.35795 12.0002 4.35795C12.8351 4.35795 13.5126 5.16527 13.5126 6.15956C13.5126 6.66551 13.3366 7.12307 13.0539 7.44973C13.5852 7.33424 14.5586 7.23305 15.114 7.87099C15.9059 8.78059 16.6077 10.5833 16.6077 10.5833C16.6077 10.5833 17.8494 11.3422 18.9284 12.3761C20.0107 13.4078 18.5171 13.0867 17.4546 12.6588Z" fill="white"/></svg>