<svg width="24" height="24" viewBox="0 0 24 24" fill="none" xmlns="http://www.w3.org/2000/svg"><path fill-rule="evenodd" clip-rule="evenodd" d="M9.66021 5.02584C5.42297 6.57796 3.26365 11.2321 4.83227 15.4165C4.83227 15.4165 1.48604 12.4652 3.71686 6.18855C7.63289 -2.76773 20.0168 2.58932 20.0168 2.58932L17.9664 6.59446C16.8527 5.60752 15.4924 4.94065 14.0302 4.66466C12.5679 4.38867 11.0582 4.51386 9.66131 5.02694L9.66021 5.02584ZM11.3663 5.99935C14.6312 5.52965 18.1963 7.05866 18.8519 10.4654C19.5031 13.8754 21.0398 18.1457 21.0398 18.1457L20.3831 18.2051L19.0279 17.8102L17.4252 14.4056L11.6897 13.0537L13.0834 15.07L16.6926 16.8597L18.7276 23C18.7276 23 17.7816 22.4104 16.6486 22.4104C16.1734 20.195 15.036 19.3997 13.915 19.1995L9.93411 21.0915L3.55405 20.822L5.94218 17.588C5.98707 16.7702 5.89108 15.9509 5.65837 15.1657C4.29106 9.81968 8.0916 6.46905 11.3674 5.99825L11.3663 5.99935Z" fill="white"/></svg>